%TF.GenerationSoftware,KiCad,Pcbnew,(5.1.5)-3*%
%TF.CreationDate,2020-03-25T18:08:18+08:00*%
%TF.ProjectId,RH2288_PWM,52483232-3838-45f5-9057-4d2e6b696361,rev?*%
%TF.SameCoordinates,Original*%
%TF.FileFunction,Legend,Top*%
%TF.FilePolarity,Positive*%
%FSLAX46Y46*%
G04 Gerber Fmt 4.6, Leading zero omitted, Abs format (unit mm)*
G04 Created by KiCad (PCBNEW (5.1.5)-3) date 2020-03-25 18:08:18*
%MOMM*%
%LPD*%
G04 APERTURE LIST*
%ADD10C,0.120000*%
%ADD11C,0.150000*%
G04 APERTURE END LIST*
D10*
X158605000Y-105400000D02*
X157145000Y-105400000D01*
X158605000Y-102240000D02*
X156445000Y-102240000D01*
X158605000Y-102240000D02*
X158605000Y-103170000D01*
X158605000Y-105400000D02*
X158605000Y-104470000D01*
X152134835Y-104318826D02*
X152400000Y-104583991D01*
X152400000Y-98616009D02*
X152134835Y-98881174D01*
X152665165Y-98881174D02*
X152400000Y-98616009D01*
X155383991Y-101600000D02*
X155118826Y-101865165D01*
X155118826Y-101334835D02*
X155383991Y-101600000D01*
X149416009Y-101600000D02*
X149681174Y-101334835D01*
X149681174Y-101865165D02*
X149416009Y-101600000D01*
X152715279Y-91565000D02*
X152389721Y-91565000D01*
X152715279Y-92585000D02*
X152389721Y-92585000D01*
X145990000Y-99000000D02*
X147320000Y-99000000D01*
X145990000Y-100330000D02*
X145990000Y-99000000D01*
X145990000Y-101600000D02*
X148650000Y-101600000D01*
X148650000Y-101600000D02*
X148650000Y-104200000D01*
X145990000Y-101600000D02*
X145990000Y-104200000D01*
X145990000Y-104200000D02*
X148650000Y-104200000D01*
X144720000Y-107950000D02*
X144720000Y-106840000D01*
X144720000Y-106840000D02*
X146050000Y-106840000D01*
X144720000Y-118040000D02*
X160080000Y-118040000D01*
X160080000Y-118040000D02*
X160080000Y-109410000D01*
X144720000Y-109410000D02*
X160080000Y-109410000D01*
X144720000Y-118040000D02*
X144720000Y-109410000D01*
X157480000Y-118040000D02*
X157480000Y-109410000D01*
X154940000Y-118040000D02*
X154940000Y-109410000D01*
X152400000Y-118040000D02*
X152400000Y-109410000D01*
X149860000Y-118040000D02*
X149860000Y-109410000D01*
X147320000Y-118040000D02*
X147320000Y-109410000D01*
X159110000Y-109410000D02*
X159110000Y-109000000D01*
X158390000Y-109410000D02*
X158390000Y-109000000D01*
X156570000Y-109410000D02*
X156570000Y-109000000D01*
X155850000Y-109410000D02*
X155850000Y-109000000D01*
X154030000Y-109410000D02*
X154030000Y-109000000D01*
X153310000Y-109410000D02*
X153310000Y-109000000D01*
X151490000Y-109410000D02*
X151490000Y-109000000D01*
X150770000Y-109410000D02*
X150770000Y-109000000D01*
X148950000Y-109410000D02*
X148950000Y-109000000D01*
X148230000Y-109410000D02*
X148230000Y-109000000D01*
X146410000Y-109410000D02*
X146410000Y-109060000D01*
X145690000Y-109410000D02*
X145690000Y-109060000D01*
X147201900Y-118040000D02*
X147201900Y-109410000D01*
X147083805Y-118040000D02*
X147083805Y-109410000D01*
X146965710Y-118040000D02*
X146965710Y-109410000D01*
X146847615Y-118040000D02*
X146847615Y-109410000D01*
X146729520Y-118040000D02*
X146729520Y-109410000D01*
X146611425Y-118040000D02*
X146611425Y-109410000D01*
X146493330Y-118040000D02*
X146493330Y-109410000D01*
X146375235Y-118040000D02*
X146375235Y-109410000D01*
X146257140Y-118040000D02*
X146257140Y-109410000D01*
X146139045Y-118040000D02*
X146139045Y-109410000D01*
X146020950Y-118040000D02*
X146020950Y-109410000D01*
X145902855Y-118040000D02*
X145902855Y-109410000D01*
X145784760Y-118040000D02*
X145784760Y-109410000D01*
X145666665Y-118040000D02*
X145666665Y-109410000D01*
X145548570Y-118040000D02*
X145548570Y-109410000D01*
X145430475Y-118040000D02*
X145430475Y-109410000D01*
X145312380Y-118040000D02*
X145312380Y-109410000D01*
X145194285Y-118040000D02*
X145194285Y-109410000D01*
X145076190Y-118040000D02*
X145076190Y-109410000D01*
X144958095Y-118040000D02*
X144958095Y-109410000D01*
X144840000Y-118040000D02*
X144840000Y-109410000D01*
X144780000Y-91440000D02*
X144780000Y-90170000D01*
X146050000Y-91440000D02*
X144780000Y-91440000D01*
X159130000Y-89127071D02*
X159130000Y-88730000D01*
X158370000Y-89127071D02*
X158370000Y-88730000D01*
X159130000Y-80070000D02*
X159130000Y-86070000D01*
X158370000Y-80070000D02*
X159130000Y-80070000D01*
X158370000Y-86070000D02*
X158370000Y-80070000D01*
X157480000Y-88730000D02*
X157480000Y-86070000D01*
X156590000Y-89127071D02*
X156590000Y-88730000D01*
X155830000Y-89127071D02*
X155830000Y-88730000D01*
X156590000Y-80070000D02*
X156590000Y-86070000D01*
X155830000Y-80070000D02*
X156590000Y-80070000D01*
X155830000Y-86070000D02*
X155830000Y-80070000D01*
X154940000Y-88730000D02*
X154940000Y-86070000D01*
X154050000Y-89127071D02*
X154050000Y-88730000D01*
X153290000Y-89127071D02*
X153290000Y-88730000D01*
X154050000Y-80070000D02*
X154050000Y-86070000D01*
X153290000Y-80070000D02*
X154050000Y-80070000D01*
X153290000Y-86070000D02*
X153290000Y-80070000D01*
X152400000Y-88730000D02*
X152400000Y-86070000D01*
X151510000Y-89127071D02*
X151510000Y-88730000D01*
X150750000Y-89127071D02*
X150750000Y-88730000D01*
X151510000Y-80070000D02*
X151510000Y-86070000D01*
X150750000Y-80070000D02*
X151510000Y-80070000D01*
X150750000Y-86070000D02*
X150750000Y-80070000D01*
X149860000Y-88730000D02*
X149860000Y-86070000D01*
X148970000Y-89127071D02*
X148970000Y-88730000D01*
X148210000Y-89127071D02*
X148210000Y-88730000D01*
X148970000Y-80070000D02*
X148970000Y-86070000D01*
X148210000Y-80070000D02*
X148970000Y-80070000D01*
X148210000Y-86070000D02*
X148210000Y-80070000D01*
X147320000Y-88730000D02*
X147320000Y-86070000D01*
X146430000Y-89060000D02*
X146430000Y-88730000D01*
X145670000Y-89060000D02*
X145670000Y-88730000D01*
X146330000Y-86070000D02*
X146330000Y-80070000D01*
X146210000Y-86070000D02*
X146210000Y-80070000D01*
X146090000Y-86070000D02*
X146090000Y-80070000D01*
X145970000Y-86070000D02*
X145970000Y-80070000D01*
X145850000Y-86070000D02*
X145850000Y-80070000D01*
X145730000Y-86070000D02*
X145730000Y-80070000D01*
X146430000Y-80070000D02*
X146430000Y-86070000D01*
X145670000Y-80070000D02*
X146430000Y-80070000D01*
X145670000Y-86070000D02*
X145670000Y-80070000D01*
X144720000Y-86070000D02*
X144720000Y-88730000D01*
X160080000Y-86070000D02*
X144720000Y-86070000D01*
X160080000Y-88730000D02*
X160080000Y-86070000D01*
X144720000Y-88730000D02*
X160080000Y-88730000D01*
X156270000Y-92650000D02*
X156270000Y-93980000D01*
X154940000Y-92650000D02*
X156270000Y-92650000D01*
X156270000Y-95250000D02*
X156270000Y-97850000D01*
X153670000Y-95250000D02*
X156270000Y-95250000D01*
X153670000Y-92650000D02*
X153670000Y-95250000D01*
X156270000Y-97850000D02*
X148530000Y-97850000D01*
X153670000Y-92650000D02*
X148530000Y-92650000D01*
X148530000Y-92650000D02*
X148530000Y-97850000D01*
X154628675Y-105172574D02*
X154858880Y-104942369D01*
X153907426Y-104451325D02*
X154137631Y-104221120D01*
X157469721Y-101475000D02*
X157795279Y-101475000D01*
X157469721Y-100455000D02*
X157795279Y-100455000D01*
D11*
X157083095Y-105497380D02*
X157083095Y-106306904D01*
X157130714Y-106402142D01*
X157178333Y-106449761D01*
X157273571Y-106497380D01*
X157464047Y-106497380D01*
X157559285Y-106449761D01*
X157606904Y-106402142D01*
X157654523Y-106306904D01*
X157654523Y-105497380D01*
X158654523Y-106497380D02*
X158083095Y-106497380D01*
X158368809Y-106497380D02*
X158368809Y-105497380D01*
X158273571Y-105640238D01*
X158178333Y-105735476D01*
X158083095Y-105783095D01*
X149915025Y-103007478D02*
X149342605Y-103579898D01*
X149308933Y-103680913D01*
X149308933Y-103748257D01*
X149342605Y-103849272D01*
X149477292Y-103983959D01*
X149578307Y-104017631D01*
X149645651Y-104017631D01*
X149746666Y-103983959D01*
X150319086Y-103411539D01*
X150554788Y-103781929D02*
X150622131Y-103781929D01*
X150723147Y-103815600D01*
X150891505Y-103983959D01*
X150925177Y-104084974D01*
X150925177Y-104152318D01*
X150891505Y-104253333D01*
X150824162Y-104320677D01*
X150689475Y-104388020D01*
X149881353Y-104388020D01*
X150319086Y-104825753D01*
X154773333Y-92527380D02*
X154440000Y-92051190D01*
X154201904Y-92527380D02*
X154201904Y-91527380D01*
X154582857Y-91527380D01*
X154678095Y-91575000D01*
X154725714Y-91622619D01*
X154773333Y-91717857D01*
X154773333Y-91860714D01*
X154725714Y-91955952D01*
X154678095Y-92003571D01*
X154582857Y-92051190D01*
X154201904Y-92051190D01*
X155725714Y-92527380D02*
X155154285Y-92527380D01*
X155440000Y-92527380D02*
X155440000Y-91527380D01*
X155344761Y-91670238D01*
X155249523Y-91765476D01*
X155154285Y-91813095D01*
X146986666Y-97452380D02*
X146986666Y-98166666D01*
X146939047Y-98309523D01*
X146843809Y-98404761D01*
X146700952Y-98452380D01*
X146605714Y-98452380D01*
X147939047Y-97452380D02*
X147462857Y-97452380D01*
X147415238Y-97928571D01*
X147462857Y-97880952D01*
X147558095Y-97833333D01*
X147796190Y-97833333D01*
X147891428Y-97880952D01*
X147939047Y-97928571D01*
X147986666Y-98023809D01*
X147986666Y-98261904D01*
X147939047Y-98357142D01*
X147891428Y-98404761D01*
X147796190Y-98452380D01*
X147558095Y-98452380D01*
X147462857Y-98404761D01*
X147415238Y-98357142D01*
X152066666Y-109942380D02*
X152066666Y-110656666D01*
X152019047Y-110799523D01*
X151923809Y-110894761D01*
X151780952Y-110942380D01*
X151685714Y-110942380D01*
X152971428Y-110275714D02*
X152971428Y-110942380D01*
X152733333Y-109894761D02*
X152495238Y-110609047D01*
X153114285Y-110609047D01*
X152066666Y-87082380D02*
X152066666Y-87796666D01*
X152019047Y-87939523D01*
X151923809Y-88034761D01*
X151780952Y-88082380D01*
X151685714Y-88082380D01*
X152447619Y-87082380D02*
X153066666Y-87082380D01*
X152733333Y-87463333D01*
X152876190Y-87463333D01*
X152971428Y-87510952D01*
X153019047Y-87558571D01*
X153066666Y-87653809D01*
X153066666Y-87891904D01*
X153019047Y-87987142D01*
X152971428Y-88034761D01*
X152876190Y-88082380D01*
X152590476Y-88082380D01*
X152495238Y-88034761D01*
X152447619Y-87987142D01*
X156722380Y-95583333D02*
X157436666Y-95583333D01*
X157579523Y-95630952D01*
X157674761Y-95726190D01*
X157722380Y-95869047D01*
X157722380Y-95964285D01*
X156817619Y-95154761D02*
X156770000Y-95107142D01*
X156722380Y-95011904D01*
X156722380Y-94773809D01*
X156770000Y-94678571D01*
X156817619Y-94630952D01*
X156912857Y-94583333D01*
X157008095Y-94583333D01*
X157150952Y-94630952D01*
X157722380Y-95202380D01*
X157722380Y-94583333D01*
X155865993Y-106259083D02*
X155865993Y-106326426D01*
X155798649Y-106461113D01*
X155731306Y-106528457D01*
X155596618Y-106595800D01*
X155461931Y-106595800D01*
X155360916Y-106562129D01*
X155192557Y-106461113D01*
X155091542Y-106360098D01*
X154990527Y-106191739D01*
X154956855Y-106090724D01*
X154956855Y-105956037D01*
X155024199Y-105821350D01*
X155091542Y-105754006D01*
X155226229Y-105686663D01*
X155293573Y-105686663D01*
X155562947Y-105417289D02*
X155562947Y-105349945D01*
X155596618Y-105248930D01*
X155764977Y-105080571D01*
X155865993Y-105046900D01*
X155933336Y-105046900D01*
X156034351Y-105080571D01*
X156101695Y-105147915D01*
X156169038Y-105282602D01*
X156169038Y-106090724D01*
X156606771Y-105652991D01*
X157465833Y-99892142D02*
X157418214Y-99939761D01*
X157275357Y-99987380D01*
X157180119Y-99987380D01*
X157037261Y-99939761D01*
X156942023Y-99844523D01*
X156894404Y-99749285D01*
X156846785Y-99558809D01*
X156846785Y-99415952D01*
X156894404Y-99225476D01*
X156942023Y-99130238D01*
X157037261Y-99035000D01*
X157180119Y-98987380D01*
X157275357Y-98987380D01*
X157418214Y-99035000D01*
X157465833Y-99082619D01*
X158418214Y-99987380D02*
X157846785Y-99987380D01*
X158132500Y-99987380D02*
X158132500Y-98987380D01*
X158037261Y-99130238D01*
X157942023Y-99225476D01*
X157846785Y-99273095D01*
M02*
