%TF.GenerationSoftware,KiCad,Pcbnew,(5.1.5)-3*%
%TF.CreationDate,2020-03-25T18:08:17+08:00*%
%TF.ProjectId,RH2288_PWM,52483232-3838-45f5-9057-4d2e6b696361,rev?*%
%TF.SameCoordinates,Original*%
%TF.FileFunction,Copper,L2,Bot*%
%TF.FilePolarity,Positive*%
%FSLAX46Y46*%
G04 Gerber Fmt 4.6, Leading zero omitted, Abs format (unit mm)*
G04 Created by KiCad (PCBNEW (5.1.5)-3) date 2020-03-25 18:08:18*
%MOMM*%
%LPD*%
G04 APERTURE LIST*
%ADD10O,1.700000X1.700000*%
%ADD11R,1.700000X1.700000*%
%ADD12C,0.600000*%
%ADD13C,0.127000*%
%ADD14C,0.250000*%
%ADD15C,0.600000*%
%ADD16C,0.254000*%
G04 APERTURE END LIST*
D10*
X147320000Y-102870000D03*
D11*
X147320000Y-100330000D03*
D10*
X158750000Y-107950000D03*
X156210000Y-107950000D03*
X153670000Y-107950000D03*
X151130000Y-107950000D03*
X148590000Y-107950000D03*
D11*
X146050000Y-107950000D03*
D10*
X158750000Y-90170000D03*
X156210000Y-90170000D03*
X153670000Y-90170000D03*
X151130000Y-90170000D03*
X148590000Y-90170000D03*
D11*
X146050000Y-90170000D03*
D10*
X149860000Y-96520000D03*
X149860000Y-93980000D03*
X152400000Y-96520000D03*
X152400000Y-93980000D03*
X154940000Y-96520000D03*
D11*
X154940000Y-93980000D03*
D12*
X152400000Y-105253694D03*
X153340000Y-92075000D03*
X156845000Y-98425000D03*
X150876000Y-98806000D03*
X155575000Y-102870000D03*
D13*
X154940000Y-96520000D02*
X153670000Y-95250000D01*
X153670000Y-92405000D02*
X153340000Y-92075000D01*
X153670000Y-95250000D02*
X153670000Y-92405000D01*
D14*
X156845000Y-98425000D02*
X154940000Y-96520000D01*
X150876000Y-98806000D02*
X150876000Y-103729694D01*
X150876000Y-103729694D02*
X152400000Y-105253694D01*
X150876000Y-98806000D02*
X152654000Y-98806000D01*
X152654000Y-98806000D02*
X154940000Y-96520000D01*
D15*
X149225000Y-106045000D02*
X149225000Y-98425000D01*
X151130000Y-107950000D02*
X149225000Y-106045000D01*
X149225000Y-98425000D02*
X147955000Y-97155000D01*
X147955000Y-97155000D02*
X147955000Y-93345000D01*
X151130000Y-90170000D02*
X147955000Y-93345000D01*
D14*
X155575000Y-106045000D02*
X155575000Y-102870000D01*
X153670000Y-107950000D02*
X155575000Y-106045000D01*
D16*
G36*
X148006903Y-89079102D02*
G01*
X147805283Y-89213820D01*
X147633820Y-89385283D01*
X147499102Y-89586903D01*
X147406307Y-89810931D01*
X147359000Y-90048757D01*
X147359000Y-90291243D01*
X147406307Y-90529069D01*
X147499102Y-90753097D01*
X147633820Y-90954717D01*
X147805283Y-91126180D01*
X148006903Y-91260898D01*
X148230931Y-91353693D01*
X148468757Y-91401000D01*
X148711243Y-91401000D01*
X148949069Y-91353693D01*
X149007383Y-91329539D01*
X147497122Y-92839800D01*
X147471131Y-92861130D01*
X147386031Y-92964826D01*
X147376054Y-92983492D01*
X147322795Y-93083132D01*
X147283854Y-93211502D01*
X147270705Y-93345000D01*
X147274001Y-93378463D01*
X147274000Y-97121547D01*
X147270705Y-97155000D01*
X147274000Y-97188452D01*
X147283854Y-97288498D01*
X147322794Y-97416867D01*
X147386030Y-97535173D01*
X147471130Y-97638869D01*
X147497122Y-97660200D01*
X148544001Y-98707081D01*
X148544001Y-99400412D01*
X148523701Y-99333492D01*
X148488322Y-99267304D01*
X148440711Y-99209289D01*
X148382696Y-99161678D01*
X148316508Y-99126299D01*
X148244689Y-99104513D01*
X148170000Y-99097157D01*
X146470000Y-99097157D01*
X146395311Y-99104513D01*
X146323492Y-99126299D01*
X146257304Y-99161678D01*
X146199289Y-99209289D01*
X146151678Y-99267304D01*
X146116299Y-99333492D01*
X146094513Y-99405311D01*
X146087157Y-99480000D01*
X146087157Y-101180000D01*
X146094513Y-101254689D01*
X146116299Y-101326508D01*
X146151678Y-101392696D01*
X146199289Y-101450711D01*
X146257304Y-101498322D01*
X146323492Y-101533701D01*
X146395311Y-101555487D01*
X146470000Y-101562843D01*
X148170000Y-101562843D01*
X148244689Y-101555487D01*
X148316508Y-101533701D01*
X148382696Y-101498322D01*
X148440711Y-101450711D01*
X148488322Y-101392696D01*
X148523701Y-101326508D01*
X148544001Y-101259589D01*
X148544000Y-102713568D01*
X148503693Y-102510931D01*
X148410898Y-102286903D01*
X148276180Y-102085283D01*
X148104717Y-101913820D01*
X147903097Y-101779102D01*
X147679069Y-101686307D01*
X147441243Y-101639000D01*
X147198757Y-101639000D01*
X146960931Y-101686307D01*
X146736903Y-101779102D01*
X146535283Y-101913820D01*
X146363820Y-102085283D01*
X146229102Y-102286903D01*
X146136307Y-102510931D01*
X146089000Y-102748757D01*
X146089000Y-102991243D01*
X146136307Y-103229069D01*
X146229102Y-103453097D01*
X146363820Y-103654717D01*
X146535283Y-103826180D01*
X146736903Y-103960898D01*
X146960931Y-104053693D01*
X147198757Y-104101000D01*
X147441243Y-104101000D01*
X147679069Y-104053693D01*
X147903097Y-103960898D01*
X148104717Y-103826180D01*
X148276180Y-103654717D01*
X148410898Y-103453097D01*
X148503693Y-103229069D01*
X148544000Y-103026432D01*
X148544000Y-106011547D01*
X148540705Y-106045000D01*
X148544000Y-106078452D01*
X148553854Y-106178498D01*
X148592794Y-106306867D01*
X148656030Y-106425173D01*
X148741130Y-106528869D01*
X148767122Y-106550200D01*
X149007383Y-106790461D01*
X148949069Y-106766307D01*
X148711243Y-106719000D01*
X148468757Y-106719000D01*
X148230931Y-106766307D01*
X148006903Y-106859102D01*
X147805283Y-106993820D01*
X147633820Y-107165283D01*
X147499102Y-107366903D01*
X147406307Y-107590931D01*
X147359000Y-107828757D01*
X147359000Y-108071243D01*
X147406307Y-108309069D01*
X147499102Y-108533097D01*
X147633820Y-108734717D01*
X147805283Y-108906180D01*
X148006903Y-109040898D01*
X148132689Y-109093000D01*
X145227169Y-109093000D01*
X145186000Y-109051831D01*
X145186000Y-89027000D01*
X148132689Y-89027000D01*
X148006903Y-89079102D01*
G37*
X148006903Y-89079102D02*
X147805283Y-89213820D01*
X147633820Y-89385283D01*
X147499102Y-89586903D01*
X147406307Y-89810931D01*
X147359000Y-90048757D01*
X147359000Y-90291243D01*
X147406307Y-90529069D01*
X147499102Y-90753097D01*
X147633820Y-90954717D01*
X147805283Y-91126180D01*
X148006903Y-91260898D01*
X148230931Y-91353693D01*
X148468757Y-91401000D01*
X148711243Y-91401000D01*
X148949069Y-91353693D01*
X149007383Y-91329539D01*
X147497122Y-92839800D01*
X147471131Y-92861130D01*
X147386031Y-92964826D01*
X147376054Y-92983492D01*
X147322795Y-93083132D01*
X147283854Y-93211502D01*
X147270705Y-93345000D01*
X147274001Y-93378463D01*
X147274000Y-97121547D01*
X147270705Y-97155000D01*
X147274000Y-97188452D01*
X147283854Y-97288498D01*
X147322794Y-97416867D01*
X147386030Y-97535173D01*
X147471130Y-97638869D01*
X147497122Y-97660200D01*
X148544001Y-98707081D01*
X148544001Y-99400412D01*
X148523701Y-99333492D01*
X148488322Y-99267304D01*
X148440711Y-99209289D01*
X148382696Y-99161678D01*
X148316508Y-99126299D01*
X148244689Y-99104513D01*
X148170000Y-99097157D01*
X146470000Y-99097157D01*
X146395311Y-99104513D01*
X146323492Y-99126299D01*
X146257304Y-99161678D01*
X146199289Y-99209289D01*
X146151678Y-99267304D01*
X146116299Y-99333492D01*
X146094513Y-99405311D01*
X146087157Y-99480000D01*
X146087157Y-101180000D01*
X146094513Y-101254689D01*
X146116299Y-101326508D01*
X146151678Y-101392696D01*
X146199289Y-101450711D01*
X146257304Y-101498322D01*
X146323492Y-101533701D01*
X146395311Y-101555487D01*
X146470000Y-101562843D01*
X148170000Y-101562843D01*
X148244689Y-101555487D01*
X148316508Y-101533701D01*
X148382696Y-101498322D01*
X148440711Y-101450711D01*
X148488322Y-101392696D01*
X148523701Y-101326508D01*
X148544001Y-101259589D01*
X148544000Y-102713568D01*
X148503693Y-102510931D01*
X148410898Y-102286903D01*
X148276180Y-102085283D01*
X148104717Y-101913820D01*
X147903097Y-101779102D01*
X147679069Y-101686307D01*
X147441243Y-101639000D01*
X147198757Y-101639000D01*
X146960931Y-101686307D01*
X146736903Y-101779102D01*
X146535283Y-101913820D01*
X146363820Y-102085283D01*
X146229102Y-102286903D01*
X146136307Y-102510931D01*
X146089000Y-102748757D01*
X146089000Y-102991243D01*
X146136307Y-103229069D01*
X146229102Y-103453097D01*
X146363820Y-103654717D01*
X146535283Y-103826180D01*
X146736903Y-103960898D01*
X146960931Y-104053693D01*
X147198757Y-104101000D01*
X147441243Y-104101000D01*
X147679069Y-104053693D01*
X147903097Y-103960898D01*
X148104717Y-103826180D01*
X148276180Y-103654717D01*
X148410898Y-103453097D01*
X148503693Y-103229069D01*
X148544000Y-103026432D01*
X148544000Y-106011547D01*
X148540705Y-106045000D01*
X148544000Y-106078452D01*
X148553854Y-106178498D01*
X148592794Y-106306867D01*
X148656030Y-106425173D01*
X148741130Y-106528869D01*
X148767122Y-106550200D01*
X149007383Y-106790461D01*
X148949069Y-106766307D01*
X148711243Y-106719000D01*
X148468757Y-106719000D01*
X148230931Y-106766307D01*
X148006903Y-106859102D01*
X147805283Y-106993820D01*
X147633820Y-107165283D01*
X147499102Y-107366903D01*
X147406307Y-107590931D01*
X147359000Y-107828757D01*
X147359000Y-108071243D01*
X147406307Y-108309069D01*
X147499102Y-108533097D01*
X147633820Y-108734717D01*
X147805283Y-108906180D01*
X148006903Y-109040898D01*
X148132689Y-109093000D01*
X145227169Y-109093000D01*
X145186000Y-109051831D01*
X145186000Y-89027000D01*
X148132689Y-89027000D01*
X148006903Y-89079102D01*
G36*
X153086903Y-89079102D02*
G01*
X152885283Y-89213820D01*
X152713820Y-89385283D01*
X152579102Y-89586903D01*
X152486307Y-89810931D01*
X152439000Y-90048757D01*
X152439000Y-90291243D01*
X152486307Y-90529069D01*
X152579102Y-90753097D01*
X152713820Y-90954717D01*
X152885283Y-91126180D01*
X153086903Y-91260898D01*
X153310931Y-91353693D01*
X153548757Y-91401000D01*
X153791243Y-91401000D01*
X154029069Y-91353693D01*
X154253097Y-91260898D01*
X154454717Y-91126180D01*
X154626180Y-90954717D01*
X154760898Y-90753097D01*
X154853693Y-90529069D01*
X154901000Y-90291243D01*
X154901000Y-90048757D01*
X154853693Y-89810931D01*
X154760898Y-89586903D01*
X154626180Y-89385283D01*
X154454717Y-89213820D01*
X154253097Y-89079102D01*
X154127311Y-89027000D01*
X155752689Y-89027000D01*
X155626903Y-89079102D01*
X155425283Y-89213820D01*
X155253820Y-89385283D01*
X155119102Y-89586903D01*
X155026307Y-89810931D01*
X154979000Y-90048757D01*
X154979000Y-90291243D01*
X155026307Y-90529069D01*
X155119102Y-90753097D01*
X155253820Y-90954717D01*
X155425283Y-91126180D01*
X155626903Y-91260898D01*
X155850931Y-91353693D01*
X156088757Y-91401000D01*
X156331243Y-91401000D01*
X156569069Y-91353693D01*
X156793097Y-91260898D01*
X156994717Y-91126180D01*
X157166180Y-90954717D01*
X157300898Y-90753097D01*
X157393693Y-90529069D01*
X157441000Y-90291243D01*
X157441000Y-90048757D01*
X157393693Y-89810931D01*
X157300898Y-89586903D01*
X157166180Y-89385283D01*
X156994717Y-89213820D01*
X156793097Y-89079102D01*
X156667311Y-89027000D01*
X159614000Y-89027000D01*
X159614001Y-109051828D01*
X159572829Y-109093000D01*
X156667311Y-109093000D01*
X156793097Y-109040898D01*
X156994717Y-108906180D01*
X157166180Y-108734717D01*
X157300898Y-108533097D01*
X157393693Y-108309069D01*
X157441000Y-108071243D01*
X157441000Y-107828757D01*
X157393693Y-107590931D01*
X157300898Y-107366903D01*
X157166180Y-107165283D01*
X156994717Y-106993820D01*
X156793097Y-106859102D01*
X156569069Y-106766307D01*
X156331243Y-106719000D01*
X156088757Y-106719000D01*
X155850931Y-106766307D01*
X155626903Y-106859102D01*
X155425283Y-106993820D01*
X155253820Y-107165283D01*
X155119102Y-107366903D01*
X155026307Y-107590931D01*
X154979000Y-107828757D01*
X154979000Y-108071243D01*
X155026307Y-108309069D01*
X155119102Y-108533097D01*
X155253820Y-108734717D01*
X155425283Y-108906180D01*
X155626903Y-109040898D01*
X155752689Y-109093000D01*
X154127311Y-109093000D01*
X154253097Y-109040898D01*
X154454717Y-108906180D01*
X154626180Y-108734717D01*
X154760898Y-108533097D01*
X154853693Y-108309069D01*
X154901000Y-108071243D01*
X154901000Y-107828757D01*
X154853693Y-107590931D01*
X154821758Y-107513833D01*
X155915220Y-106420372D01*
X155934527Y-106404527D01*
X155997759Y-106327479D01*
X156044745Y-106239575D01*
X156073678Y-106144193D01*
X156081000Y-106069854D01*
X156081000Y-106069853D01*
X156083448Y-106045000D01*
X156081000Y-106020146D01*
X156081000Y-103327079D01*
X156103967Y-103304112D01*
X156178494Y-103192574D01*
X156229829Y-103068640D01*
X156256000Y-102937073D01*
X156256000Y-102802927D01*
X156229829Y-102671360D01*
X156178494Y-102547426D01*
X156103967Y-102435888D01*
X156009112Y-102341033D01*
X155897574Y-102266506D01*
X155773640Y-102215171D01*
X155642073Y-102189000D01*
X155507927Y-102189000D01*
X155376360Y-102215171D01*
X155252426Y-102266506D01*
X155140888Y-102341033D01*
X155046033Y-102435888D01*
X154971506Y-102547426D01*
X154920171Y-102671360D01*
X154894000Y-102802927D01*
X154894000Y-102937073D01*
X154920171Y-103068640D01*
X154971506Y-103192574D01*
X155046033Y-103304112D01*
X155069001Y-103327080D01*
X155069000Y-105835408D01*
X154106167Y-106798242D01*
X154029069Y-106766307D01*
X153791243Y-106719000D01*
X153548757Y-106719000D01*
X153310931Y-106766307D01*
X153086903Y-106859102D01*
X152885283Y-106993820D01*
X152713820Y-107165283D01*
X152579102Y-107366903D01*
X152486307Y-107590931D01*
X152439000Y-107828757D01*
X152439000Y-108071243D01*
X152486307Y-108309069D01*
X152579102Y-108533097D01*
X152713820Y-108734717D01*
X152885283Y-108906180D01*
X153086903Y-109040898D01*
X153212689Y-109093000D01*
X151587311Y-109093000D01*
X151713097Y-109040898D01*
X151914717Y-108906180D01*
X152086180Y-108734717D01*
X152220898Y-108533097D01*
X152313693Y-108309069D01*
X152361000Y-108071243D01*
X152361000Y-107828757D01*
X152313693Y-107590931D01*
X152220898Y-107366903D01*
X152086180Y-107165283D01*
X151914717Y-106993820D01*
X151713097Y-106859102D01*
X151489069Y-106766307D01*
X151251243Y-106719000D01*
X151008757Y-106719000D01*
X150886414Y-106743336D01*
X149906000Y-105762922D01*
X149906000Y-98738927D01*
X150195000Y-98738927D01*
X150195000Y-98873073D01*
X150221171Y-99004640D01*
X150272506Y-99128574D01*
X150347033Y-99240112D01*
X150370000Y-99263079D01*
X150370001Y-103704838D01*
X150367553Y-103729694D01*
X150377322Y-103828886D01*
X150406255Y-103924268D01*
X150406256Y-103924269D01*
X150453242Y-104012173D01*
X150516474Y-104089221D01*
X150535780Y-104105066D01*
X151719000Y-105288286D01*
X151719000Y-105320767D01*
X151745171Y-105452334D01*
X151796506Y-105576268D01*
X151871033Y-105687806D01*
X151965888Y-105782661D01*
X152077426Y-105857188D01*
X152201360Y-105908523D01*
X152332927Y-105934694D01*
X152467073Y-105934694D01*
X152598640Y-105908523D01*
X152722574Y-105857188D01*
X152834112Y-105782661D01*
X152928967Y-105687806D01*
X153003494Y-105576268D01*
X153054829Y-105452334D01*
X153081000Y-105320767D01*
X153081000Y-105186621D01*
X153054829Y-105055054D01*
X153003494Y-104931120D01*
X152928967Y-104819582D01*
X152834112Y-104724727D01*
X152722574Y-104650200D01*
X152598640Y-104598865D01*
X152467073Y-104572694D01*
X152434592Y-104572694D01*
X151382000Y-103520103D01*
X151382000Y-99312000D01*
X152629154Y-99312000D01*
X152654000Y-99314447D01*
X152678846Y-99312000D01*
X152678854Y-99312000D01*
X152753193Y-99304678D01*
X152848575Y-99275745D01*
X152936479Y-99228759D01*
X153013527Y-99165527D01*
X153029376Y-99146215D01*
X154503833Y-97671758D01*
X154580931Y-97703693D01*
X154818757Y-97751000D01*
X155061243Y-97751000D01*
X155299069Y-97703693D01*
X155376167Y-97671758D01*
X156164000Y-98459592D01*
X156164000Y-98492073D01*
X156190171Y-98623640D01*
X156241506Y-98747574D01*
X156316033Y-98859112D01*
X156410888Y-98953967D01*
X156522426Y-99028494D01*
X156646360Y-99079829D01*
X156777927Y-99106000D01*
X156912073Y-99106000D01*
X157043640Y-99079829D01*
X157167574Y-99028494D01*
X157279112Y-98953967D01*
X157373967Y-98859112D01*
X157448494Y-98747574D01*
X157499829Y-98623640D01*
X157526000Y-98492073D01*
X157526000Y-98357927D01*
X157499829Y-98226360D01*
X157448494Y-98102426D01*
X157373967Y-97990888D01*
X157279112Y-97896033D01*
X157167574Y-97821506D01*
X157043640Y-97770171D01*
X156912073Y-97744000D01*
X156879592Y-97744000D01*
X156091758Y-96956167D01*
X156123693Y-96879069D01*
X156171000Y-96641243D01*
X156171000Y-96398757D01*
X156123693Y-96160931D01*
X156030898Y-95936903D01*
X155896180Y-95735283D01*
X155724717Y-95563820D01*
X155523097Y-95429102D01*
X155299069Y-95336307D01*
X155061243Y-95289000D01*
X154818757Y-95289000D01*
X154580931Y-95336307D01*
X154442333Y-95393716D01*
X154261460Y-95212843D01*
X155790000Y-95212843D01*
X155864689Y-95205487D01*
X155936508Y-95183701D01*
X156002696Y-95148322D01*
X156060711Y-95100711D01*
X156108322Y-95042696D01*
X156143701Y-94976508D01*
X156165487Y-94904689D01*
X156172843Y-94830000D01*
X156172843Y-93130000D01*
X156165487Y-93055311D01*
X156143701Y-92983492D01*
X156108322Y-92917304D01*
X156060711Y-92859289D01*
X156002696Y-92811678D01*
X155936508Y-92776299D01*
X155864689Y-92754513D01*
X155790000Y-92747157D01*
X154114500Y-92747157D01*
X154114500Y-92426819D01*
X154116649Y-92404999D01*
X154114500Y-92383179D01*
X154114500Y-92383170D01*
X154108068Y-92317863D01*
X154082651Y-92234074D01*
X154041376Y-92156855D01*
X154041375Y-92156853D01*
X154021000Y-92132026D01*
X154021000Y-92007927D01*
X153994829Y-91876360D01*
X153943494Y-91752426D01*
X153868967Y-91640888D01*
X153774112Y-91546033D01*
X153662574Y-91471506D01*
X153538640Y-91420171D01*
X153407073Y-91394000D01*
X153272927Y-91394000D01*
X153141360Y-91420171D01*
X153017426Y-91471506D01*
X152905888Y-91546033D01*
X152811033Y-91640888D01*
X152736506Y-91752426D01*
X152685171Y-91876360D01*
X152659000Y-92007927D01*
X152659000Y-92142073D01*
X152685171Y-92273640D01*
X152736506Y-92397574D01*
X152811033Y-92509112D01*
X152905888Y-92603967D01*
X153017426Y-92678494D01*
X153141360Y-92729829D01*
X153225501Y-92746566D01*
X153225501Y-93064604D01*
X153184717Y-93023820D01*
X152983097Y-92889102D01*
X152759069Y-92796307D01*
X152521243Y-92749000D01*
X152278757Y-92749000D01*
X152040931Y-92796307D01*
X151816903Y-92889102D01*
X151615283Y-93023820D01*
X151443820Y-93195283D01*
X151309102Y-93396903D01*
X151216307Y-93620931D01*
X151169000Y-93858757D01*
X151169000Y-94101243D01*
X151216307Y-94339069D01*
X151309102Y-94563097D01*
X151443820Y-94764717D01*
X151615283Y-94936180D01*
X151816903Y-95070898D01*
X152040931Y-95163693D01*
X152278757Y-95211000D01*
X152521243Y-95211000D01*
X152759069Y-95163693D01*
X152983097Y-95070898D01*
X153184717Y-94936180D01*
X153225500Y-94895397D01*
X153225500Y-95228180D01*
X153223351Y-95250000D01*
X153225500Y-95271820D01*
X153225500Y-95271829D01*
X153231932Y-95337136D01*
X153257349Y-95420925D01*
X153298624Y-95498145D01*
X153336185Y-95543913D01*
X153354171Y-95565829D01*
X153371130Y-95579747D01*
X153813716Y-96022333D01*
X153756307Y-96160931D01*
X153709000Y-96398757D01*
X153709000Y-96641243D01*
X153756307Y-96879069D01*
X153788242Y-96956167D01*
X152444409Y-98300000D01*
X151333079Y-98300000D01*
X151310112Y-98277033D01*
X151198574Y-98202506D01*
X151074640Y-98151171D01*
X150943073Y-98125000D01*
X150808927Y-98125000D01*
X150677360Y-98151171D01*
X150553426Y-98202506D01*
X150441888Y-98277033D01*
X150347033Y-98371888D01*
X150272506Y-98483426D01*
X150221171Y-98607360D01*
X150195000Y-98738927D01*
X149906000Y-98738927D01*
X149906000Y-98458452D01*
X149909295Y-98424999D01*
X149896146Y-98291500D01*
X149876386Y-98226360D01*
X149857206Y-98163132D01*
X149793970Y-98044826D01*
X149708870Y-97941130D01*
X149682884Y-97919804D01*
X148636000Y-96872922D01*
X148636000Y-96398757D01*
X151169000Y-96398757D01*
X151169000Y-96641243D01*
X151216307Y-96879069D01*
X151309102Y-97103097D01*
X151443820Y-97304717D01*
X151615283Y-97476180D01*
X151816903Y-97610898D01*
X152040931Y-97703693D01*
X152278757Y-97751000D01*
X152521243Y-97751000D01*
X152759069Y-97703693D01*
X152983097Y-97610898D01*
X153184717Y-97476180D01*
X153356180Y-97304717D01*
X153490898Y-97103097D01*
X153583693Y-96879069D01*
X153631000Y-96641243D01*
X153631000Y-96398757D01*
X153583693Y-96160931D01*
X153490898Y-95936903D01*
X153356180Y-95735283D01*
X153184717Y-95563820D01*
X152983097Y-95429102D01*
X152759069Y-95336307D01*
X152521243Y-95289000D01*
X152278757Y-95289000D01*
X152040931Y-95336307D01*
X151816903Y-95429102D01*
X151615283Y-95563820D01*
X151443820Y-95735283D01*
X151309102Y-95936903D01*
X151216307Y-96160931D01*
X151169000Y-96398757D01*
X148636000Y-96398757D01*
X148636000Y-94136434D01*
X148676307Y-94339069D01*
X148769102Y-94563097D01*
X148903820Y-94764717D01*
X149075283Y-94936180D01*
X149276903Y-95070898D01*
X149500931Y-95163693D01*
X149738757Y-95211000D01*
X149981243Y-95211000D01*
X150219069Y-95163693D01*
X150443097Y-95070898D01*
X150644717Y-94936180D01*
X150816180Y-94764717D01*
X150950898Y-94563097D01*
X151043693Y-94339069D01*
X151091000Y-94101243D01*
X151091000Y-93858757D01*
X151043693Y-93620931D01*
X150950898Y-93396903D01*
X150816180Y-93195283D01*
X150644717Y-93023820D01*
X150443097Y-92889102D01*
X150219069Y-92796307D01*
X149981243Y-92749000D01*
X149738757Y-92749000D01*
X149500931Y-92796307D01*
X149442617Y-92820461D01*
X150886414Y-91376664D01*
X151008757Y-91401000D01*
X151251243Y-91401000D01*
X151489069Y-91353693D01*
X151713097Y-91260898D01*
X151914717Y-91126180D01*
X152086180Y-90954717D01*
X152220898Y-90753097D01*
X152313693Y-90529069D01*
X152361000Y-90291243D01*
X152361000Y-90048757D01*
X152313693Y-89810931D01*
X152220898Y-89586903D01*
X152086180Y-89385283D01*
X151914717Y-89213820D01*
X151713097Y-89079102D01*
X151587311Y-89027000D01*
X153212689Y-89027000D01*
X153086903Y-89079102D01*
G37*
X153086903Y-89079102D02*
X152885283Y-89213820D01*
X152713820Y-89385283D01*
X152579102Y-89586903D01*
X152486307Y-89810931D01*
X152439000Y-90048757D01*
X152439000Y-90291243D01*
X152486307Y-90529069D01*
X152579102Y-90753097D01*
X152713820Y-90954717D01*
X152885283Y-91126180D01*
X153086903Y-91260898D01*
X153310931Y-91353693D01*
X153548757Y-91401000D01*
X153791243Y-91401000D01*
X154029069Y-91353693D01*
X154253097Y-91260898D01*
X154454717Y-91126180D01*
X154626180Y-90954717D01*
X154760898Y-90753097D01*
X154853693Y-90529069D01*
X154901000Y-90291243D01*
X154901000Y-90048757D01*
X154853693Y-89810931D01*
X154760898Y-89586903D01*
X154626180Y-89385283D01*
X154454717Y-89213820D01*
X154253097Y-89079102D01*
X154127311Y-89027000D01*
X155752689Y-89027000D01*
X155626903Y-89079102D01*
X155425283Y-89213820D01*
X155253820Y-89385283D01*
X155119102Y-89586903D01*
X155026307Y-89810931D01*
X154979000Y-90048757D01*
X154979000Y-90291243D01*
X155026307Y-90529069D01*
X155119102Y-90753097D01*
X155253820Y-90954717D01*
X155425283Y-91126180D01*
X155626903Y-91260898D01*
X155850931Y-91353693D01*
X156088757Y-91401000D01*
X156331243Y-91401000D01*
X156569069Y-91353693D01*
X156793097Y-91260898D01*
X156994717Y-91126180D01*
X157166180Y-90954717D01*
X157300898Y-90753097D01*
X157393693Y-90529069D01*
X157441000Y-90291243D01*
X157441000Y-90048757D01*
X157393693Y-89810931D01*
X157300898Y-89586903D01*
X157166180Y-89385283D01*
X156994717Y-89213820D01*
X156793097Y-89079102D01*
X156667311Y-89027000D01*
X159614000Y-89027000D01*
X159614001Y-109051828D01*
X159572829Y-109093000D01*
X156667311Y-109093000D01*
X156793097Y-109040898D01*
X156994717Y-108906180D01*
X157166180Y-108734717D01*
X157300898Y-108533097D01*
X157393693Y-108309069D01*
X157441000Y-108071243D01*
X157441000Y-107828757D01*
X157393693Y-107590931D01*
X157300898Y-107366903D01*
X157166180Y-107165283D01*
X156994717Y-106993820D01*
X156793097Y-106859102D01*
X156569069Y-106766307D01*
X156331243Y-106719000D01*
X156088757Y-106719000D01*
X155850931Y-106766307D01*
X155626903Y-106859102D01*
X155425283Y-106993820D01*
X155253820Y-107165283D01*
X155119102Y-107366903D01*
X155026307Y-107590931D01*
X154979000Y-107828757D01*
X154979000Y-108071243D01*
X155026307Y-108309069D01*
X155119102Y-108533097D01*
X155253820Y-108734717D01*
X155425283Y-108906180D01*
X155626903Y-109040898D01*
X155752689Y-109093000D01*
X154127311Y-109093000D01*
X154253097Y-109040898D01*
X154454717Y-108906180D01*
X154626180Y-108734717D01*
X154760898Y-108533097D01*
X154853693Y-108309069D01*
X154901000Y-108071243D01*
X154901000Y-107828757D01*
X154853693Y-107590931D01*
X154821758Y-107513833D01*
X155915220Y-106420372D01*
X155934527Y-106404527D01*
X155997759Y-106327479D01*
X156044745Y-106239575D01*
X156073678Y-106144193D01*
X156081000Y-106069854D01*
X156081000Y-106069853D01*
X156083448Y-106045000D01*
X156081000Y-106020146D01*
X156081000Y-103327079D01*
X156103967Y-103304112D01*
X156178494Y-103192574D01*
X156229829Y-103068640D01*
X156256000Y-102937073D01*
X156256000Y-102802927D01*
X156229829Y-102671360D01*
X156178494Y-102547426D01*
X156103967Y-102435888D01*
X156009112Y-102341033D01*
X155897574Y-102266506D01*
X155773640Y-102215171D01*
X155642073Y-102189000D01*
X155507927Y-102189000D01*
X155376360Y-102215171D01*
X155252426Y-102266506D01*
X155140888Y-102341033D01*
X155046033Y-102435888D01*
X154971506Y-102547426D01*
X154920171Y-102671360D01*
X154894000Y-102802927D01*
X154894000Y-102937073D01*
X154920171Y-103068640D01*
X154971506Y-103192574D01*
X155046033Y-103304112D01*
X155069001Y-103327080D01*
X155069000Y-105835408D01*
X154106167Y-106798242D01*
X154029069Y-106766307D01*
X153791243Y-106719000D01*
X153548757Y-106719000D01*
X153310931Y-106766307D01*
X153086903Y-106859102D01*
X152885283Y-106993820D01*
X152713820Y-107165283D01*
X152579102Y-107366903D01*
X152486307Y-107590931D01*
X152439000Y-107828757D01*
X152439000Y-108071243D01*
X152486307Y-108309069D01*
X152579102Y-108533097D01*
X152713820Y-108734717D01*
X152885283Y-108906180D01*
X153086903Y-109040898D01*
X153212689Y-109093000D01*
X151587311Y-109093000D01*
X151713097Y-109040898D01*
X151914717Y-108906180D01*
X152086180Y-108734717D01*
X152220898Y-108533097D01*
X152313693Y-108309069D01*
X152361000Y-108071243D01*
X152361000Y-107828757D01*
X152313693Y-107590931D01*
X152220898Y-107366903D01*
X152086180Y-107165283D01*
X151914717Y-106993820D01*
X151713097Y-106859102D01*
X151489069Y-106766307D01*
X151251243Y-106719000D01*
X151008757Y-106719000D01*
X150886414Y-106743336D01*
X149906000Y-105762922D01*
X149906000Y-98738927D01*
X150195000Y-98738927D01*
X150195000Y-98873073D01*
X150221171Y-99004640D01*
X150272506Y-99128574D01*
X150347033Y-99240112D01*
X150370000Y-99263079D01*
X150370001Y-103704838D01*
X150367553Y-103729694D01*
X150377322Y-103828886D01*
X150406255Y-103924268D01*
X150406256Y-103924269D01*
X150453242Y-104012173D01*
X150516474Y-104089221D01*
X150535780Y-104105066D01*
X151719000Y-105288286D01*
X151719000Y-105320767D01*
X151745171Y-105452334D01*
X151796506Y-105576268D01*
X151871033Y-105687806D01*
X151965888Y-105782661D01*
X152077426Y-105857188D01*
X152201360Y-105908523D01*
X152332927Y-105934694D01*
X152467073Y-105934694D01*
X152598640Y-105908523D01*
X152722574Y-105857188D01*
X152834112Y-105782661D01*
X152928967Y-105687806D01*
X153003494Y-105576268D01*
X153054829Y-105452334D01*
X153081000Y-105320767D01*
X153081000Y-105186621D01*
X153054829Y-105055054D01*
X153003494Y-104931120D01*
X152928967Y-104819582D01*
X152834112Y-104724727D01*
X152722574Y-104650200D01*
X152598640Y-104598865D01*
X152467073Y-104572694D01*
X152434592Y-104572694D01*
X151382000Y-103520103D01*
X151382000Y-99312000D01*
X152629154Y-99312000D01*
X152654000Y-99314447D01*
X152678846Y-99312000D01*
X152678854Y-99312000D01*
X152753193Y-99304678D01*
X152848575Y-99275745D01*
X152936479Y-99228759D01*
X153013527Y-99165527D01*
X153029376Y-99146215D01*
X154503833Y-97671758D01*
X154580931Y-97703693D01*
X154818757Y-97751000D01*
X155061243Y-97751000D01*
X155299069Y-97703693D01*
X155376167Y-97671758D01*
X156164000Y-98459592D01*
X156164000Y-98492073D01*
X156190171Y-98623640D01*
X156241506Y-98747574D01*
X156316033Y-98859112D01*
X156410888Y-98953967D01*
X156522426Y-99028494D01*
X156646360Y-99079829D01*
X156777927Y-99106000D01*
X156912073Y-99106000D01*
X157043640Y-99079829D01*
X157167574Y-99028494D01*
X157279112Y-98953967D01*
X157373967Y-98859112D01*
X157448494Y-98747574D01*
X157499829Y-98623640D01*
X157526000Y-98492073D01*
X157526000Y-98357927D01*
X157499829Y-98226360D01*
X157448494Y-98102426D01*
X157373967Y-97990888D01*
X157279112Y-97896033D01*
X157167574Y-97821506D01*
X157043640Y-97770171D01*
X156912073Y-97744000D01*
X156879592Y-97744000D01*
X156091758Y-96956167D01*
X156123693Y-96879069D01*
X156171000Y-96641243D01*
X156171000Y-96398757D01*
X156123693Y-96160931D01*
X156030898Y-95936903D01*
X155896180Y-95735283D01*
X155724717Y-95563820D01*
X155523097Y-95429102D01*
X155299069Y-95336307D01*
X155061243Y-95289000D01*
X154818757Y-95289000D01*
X154580931Y-95336307D01*
X154442333Y-95393716D01*
X154261460Y-95212843D01*
X155790000Y-95212843D01*
X155864689Y-95205487D01*
X155936508Y-95183701D01*
X156002696Y-95148322D01*
X156060711Y-95100711D01*
X156108322Y-95042696D01*
X156143701Y-94976508D01*
X156165487Y-94904689D01*
X156172843Y-94830000D01*
X156172843Y-93130000D01*
X156165487Y-93055311D01*
X156143701Y-92983492D01*
X156108322Y-92917304D01*
X156060711Y-92859289D01*
X156002696Y-92811678D01*
X155936508Y-92776299D01*
X155864689Y-92754513D01*
X155790000Y-92747157D01*
X154114500Y-92747157D01*
X154114500Y-92426819D01*
X154116649Y-92404999D01*
X154114500Y-92383179D01*
X154114500Y-92383170D01*
X154108068Y-92317863D01*
X154082651Y-92234074D01*
X154041376Y-92156855D01*
X154041375Y-92156853D01*
X154021000Y-92132026D01*
X154021000Y-92007927D01*
X153994829Y-91876360D01*
X153943494Y-91752426D01*
X153868967Y-91640888D01*
X153774112Y-91546033D01*
X153662574Y-91471506D01*
X153538640Y-91420171D01*
X153407073Y-91394000D01*
X153272927Y-91394000D01*
X153141360Y-91420171D01*
X153017426Y-91471506D01*
X152905888Y-91546033D01*
X152811033Y-91640888D01*
X152736506Y-91752426D01*
X152685171Y-91876360D01*
X152659000Y-92007927D01*
X152659000Y-92142073D01*
X152685171Y-92273640D01*
X152736506Y-92397574D01*
X152811033Y-92509112D01*
X152905888Y-92603967D01*
X153017426Y-92678494D01*
X153141360Y-92729829D01*
X153225501Y-92746566D01*
X153225501Y-93064604D01*
X153184717Y-93023820D01*
X152983097Y-92889102D01*
X152759069Y-92796307D01*
X152521243Y-92749000D01*
X152278757Y-92749000D01*
X152040931Y-92796307D01*
X151816903Y-92889102D01*
X151615283Y-93023820D01*
X151443820Y-93195283D01*
X151309102Y-93396903D01*
X151216307Y-93620931D01*
X151169000Y-93858757D01*
X151169000Y-94101243D01*
X151216307Y-94339069D01*
X151309102Y-94563097D01*
X151443820Y-94764717D01*
X151615283Y-94936180D01*
X151816903Y-95070898D01*
X152040931Y-95163693D01*
X152278757Y-95211000D01*
X152521243Y-95211000D01*
X152759069Y-95163693D01*
X152983097Y-95070898D01*
X153184717Y-94936180D01*
X153225500Y-94895397D01*
X153225500Y-95228180D01*
X153223351Y-95250000D01*
X153225500Y-95271820D01*
X153225500Y-95271829D01*
X153231932Y-95337136D01*
X153257349Y-95420925D01*
X153298624Y-95498145D01*
X153336185Y-95543913D01*
X153354171Y-95565829D01*
X153371130Y-95579747D01*
X153813716Y-96022333D01*
X153756307Y-96160931D01*
X153709000Y-96398757D01*
X153709000Y-96641243D01*
X153756307Y-96879069D01*
X153788242Y-96956167D01*
X152444409Y-98300000D01*
X151333079Y-98300000D01*
X151310112Y-98277033D01*
X151198574Y-98202506D01*
X151074640Y-98151171D01*
X150943073Y-98125000D01*
X150808927Y-98125000D01*
X150677360Y-98151171D01*
X150553426Y-98202506D01*
X150441888Y-98277033D01*
X150347033Y-98371888D01*
X150272506Y-98483426D01*
X150221171Y-98607360D01*
X150195000Y-98738927D01*
X149906000Y-98738927D01*
X149906000Y-98458452D01*
X149909295Y-98424999D01*
X149896146Y-98291500D01*
X149876386Y-98226360D01*
X149857206Y-98163132D01*
X149793970Y-98044826D01*
X149708870Y-97941130D01*
X149682884Y-97919804D01*
X148636000Y-96872922D01*
X148636000Y-96398757D01*
X151169000Y-96398757D01*
X151169000Y-96641243D01*
X151216307Y-96879069D01*
X151309102Y-97103097D01*
X151443820Y-97304717D01*
X151615283Y-97476180D01*
X151816903Y-97610898D01*
X152040931Y-97703693D01*
X152278757Y-97751000D01*
X152521243Y-97751000D01*
X152759069Y-97703693D01*
X152983097Y-97610898D01*
X153184717Y-97476180D01*
X153356180Y-97304717D01*
X153490898Y-97103097D01*
X153583693Y-96879069D01*
X153631000Y-96641243D01*
X153631000Y-96398757D01*
X153583693Y-96160931D01*
X153490898Y-95936903D01*
X153356180Y-95735283D01*
X153184717Y-95563820D01*
X152983097Y-95429102D01*
X152759069Y-95336307D01*
X152521243Y-95289000D01*
X152278757Y-95289000D01*
X152040931Y-95336307D01*
X151816903Y-95429102D01*
X151615283Y-95563820D01*
X151443820Y-95735283D01*
X151309102Y-95936903D01*
X151216307Y-96160931D01*
X151169000Y-96398757D01*
X148636000Y-96398757D01*
X148636000Y-94136434D01*
X148676307Y-94339069D01*
X148769102Y-94563097D01*
X148903820Y-94764717D01*
X149075283Y-94936180D01*
X149276903Y-95070898D01*
X149500931Y-95163693D01*
X149738757Y-95211000D01*
X149981243Y-95211000D01*
X150219069Y-95163693D01*
X150443097Y-95070898D01*
X150644717Y-94936180D01*
X150816180Y-94764717D01*
X150950898Y-94563097D01*
X151043693Y-94339069D01*
X151091000Y-94101243D01*
X151091000Y-93858757D01*
X151043693Y-93620931D01*
X150950898Y-93396903D01*
X150816180Y-93195283D01*
X150644717Y-93023820D01*
X150443097Y-92889102D01*
X150219069Y-92796307D01*
X149981243Y-92749000D01*
X149738757Y-92749000D01*
X149500931Y-92796307D01*
X149442617Y-92820461D01*
X150886414Y-91376664D01*
X151008757Y-91401000D01*
X151251243Y-91401000D01*
X151489069Y-91353693D01*
X151713097Y-91260898D01*
X151914717Y-91126180D01*
X152086180Y-90954717D01*
X152220898Y-90753097D01*
X152313693Y-90529069D01*
X152361000Y-90291243D01*
X152361000Y-90048757D01*
X152313693Y-89810931D01*
X152220898Y-89586903D01*
X152086180Y-89385283D01*
X151914717Y-89213820D01*
X151713097Y-89079102D01*
X151587311Y-89027000D01*
X153212689Y-89027000D01*
X153086903Y-89079102D01*
M02*
