%TF.GenerationSoftware,KiCad,Pcbnew,(5.1.5)-3*%
%TF.CreationDate,2020-03-25T18:08:17+08:00*%
%TF.ProjectId,RH2288_PWM,52483232-3838-45f5-9057-4d2e6b696361,rev?*%
%TF.SameCoordinates,Original*%
%TF.FileFunction,Copper,L1,Top*%
%TF.FilePolarity,Positive*%
%FSLAX46Y46*%
G04 Gerber Fmt 4.6, Leading zero omitted, Abs format (unit mm)*
G04 Created by KiCad (PCBNEW (5.1.5)-3) date 2020-03-25 18:08:17*
%MOMM*%
%LPD*%
G04 APERTURE LIST*
%ADD10R,0.900000X0.800000*%
%ADD11C,0.100000*%
%ADD12O,1.700000X1.700000*%
%ADD13R,1.700000X1.700000*%
%ADD14C,0.600000*%
%ADD15C,0.250000*%
%ADD16C,0.127000*%
%ADD17C,0.254000*%
G04 APERTURE END LIST*
D10*
X158845000Y-103820000D03*
X156845000Y-104770000D03*
X156845000Y-102870000D03*
%TA.AperFunction,SMDPad,CuDef*%
D11*
G36*
X151640927Y-104162630D02*
G01*
X151635151Y-104151824D01*
X151631594Y-104140100D01*
X151630394Y-104127906D01*
X151631594Y-104115713D01*
X151635151Y-104103989D01*
X151640927Y-104093183D01*
X151648699Y-104083712D01*
X152125996Y-103606415D01*
X152135467Y-103598643D01*
X152146273Y-103592867D01*
X152157997Y-103589310D01*
X152170190Y-103588110D01*
X152182384Y-103589310D01*
X152194108Y-103592867D01*
X152204914Y-103598643D01*
X152214385Y-103606415D01*
X152257951Y-103649981D01*
X152265723Y-103659452D01*
X152271499Y-103670258D01*
X152275056Y-103681982D01*
X152276256Y-103694176D01*
X152276256Y-103783820D01*
X152275056Y-103796013D01*
X152271499Y-103807737D01*
X152265723Y-103818543D01*
X152257951Y-103828014D01*
X151825476Y-104260489D01*
X151816005Y-104268261D01*
X151805199Y-104274037D01*
X151793475Y-104277594D01*
X151781282Y-104278794D01*
X151769088Y-104277594D01*
X151757364Y-104274037D01*
X151746558Y-104268261D01*
X151737087Y-104260489D01*
X151648699Y-104172101D01*
X151640927Y-104162630D01*
G37*
%TD.AperFunction*%
%TA.AperFunction,SMDPad,CuDef*%
G36*
X151858118Y-103270212D02*
G01*
X151864185Y-103271112D01*
X151870135Y-103272602D01*
X151875910Y-103274669D01*
X151881454Y-103277291D01*
X151886715Y-103280444D01*
X151891642Y-103284098D01*
X151896186Y-103288217D01*
X151984575Y-103376606D01*
X151988694Y-103381150D01*
X151992348Y-103386077D01*
X151995501Y-103391338D01*
X151998123Y-103396882D01*
X152000190Y-103402657D01*
X152001680Y-103408607D01*
X152002580Y-103414674D01*
X152002881Y-103420800D01*
X152002580Y-103426926D01*
X152001680Y-103432993D01*
X152000190Y-103438943D01*
X151998123Y-103444718D01*
X151995501Y-103450262D01*
X151992348Y-103455523D01*
X151988694Y-103460450D01*
X151984575Y-103464994D01*
X151507278Y-103942291D01*
X151502734Y-103946410D01*
X151497807Y-103950064D01*
X151492546Y-103953217D01*
X151487002Y-103955839D01*
X151481227Y-103957906D01*
X151475277Y-103959396D01*
X151469210Y-103960296D01*
X151463084Y-103960597D01*
X151456958Y-103960296D01*
X151450891Y-103959396D01*
X151444941Y-103957906D01*
X151439166Y-103955839D01*
X151433622Y-103953217D01*
X151428361Y-103950064D01*
X151423434Y-103946410D01*
X151418890Y-103942291D01*
X151330501Y-103853902D01*
X151326382Y-103849358D01*
X151322728Y-103844431D01*
X151319575Y-103839170D01*
X151316953Y-103833626D01*
X151314886Y-103827851D01*
X151313396Y-103821901D01*
X151312496Y-103815834D01*
X151312195Y-103809708D01*
X151312496Y-103803582D01*
X151313396Y-103797515D01*
X151314886Y-103791565D01*
X151316953Y-103785790D01*
X151319575Y-103780246D01*
X151322728Y-103774985D01*
X151326382Y-103770058D01*
X151330501Y-103765514D01*
X151807798Y-103288217D01*
X151812342Y-103284098D01*
X151817269Y-103280444D01*
X151822530Y-103277291D01*
X151828074Y-103274669D01*
X151833849Y-103272602D01*
X151839799Y-103271112D01*
X151845866Y-103270212D01*
X151851992Y-103269911D01*
X151858118Y-103270212D01*
G37*
%TD.AperFunction*%
%TA.AperFunction,SMDPad,CuDef*%
G36*
X151539920Y-102952014D02*
G01*
X151545987Y-102952914D01*
X151551937Y-102954404D01*
X151557712Y-102956471D01*
X151563256Y-102959093D01*
X151568517Y-102962246D01*
X151573444Y-102965900D01*
X151577988Y-102970019D01*
X151666377Y-103058408D01*
X151670496Y-103062952D01*
X151674150Y-103067879D01*
X151677303Y-103073140D01*
X151679925Y-103078684D01*
X151681992Y-103084459D01*
X151683482Y-103090409D01*
X151684382Y-103096476D01*
X151684683Y-103102602D01*
X151684382Y-103108728D01*
X151683482Y-103114795D01*
X151681992Y-103120745D01*
X151679925Y-103126520D01*
X151677303Y-103132064D01*
X151674150Y-103137325D01*
X151670496Y-103142252D01*
X151666377Y-103146796D01*
X151189080Y-103624093D01*
X151184536Y-103628212D01*
X151179609Y-103631866D01*
X151174348Y-103635019D01*
X151168804Y-103637641D01*
X151163029Y-103639708D01*
X151157079Y-103641198D01*
X151151012Y-103642098D01*
X151144886Y-103642399D01*
X151138760Y-103642098D01*
X151132693Y-103641198D01*
X151126743Y-103639708D01*
X151120968Y-103637641D01*
X151115424Y-103635019D01*
X151110163Y-103631866D01*
X151105236Y-103628212D01*
X151100692Y-103624093D01*
X151012303Y-103535704D01*
X151008184Y-103531160D01*
X151004530Y-103526233D01*
X151001377Y-103520972D01*
X150998755Y-103515428D01*
X150996688Y-103509653D01*
X150995198Y-103503703D01*
X150994298Y-103497636D01*
X150993997Y-103491510D01*
X150994298Y-103485384D01*
X150995198Y-103479317D01*
X150996688Y-103473367D01*
X150998755Y-103467592D01*
X151001377Y-103462048D01*
X151004530Y-103456787D01*
X151008184Y-103451860D01*
X151012303Y-103447316D01*
X151489600Y-102970019D01*
X151494144Y-102965900D01*
X151499071Y-102962246D01*
X151504332Y-102959093D01*
X151509876Y-102956471D01*
X151515651Y-102954404D01*
X151521601Y-102952914D01*
X151527668Y-102952014D01*
X151533794Y-102951713D01*
X151539920Y-102952014D01*
G37*
%TD.AperFunction*%
%TA.AperFunction,SMDPad,CuDef*%
G36*
X151221722Y-102633816D02*
G01*
X151227789Y-102634716D01*
X151233739Y-102636206D01*
X151239514Y-102638273D01*
X151245058Y-102640895D01*
X151250319Y-102644048D01*
X151255246Y-102647702D01*
X151259790Y-102651821D01*
X151348179Y-102740210D01*
X151352298Y-102744754D01*
X151355952Y-102749681D01*
X151359105Y-102754942D01*
X151361727Y-102760486D01*
X151363794Y-102766261D01*
X151365284Y-102772211D01*
X151366184Y-102778278D01*
X151366485Y-102784404D01*
X151366184Y-102790530D01*
X151365284Y-102796597D01*
X151363794Y-102802547D01*
X151361727Y-102808322D01*
X151359105Y-102813866D01*
X151355952Y-102819127D01*
X151352298Y-102824054D01*
X151348179Y-102828598D01*
X150870882Y-103305895D01*
X150866338Y-103310014D01*
X150861411Y-103313668D01*
X150856150Y-103316821D01*
X150850606Y-103319443D01*
X150844831Y-103321510D01*
X150838881Y-103323000D01*
X150832814Y-103323900D01*
X150826688Y-103324201D01*
X150820562Y-103323900D01*
X150814495Y-103323000D01*
X150808545Y-103321510D01*
X150802770Y-103319443D01*
X150797226Y-103316821D01*
X150791965Y-103313668D01*
X150787038Y-103310014D01*
X150782494Y-103305895D01*
X150694105Y-103217506D01*
X150689986Y-103212962D01*
X150686332Y-103208035D01*
X150683179Y-103202774D01*
X150680557Y-103197230D01*
X150678490Y-103191455D01*
X150677000Y-103185505D01*
X150676100Y-103179438D01*
X150675799Y-103173312D01*
X150676100Y-103167186D01*
X150677000Y-103161119D01*
X150678490Y-103155169D01*
X150680557Y-103149394D01*
X150683179Y-103143850D01*
X150686332Y-103138589D01*
X150689986Y-103133662D01*
X150694105Y-103129118D01*
X151171402Y-102651821D01*
X151175946Y-102647702D01*
X151180873Y-102644048D01*
X151186134Y-102640895D01*
X151191678Y-102638273D01*
X151197453Y-102636206D01*
X151203403Y-102634716D01*
X151209470Y-102633816D01*
X151215596Y-102633515D01*
X151221722Y-102633816D01*
G37*
%TD.AperFunction*%
%TA.AperFunction,SMDPad,CuDef*%
G36*
X150903524Y-102315618D02*
G01*
X150909591Y-102316518D01*
X150915541Y-102318008D01*
X150921316Y-102320075D01*
X150926860Y-102322697D01*
X150932121Y-102325850D01*
X150937048Y-102329504D01*
X150941592Y-102333623D01*
X151029981Y-102422012D01*
X151034100Y-102426556D01*
X151037754Y-102431483D01*
X151040907Y-102436744D01*
X151043529Y-102442288D01*
X151045596Y-102448063D01*
X151047086Y-102454013D01*
X151047986Y-102460080D01*
X151048287Y-102466206D01*
X151047986Y-102472332D01*
X151047086Y-102478399D01*
X151045596Y-102484349D01*
X151043529Y-102490124D01*
X151040907Y-102495668D01*
X151037754Y-102500929D01*
X151034100Y-102505856D01*
X151029981Y-102510400D01*
X150552684Y-102987697D01*
X150548140Y-102991816D01*
X150543213Y-102995470D01*
X150537952Y-102998623D01*
X150532408Y-103001245D01*
X150526633Y-103003312D01*
X150520683Y-103004802D01*
X150514616Y-103005702D01*
X150508490Y-103006003D01*
X150502364Y-103005702D01*
X150496297Y-103004802D01*
X150490347Y-103003312D01*
X150484572Y-103001245D01*
X150479028Y-102998623D01*
X150473767Y-102995470D01*
X150468840Y-102991816D01*
X150464296Y-102987697D01*
X150375907Y-102899308D01*
X150371788Y-102894764D01*
X150368134Y-102889837D01*
X150364981Y-102884576D01*
X150362359Y-102879032D01*
X150360292Y-102873257D01*
X150358802Y-102867307D01*
X150357902Y-102861240D01*
X150357601Y-102855114D01*
X150357902Y-102848988D01*
X150358802Y-102842921D01*
X150360292Y-102836971D01*
X150362359Y-102831196D01*
X150364981Y-102825652D01*
X150368134Y-102820391D01*
X150371788Y-102815464D01*
X150375907Y-102810920D01*
X150853204Y-102333623D01*
X150857748Y-102329504D01*
X150862675Y-102325850D01*
X150867936Y-102322697D01*
X150873480Y-102320075D01*
X150879255Y-102318008D01*
X150885205Y-102316518D01*
X150891272Y-102315618D01*
X150897398Y-102315317D01*
X150903524Y-102315618D01*
G37*
%TD.AperFunction*%
%TA.AperFunction,SMDPad,CuDef*%
G36*
X150585326Y-101997420D02*
G01*
X150591393Y-101998320D01*
X150597343Y-101999810D01*
X150603118Y-102001877D01*
X150608662Y-102004499D01*
X150613923Y-102007652D01*
X150618850Y-102011306D01*
X150623394Y-102015425D01*
X150711783Y-102103814D01*
X150715902Y-102108358D01*
X150719556Y-102113285D01*
X150722709Y-102118546D01*
X150725331Y-102124090D01*
X150727398Y-102129865D01*
X150728888Y-102135815D01*
X150729788Y-102141882D01*
X150730089Y-102148008D01*
X150729788Y-102154134D01*
X150728888Y-102160201D01*
X150727398Y-102166151D01*
X150725331Y-102171926D01*
X150722709Y-102177470D01*
X150719556Y-102182731D01*
X150715902Y-102187658D01*
X150711783Y-102192202D01*
X150234486Y-102669499D01*
X150229942Y-102673618D01*
X150225015Y-102677272D01*
X150219754Y-102680425D01*
X150214210Y-102683047D01*
X150208435Y-102685114D01*
X150202485Y-102686604D01*
X150196418Y-102687504D01*
X150190292Y-102687805D01*
X150184166Y-102687504D01*
X150178099Y-102686604D01*
X150172149Y-102685114D01*
X150166374Y-102683047D01*
X150160830Y-102680425D01*
X150155569Y-102677272D01*
X150150642Y-102673618D01*
X150146098Y-102669499D01*
X150057709Y-102581110D01*
X150053590Y-102576566D01*
X150049936Y-102571639D01*
X150046783Y-102566378D01*
X150044161Y-102560834D01*
X150042094Y-102555059D01*
X150040604Y-102549109D01*
X150039704Y-102543042D01*
X150039403Y-102536916D01*
X150039704Y-102530790D01*
X150040604Y-102524723D01*
X150042094Y-102518773D01*
X150044161Y-102512998D01*
X150046783Y-102507454D01*
X150049936Y-102502193D01*
X150053590Y-102497266D01*
X150057709Y-102492722D01*
X150535006Y-102015425D01*
X150539550Y-102011306D01*
X150544477Y-102007652D01*
X150549738Y-102004499D01*
X150555282Y-102001877D01*
X150561057Y-101999810D01*
X150567007Y-101998320D01*
X150573074Y-101997420D01*
X150579200Y-101997119D01*
X150585326Y-101997420D01*
G37*
%TD.AperFunction*%
%TA.AperFunction,SMDPad,CuDef*%
G36*
X149731739Y-102253442D02*
G01*
X149725963Y-102242636D01*
X149722406Y-102230912D01*
X149721206Y-102218718D01*
X149722406Y-102206525D01*
X149725963Y-102194801D01*
X149731739Y-102183995D01*
X149739511Y-102174524D01*
X150171986Y-101742049D01*
X150181457Y-101734277D01*
X150192263Y-101728501D01*
X150203987Y-101724944D01*
X150216180Y-101723744D01*
X150305824Y-101723744D01*
X150318018Y-101724944D01*
X150329742Y-101728501D01*
X150340548Y-101734277D01*
X150350019Y-101742049D01*
X150393585Y-101785615D01*
X150401357Y-101795086D01*
X150407133Y-101805892D01*
X150410690Y-101817616D01*
X150411890Y-101829810D01*
X150410690Y-101842003D01*
X150407133Y-101853727D01*
X150401357Y-101864533D01*
X150393585Y-101874004D01*
X149916288Y-102351301D01*
X149906817Y-102359073D01*
X149896011Y-102364849D01*
X149884287Y-102368406D01*
X149872094Y-102369606D01*
X149859900Y-102368406D01*
X149848176Y-102364849D01*
X149837370Y-102359073D01*
X149827899Y-102351301D01*
X149739511Y-102262913D01*
X149731739Y-102253442D01*
G37*
%TD.AperFunction*%
%TA.AperFunction,SMDPad,CuDef*%
G36*
X149731739Y-101016005D02*
G01*
X149725963Y-101005199D01*
X149722406Y-100993475D01*
X149721206Y-100981282D01*
X149722406Y-100969088D01*
X149725963Y-100957364D01*
X149731739Y-100946558D01*
X149739511Y-100937087D01*
X149827899Y-100848699D01*
X149837370Y-100840927D01*
X149848176Y-100835151D01*
X149859900Y-100831594D01*
X149872094Y-100830394D01*
X149884287Y-100831594D01*
X149896011Y-100835151D01*
X149906817Y-100840927D01*
X149916288Y-100848699D01*
X150393585Y-101325996D01*
X150401357Y-101335467D01*
X150407133Y-101346273D01*
X150410690Y-101357997D01*
X150411890Y-101370190D01*
X150410690Y-101382384D01*
X150407133Y-101394108D01*
X150401357Y-101404914D01*
X150393585Y-101414385D01*
X150350019Y-101457951D01*
X150340548Y-101465723D01*
X150329742Y-101471499D01*
X150318018Y-101475056D01*
X150305824Y-101476256D01*
X150216180Y-101476256D01*
X150203987Y-101475056D01*
X150192263Y-101471499D01*
X150181457Y-101465723D01*
X150171986Y-101457951D01*
X149739511Y-101025476D01*
X149731739Y-101016005D01*
G37*
%TD.AperFunction*%
%TA.AperFunction,SMDPad,CuDef*%
G36*
X150196418Y-100512496D02*
G01*
X150202485Y-100513396D01*
X150208435Y-100514886D01*
X150214210Y-100516953D01*
X150219754Y-100519575D01*
X150225015Y-100522728D01*
X150229942Y-100526382D01*
X150234486Y-100530501D01*
X150711783Y-101007798D01*
X150715902Y-101012342D01*
X150719556Y-101017269D01*
X150722709Y-101022530D01*
X150725331Y-101028074D01*
X150727398Y-101033849D01*
X150728888Y-101039799D01*
X150729788Y-101045866D01*
X150730089Y-101051992D01*
X150729788Y-101058118D01*
X150728888Y-101064185D01*
X150727398Y-101070135D01*
X150725331Y-101075910D01*
X150722709Y-101081454D01*
X150719556Y-101086715D01*
X150715902Y-101091642D01*
X150711783Y-101096186D01*
X150623394Y-101184575D01*
X150618850Y-101188694D01*
X150613923Y-101192348D01*
X150608662Y-101195501D01*
X150603118Y-101198123D01*
X150597343Y-101200190D01*
X150591393Y-101201680D01*
X150585326Y-101202580D01*
X150579200Y-101202881D01*
X150573074Y-101202580D01*
X150567007Y-101201680D01*
X150561057Y-101200190D01*
X150555282Y-101198123D01*
X150549738Y-101195501D01*
X150544477Y-101192348D01*
X150539550Y-101188694D01*
X150535006Y-101184575D01*
X150057709Y-100707278D01*
X150053590Y-100702734D01*
X150049936Y-100697807D01*
X150046783Y-100692546D01*
X150044161Y-100687002D01*
X150042094Y-100681227D01*
X150040604Y-100675277D01*
X150039704Y-100669210D01*
X150039403Y-100663084D01*
X150039704Y-100656958D01*
X150040604Y-100650891D01*
X150042094Y-100644941D01*
X150044161Y-100639166D01*
X150046783Y-100633622D01*
X150049936Y-100628361D01*
X150053590Y-100623434D01*
X150057709Y-100618890D01*
X150146098Y-100530501D01*
X150150642Y-100526382D01*
X150155569Y-100522728D01*
X150160830Y-100519575D01*
X150166374Y-100516953D01*
X150172149Y-100514886D01*
X150178099Y-100513396D01*
X150184166Y-100512496D01*
X150190292Y-100512195D01*
X150196418Y-100512496D01*
G37*
%TD.AperFunction*%
%TA.AperFunction,SMDPad,CuDef*%
G36*
X150514616Y-100194298D02*
G01*
X150520683Y-100195198D01*
X150526633Y-100196688D01*
X150532408Y-100198755D01*
X150537952Y-100201377D01*
X150543213Y-100204530D01*
X150548140Y-100208184D01*
X150552684Y-100212303D01*
X151029981Y-100689600D01*
X151034100Y-100694144D01*
X151037754Y-100699071D01*
X151040907Y-100704332D01*
X151043529Y-100709876D01*
X151045596Y-100715651D01*
X151047086Y-100721601D01*
X151047986Y-100727668D01*
X151048287Y-100733794D01*
X151047986Y-100739920D01*
X151047086Y-100745987D01*
X151045596Y-100751937D01*
X151043529Y-100757712D01*
X151040907Y-100763256D01*
X151037754Y-100768517D01*
X151034100Y-100773444D01*
X151029981Y-100777988D01*
X150941592Y-100866377D01*
X150937048Y-100870496D01*
X150932121Y-100874150D01*
X150926860Y-100877303D01*
X150921316Y-100879925D01*
X150915541Y-100881992D01*
X150909591Y-100883482D01*
X150903524Y-100884382D01*
X150897398Y-100884683D01*
X150891272Y-100884382D01*
X150885205Y-100883482D01*
X150879255Y-100881992D01*
X150873480Y-100879925D01*
X150867936Y-100877303D01*
X150862675Y-100874150D01*
X150857748Y-100870496D01*
X150853204Y-100866377D01*
X150375907Y-100389080D01*
X150371788Y-100384536D01*
X150368134Y-100379609D01*
X150364981Y-100374348D01*
X150362359Y-100368804D01*
X150360292Y-100363029D01*
X150358802Y-100357079D01*
X150357902Y-100351012D01*
X150357601Y-100344886D01*
X150357902Y-100338760D01*
X150358802Y-100332693D01*
X150360292Y-100326743D01*
X150362359Y-100320968D01*
X150364981Y-100315424D01*
X150368134Y-100310163D01*
X150371788Y-100305236D01*
X150375907Y-100300692D01*
X150464296Y-100212303D01*
X150468840Y-100208184D01*
X150473767Y-100204530D01*
X150479028Y-100201377D01*
X150484572Y-100198755D01*
X150490347Y-100196688D01*
X150496297Y-100195198D01*
X150502364Y-100194298D01*
X150508490Y-100193997D01*
X150514616Y-100194298D01*
G37*
%TD.AperFunction*%
%TA.AperFunction,SMDPad,CuDef*%
G36*
X150832814Y-99876100D02*
G01*
X150838881Y-99877000D01*
X150844831Y-99878490D01*
X150850606Y-99880557D01*
X150856150Y-99883179D01*
X150861411Y-99886332D01*
X150866338Y-99889986D01*
X150870882Y-99894105D01*
X151348179Y-100371402D01*
X151352298Y-100375946D01*
X151355952Y-100380873D01*
X151359105Y-100386134D01*
X151361727Y-100391678D01*
X151363794Y-100397453D01*
X151365284Y-100403403D01*
X151366184Y-100409470D01*
X151366485Y-100415596D01*
X151366184Y-100421722D01*
X151365284Y-100427789D01*
X151363794Y-100433739D01*
X151361727Y-100439514D01*
X151359105Y-100445058D01*
X151355952Y-100450319D01*
X151352298Y-100455246D01*
X151348179Y-100459790D01*
X151259790Y-100548179D01*
X151255246Y-100552298D01*
X151250319Y-100555952D01*
X151245058Y-100559105D01*
X151239514Y-100561727D01*
X151233739Y-100563794D01*
X151227789Y-100565284D01*
X151221722Y-100566184D01*
X151215596Y-100566485D01*
X151209470Y-100566184D01*
X151203403Y-100565284D01*
X151197453Y-100563794D01*
X151191678Y-100561727D01*
X151186134Y-100559105D01*
X151180873Y-100555952D01*
X151175946Y-100552298D01*
X151171402Y-100548179D01*
X150694105Y-100070882D01*
X150689986Y-100066338D01*
X150686332Y-100061411D01*
X150683179Y-100056150D01*
X150680557Y-100050606D01*
X150678490Y-100044831D01*
X150677000Y-100038881D01*
X150676100Y-100032814D01*
X150675799Y-100026688D01*
X150676100Y-100020562D01*
X150677000Y-100014495D01*
X150678490Y-100008545D01*
X150680557Y-100002770D01*
X150683179Y-99997226D01*
X150686332Y-99991965D01*
X150689986Y-99987038D01*
X150694105Y-99982494D01*
X150782494Y-99894105D01*
X150787038Y-99889986D01*
X150791965Y-99886332D01*
X150797226Y-99883179D01*
X150802770Y-99880557D01*
X150808545Y-99878490D01*
X150814495Y-99877000D01*
X150820562Y-99876100D01*
X150826688Y-99875799D01*
X150832814Y-99876100D01*
G37*
%TD.AperFunction*%
%TA.AperFunction,SMDPad,CuDef*%
G36*
X151151012Y-99557902D02*
G01*
X151157079Y-99558802D01*
X151163029Y-99560292D01*
X151168804Y-99562359D01*
X151174348Y-99564981D01*
X151179609Y-99568134D01*
X151184536Y-99571788D01*
X151189080Y-99575907D01*
X151666377Y-100053204D01*
X151670496Y-100057748D01*
X151674150Y-100062675D01*
X151677303Y-100067936D01*
X151679925Y-100073480D01*
X151681992Y-100079255D01*
X151683482Y-100085205D01*
X151684382Y-100091272D01*
X151684683Y-100097398D01*
X151684382Y-100103524D01*
X151683482Y-100109591D01*
X151681992Y-100115541D01*
X151679925Y-100121316D01*
X151677303Y-100126860D01*
X151674150Y-100132121D01*
X151670496Y-100137048D01*
X151666377Y-100141592D01*
X151577988Y-100229981D01*
X151573444Y-100234100D01*
X151568517Y-100237754D01*
X151563256Y-100240907D01*
X151557712Y-100243529D01*
X151551937Y-100245596D01*
X151545987Y-100247086D01*
X151539920Y-100247986D01*
X151533794Y-100248287D01*
X151527668Y-100247986D01*
X151521601Y-100247086D01*
X151515651Y-100245596D01*
X151509876Y-100243529D01*
X151504332Y-100240907D01*
X151499071Y-100237754D01*
X151494144Y-100234100D01*
X151489600Y-100229981D01*
X151012303Y-99752684D01*
X151008184Y-99748140D01*
X151004530Y-99743213D01*
X151001377Y-99737952D01*
X150998755Y-99732408D01*
X150996688Y-99726633D01*
X150995198Y-99720683D01*
X150994298Y-99714616D01*
X150993997Y-99708490D01*
X150994298Y-99702364D01*
X150995198Y-99696297D01*
X150996688Y-99690347D01*
X150998755Y-99684572D01*
X151001377Y-99679028D01*
X151004530Y-99673767D01*
X151008184Y-99668840D01*
X151012303Y-99664296D01*
X151100692Y-99575907D01*
X151105236Y-99571788D01*
X151110163Y-99568134D01*
X151115424Y-99564981D01*
X151120968Y-99562359D01*
X151126743Y-99560292D01*
X151132693Y-99558802D01*
X151138760Y-99557902D01*
X151144886Y-99557601D01*
X151151012Y-99557902D01*
G37*
%TD.AperFunction*%
%TA.AperFunction,SMDPad,CuDef*%
G36*
X151469210Y-99239704D02*
G01*
X151475277Y-99240604D01*
X151481227Y-99242094D01*
X151487002Y-99244161D01*
X151492546Y-99246783D01*
X151497807Y-99249936D01*
X151502734Y-99253590D01*
X151507278Y-99257709D01*
X151984575Y-99735006D01*
X151988694Y-99739550D01*
X151992348Y-99744477D01*
X151995501Y-99749738D01*
X151998123Y-99755282D01*
X152000190Y-99761057D01*
X152001680Y-99767007D01*
X152002580Y-99773074D01*
X152002881Y-99779200D01*
X152002580Y-99785326D01*
X152001680Y-99791393D01*
X152000190Y-99797343D01*
X151998123Y-99803118D01*
X151995501Y-99808662D01*
X151992348Y-99813923D01*
X151988694Y-99818850D01*
X151984575Y-99823394D01*
X151896186Y-99911783D01*
X151891642Y-99915902D01*
X151886715Y-99919556D01*
X151881454Y-99922709D01*
X151875910Y-99925331D01*
X151870135Y-99927398D01*
X151864185Y-99928888D01*
X151858118Y-99929788D01*
X151851992Y-99930089D01*
X151845866Y-99929788D01*
X151839799Y-99928888D01*
X151833849Y-99927398D01*
X151828074Y-99925331D01*
X151822530Y-99922709D01*
X151817269Y-99919556D01*
X151812342Y-99915902D01*
X151807798Y-99911783D01*
X151330501Y-99434486D01*
X151326382Y-99429942D01*
X151322728Y-99425015D01*
X151319575Y-99419754D01*
X151316953Y-99414210D01*
X151314886Y-99408435D01*
X151313396Y-99402485D01*
X151312496Y-99396418D01*
X151312195Y-99390292D01*
X151312496Y-99384166D01*
X151313396Y-99378099D01*
X151314886Y-99372149D01*
X151316953Y-99366374D01*
X151319575Y-99360830D01*
X151322728Y-99355569D01*
X151326382Y-99350642D01*
X151330501Y-99346098D01*
X151418890Y-99257709D01*
X151423434Y-99253590D01*
X151428361Y-99249936D01*
X151433622Y-99246783D01*
X151439166Y-99244161D01*
X151444941Y-99242094D01*
X151450891Y-99240604D01*
X151456958Y-99239704D01*
X151463084Y-99239403D01*
X151469210Y-99239704D01*
G37*
%TD.AperFunction*%
%TA.AperFunction,SMDPad,CuDef*%
G36*
X151640927Y-99106817D02*
G01*
X151635151Y-99096011D01*
X151631594Y-99084287D01*
X151630394Y-99072094D01*
X151631594Y-99059900D01*
X151635151Y-99048176D01*
X151640927Y-99037370D01*
X151648699Y-99027899D01*
X151737087Y-98939511D01*
X151746558Y-98931739D01*
X151757364Y-98925963D01*
X151769088Y-98922406D01*
X151781282Y-98921206D01*
X151793475Y-98922406D01*
X151805199Y-98925963D01*
X151816005Y-98931739D01*
X151825476Y-98939511D01*
X152257951Y-99371986D01*
X152265723Y-99381457D01*
X152271499Y-99392263D01*
X152275056Y-99403987D01*
X152276256Y-99416180D01*
X152276256Y-99505824D01*
X152275056Y-99518018D01*
X152271499Y-99529742D01*
X152265723Y-99540548D01*
X152257951Y-99550019D01*
X152214385Y-99593585D01*
X152204914Y-99601357D01*
X152194108Y-99607133D01*
X152182384Y-99610690D01*
X152170190Y-99611890D01*
X152157997Y-99610690D01*
X152146273Y-99607133D01*
X152135467Y-99601357D01*
X152125996Y-99593585D01*
X151648699Y-99116288D01*
X151640927Y-99106817D01*
G37*
%TD.AperFunction*%
%TA.AperFunction,SMDPad,CuDef*%
G36*
X152534277Y-99540548D02*
G01*
X152528501Y-99529742D01*
X152524944Y-99518018D01*
X152523744Y-99505824D01*
X152523744Y-99416180D01*
X152524944Y-99403987D01*
X152528501Y-99392263D01*
X152534277Y-99381457D01*
X152542049Y-99371986D01*
X152974524Y-98939511D01*
X152983995Y-98931739D01*
X152994801Y-98925963D01*
X153006525Y-98922406D01*
X153018718Y-98921206D01*
X153030912Y-98922406D01*
X153042636Y-98925963D01*
X153053442Y-98931739D01*
X153062913Y-98939511D01*
X153151301Y-99027899D01*
X153159073Y-99037370D01*
X153164849Y-99048176D01*
X153168406Y-99059900D01*
X153169606Y-99072094D01*
X153168406Y-99084287D01*
X153164849Y-99096011D01*
X153159073Y-99106817D01*
X153151301Y-99116288D01*
X152674004Y-99593585D01*
X152664533Y-99601357D01*
X152653727Y-99607133D01*
X152642003Y-99610690D01*
X152629810Y-99611890D01*
X152617616Y-99610690D01*
X152605892Y-99607133D01*
X152595086Y-99601357D01*
X152585615Y-99593585D01*
X152542049Y-99550019D01*
X152534277Y-99540548D01*
G37*
%TD.AperFunction*%
%TA.AperFunction,SMDPad,CuDef*%
G36*
X153343042Y-99239704D02*
G01*
X153349109Y-99240604D01*
X153355059Y-99242094D01*
X153360834Y-99244161D01*
X153366378Y-99246783D01*
X153371639Y-99249936D01*
X153376566Y-99253590D01*
X153381110Y-99257709D01*
X153469499Y-99346098D01*
X153473618Y-99350642D01*
X153477272Y-99355569D01*
X153480425Y-99360830D01*
X153483047Y-99366374D01*
X153485114Y-99372149D01*
X153486604Y-99378099D01*
X153487504Y-99384166D01*
X153487805Y-99390292D01*
X153487504Y-99396418D01*
X153486604Y-99402485D01*
X153485114Y-99408435D01*
X153483047Y-99414210D01*
X153480425Y-99419754D01*
X153477272Y-99425015D01*
X153473618Y-99429942D01*
X153469499Y-99434486D01*
X152992202Y-99911783D01*
X152987658Y-99915902D01*
X152982731Y-99919556D01*
X152977470Y-99922709D01*
X152971926Y-99925331D01*
X152966151Y-99927398D01*
X152960201Y-99928888D01*
X152954134Y-99929788D01*
X152948008Y-99930089D01*
X152941882Y-99929788D01*
X152935815Y-99928888D01*
X152929865Y-99927398D01*
X152924090Y-99925331D01*
X152918546Y-99922709D01*
X152913285Y-99919556D01*
X152908358Y-99915902D01*
X152903814Y-99911783D01*
X152815425Y-99823394D01*
X152811306Y-99818850D01*
X152807652Y-99813923D01*
X152804499Y-99808662D01*
X152801877Y-99803118D01*
X152799810Y-99797343D01*
X152798320Y-99791393D01*
X152797420Y-99785326D01*
X152797119Y-99779200D01*
X152797420Y-99773074D01*
X152798320Y-99767007D01*
X152799810Y-99761057D01*
X152801877Y-99755282D01*
X152804499Y-99749738D01*
X152807652Y-99744477D01*
X152811306Y-99739550D01*
X152815425Y-99735006D01*
X153292722Y-99257709D01*
X153297266Y-99253590D01*
X153302193Y-99249936D01*
X153307454Y-99246783D01*
X153312998Y-99244161D01*
X153318773Y-99242094D01*
X153324723Y-99240604D01*
X153330790Y-99239704D01*
X153336916Y-99239403D01*
X153343042Y-99239704D01*
G37*
%TD.AperFunction*%
%TA.AperFunction,SMDPad,CuDef*%
G36*
X153661240Y-99557902D02*
G01*
X153667307Y-99558802D01*
X153673257Y-99560292D01*
X153679032Y-99562359D01*
X153684576Y-99564981D01*
X153689837Y-99568134D01*
X153694764Y-99571788D01*
X153699308Y-99575907D01*
X153787697Y-99664296D01*
X153791816Y-99668840D01*
X153795470Y-99673767D01*
X153798623Y-99679028D01*
X153801245Y-99684572D01*
X153803312Y-99690347D01*
X153804802Y-99696297D01*
X153805702Y-99702364D01*
X153806003Y-99708490D01*
X153805702Y-99714616D01*
X153804802Y-99720683D01*
X153803312Y-99726633D01*
X153801245Y-99732408D01*
X153798623Y-99737952D01*
X153795470Y-99743213D01*
X153791816Y-99748140D01*
X153787697Y-99752684D01*
X153310400Y-100229981D01*
X153305856Y-100234100D01*
X153300929Y-100237754D01*
X153295668Y-100240907D01*
X153290124Y-100243529D01*
X153284349Y-100245596D01*
X153278399Y-100247086D01*
X153272332Y-100247986D01*
X153266206Y-100248287D01*
X153260080Y-100247986D01*
X153254013Y-100247086D01*
X153248063Y-100245596D01*
X153242288Y-100243529D01*
X153236744Y-100240907D01*
X153231483Y-100237754D01*
X153226556Y-100234100D01*
X153222012Y-100229981D01*
X153133623Y-100141592D01*
X153129504Y-100137048D01*
X153125850Y-100132121D01*
X153122697Y-100126860D01*
X153120075Y-100121316D01*
X153118008Y-100115541D01*
X153116518Y-100109591D01*
X153115618Y-100103524D01*
X153115317Y-100097398D01*
X153115618Y-100091272D01*
X153116518Y-100085205D01*
X153118008Y-100079255D01*
X153120075Y-100073480D01*
X153122697Y-100067936D01*
X153125850Y-100062675D01*
X153129504Y-100057748D01*
X153133623Y-100053204D01*
X153610920Y-99575907D01*
X153615464Y-99571788D01*
X153620391Y-99568134D01*
X153625652Y-99564981D01*
X153631196Y-99562359D01*
X153636971Y-99560292D01*
X153642921Y-99558802D01*
X153648988Y-99557902D01*
X153655114Y-99557601D01*
X153661240Y-99557902D01*
G37*
%TD.AperFunction*%
%TA.AperFunction,SMDPad,CuDef*%
G36*
X153979438Y-99876100D02*
G01*
X153985505Y-99877000D01*
X153991455Y-99878490D01*
X153997230Y-99880557D01*
X154002774Y-99883179D01*
X154008035Y-99886332D01*
X154012962Y-99889986D01*
X154017506Y-99894105D01*
X154105895Y-99982494D01*
X154110014Y-99987038D01*
X154113668Y-99991965D01*
X154116821Y-99997226D01*
X154119443Y-100002770D01*
X154121510Y-100008545D01*
X154123000Y-100014495D01*
X154123900Y-100020562D01*
X154124201Y-100026688D01*
X154123900Y-100032814D01*
X154123000Y-100038881D01*
X154121510Y-100044831D01*
X154119443Y-100050606D01*
X154116821Y-100056150D01*
X154113668Y-100061411D01*
X154110014Y-100066338D01*
X154105895Y-100070882D01*
X153628598Y-100548179D01*
X153624054Y-100552298D01*
X153619127Y-100555952D01*
X153613866Y-100559105D01*
X153608322Y-100561727D01*
X153602547Y-100563794D01*
X153596597Y-100565284D01*
X153590530Y-100566184D01*
X153584404Y-100566485D01*
X153578278Y-100566184D01*
X153572211Y-100565284D01*
X153566261Y-100563794D01*
X153560486Y-100561727D01*
X153554942Y-100559105D01*
X153549681Y-100555952D01*
X153544754Y-100552298D01*
X153540210Y-100548179D01*
X153451821Y-100459790D01*
X153447702Y-100455246D01*
X153444048Y-100450319D01*
X153440895Y-100445058D01*
X153438273Y-100439514D01*
X153436206Y-100433739D01*
X153434716Y-100427789D01*
X153433816Y-100421722D01*
X153433515Y-100415596D01*
X153433816Y-100409470D01*
X153434716Y-100403403D01*
X153436206Y-100397453D01*
X153438273Y-100391678D01*
X153440895Y-100386134D01*
X153444048Y-100380873D01*
X153447702Y-100375946D01*
X153451821Y-100371402D01*
X153929118Y-99894105D01*
X153933662Y-99889986D01*
X153938589Y-99886332D01*
X153943850Y-99883179D01*
X153949394Y-99880557D01*
X153955169Y-99878490D01*
X153961119Y-99877000D01*
X153967186Y-99876100D01*
X153973312Y-99875799D01*
X153979438Y-99876100D01*
G37*
%TD.AperFunction*%
%TA.AperFunction,SMDPad,CuDef*%
G36*
X154297636Y-100194298D02*
G01*
X154303703Y-100195198D01*
X154309653Y-100196688D01*
X154315428Y-100198755D01*
X154320972Y-100201377D01*
X154326233Y-100204530D01*
X154331160Y-100208184D01*
X154335704Y-100212303D01*
X154424093Y-100300692D01*
X154428212Y-100305236D01*
X154431866Y-100310163D01*
X154435019Y-100315424D01*
X154437641Y-100320968D01*
X154439708Y-100326743D01*
X154441198Y-100332693D01*
X154442098Y-100338760D01*
X154442399Y-100344886D01*
X154442098Y-100351012D01*
X154441198Y-100357079D01*
X154439708Y-100363029D01*
X154437641Y-100368804D01*
X154435019Y-100374348D01*
X154431866Y-100379609D01*
X154428212Y-100384536D01*
X154424093Y-100389080D01*
X153946796Y-100866377D01*
X153942252Y-100870496D01*
X153937325Y-100874150D01*
X153932064Y-100877303D01*
X153926520Y-100879925D01*
X153920745Y-100881992D01*
X153914795Y-100883482D01*
X153908728Y-100884382D01*
X153902602Y-100884683D01*
X153896476Y-100884382D01*
X153890409Y-100883482D01*
X153884459Y-100881992D01*
X153878684Y-100879925D01*
X153873140Y-100877303D01*
X153867879Y-100874150D01*
X153862952Y-100870496D01*
X153858408Y-100866377D01*
X153770019Y-100777988D01*
X153765900Y-100773444D01*
X153762246Y-100768517D01*
X153759093Y-100763256D01*
X153756471Y-100757712D01*
X153754404Y-100751937D01*
X153752914Y-100745987D01*
X153752014Y-100739920D01*
X153751713Y-100733794D01*
X153752014Y-100727668D01*
X153752914Y-100721601D01*
X153754404Y-100715651D01*
X153756471Y-100709876D01*
X153759093Y-100704332D01*
X153762246Y-100699071D01*
X153765900Y-100694144D01*
X153770019Y-100689600D01*
X154247316Y-100212303D01*
X154251860Y-100208184D01*
X154256787Y-100204530D01*
X154262048Y-100201377D01*
X154267592Y-100198755D01*
X154273367Y-100196688D01*
X154279317Y-100195198D01*
X154285384Y-100194298D01*
X154291510Y-100193997D01*
X154297636Y-100194298D01*
G37*
%TD.AperFunction*%
%TA.AperFunction,SMDPad,CuDef*%
G36*
X154615834Y-100512496D02*
G01*
X154621901Y-100513396D01*
X154627851Y-100514886D01*
X154633626Y-100516953D01*
X154639170Y-100519575D01*
X154644431Y-100522728D01*
X154649358Y-100526382D01*
X154653902Y-100530501D01*
X154742291Y-100618890D01*
X154746410Y-100623434D01*
X154750064Y-100628361D01*
X154753217Y-100633622D01*
X154755839Y-100639166D01*
X154757906Y-100644941D01*
X154759396Y-100650891D01*
X154760296Y-100656958D01*
X154760597Y-100663084D01*
X154760296Y-100669210D01*
X154759396Y-100675277D01*
X154757906Y-100681227D01*
X154755839Y-100687002D01*
X154753217Y-100692546D01*
X154750064Y-100697807D01*
X154746410Y-100702734D01*
X154742291Y-100707278D01*
X154264994Y-101184575D01*
X154260450Y-101188694D01*
X154255523Y-101192348D01*
X154250262Y-101195501D01*
X154244718Y-101198123D01*
X154238943Y-101200190D01*
X154232993Y-101201680D01*
X154226926Y-101202580D01*
X154220800Y-101202881D01*
X154214674Y-101202580D01*
X154208607Y-101201680D01*
X154202657Y-101200190D01*
X154196882Y-101198123D01*
X154191338Y-101195501D01*
X154186077Y-101192348D01*
X154181150Y-101188694D01*
X154176606Y-101184575D01*
X154088217Y-101096186D01*
X154084098Y-101091642D01*
X154080444Y-101086715D01*
X154077291Y-101081454D01*
X154074669Y-101075910D01*
X154072602Y-101070135D01*
X154071112Y-101064185D01*
X154070212Y-101058118D01*
X154069911Y-101051992D01*
X154070212Y-101045866D01*
X154071112Y-101039799D01*
X154072602Y-101033849D01*
X154074669Y-101028074D01*
X154077291Y-101022530D01*
X154080444Y-101017269D01*
X154084098Y-101012342D01*
X154088217Y-101007798D01*
X154565514Y-100530501D01*
X154570058Y-100526382D01*
X154574985Y-100522728D01*
X154580246Y-100519575D01*
X154585790Y-100516953D01*
X154591565Y-100514886D01*
X154597515Y-100513396D01*
X154603582Y-100512496D01*
X154609708Y-100512195D01*
X154615834Y-100512496D01*
G37*
%TD.AperFunction*%
%TA.AperFunction,SMDPad,CuDef*%
G36*
X154398643Y-101404914D02*
G01*
X154392867Y-101394108D01*
X154389310Y-101382384D01*
X154388110Y-101370190D01*
X154389310Y-101357997D01*
X154392867Y-101346273D01*
X154398643Y-101335467D01*
X154406415Y-101325996D01*
X154883712Y-100848699D01*
X154893183Y-100840927D01*
X154903989Y-100835151D01*
X154915713Y-100831594D01*
X154927906Y-100830394D01*
X154940100Y-100831594D01*
X154951824Y-100835151D01*
X154962630Y-100840927D01*
X154972101Y-100848699D01*
X155060489Y-100937087D01*
X155068261Y-100946558D01*
X155074037Y-100957364D01*
X155077594Y-100969088D01*
X155078794Y-100981282D01*
X155077594Y-100993475D01*
X155074037Y-101005199D01*
X155068261Y-101016005D01*
X155060489Y-101025476D01*
X154628014Y-101457951D01*
X154618543Y-101465723D01*
X154607737Y-101471499D01*
X154596013Y-101475056D01*
X154583820Y-101476256D01*
X154494176Y-101476256D01*
X154481982Y-101475056D01*
X154470258Y-101471499D01*
X154459452Y-101465723D01*
X154449981Y-101457951D01*
X154406415Y-101414385D01*
X154398643Y-101404914D01*
G37*
%TD.AperFunction*%
%TA.AperFunction,SMDPad,CuDef*%
G36*
X154398643Y-101864533D02*
G01*
X154392867Y-101853727D01*
X154389310Y-101842003D01*
X154388110Y-101829810D01*
X154389310Y-101817616D01*
X154392867Y-101805892D01*
X154398643Y-101795086D01*
X154406415Y-101785615D01*
X154449981Y-101742049D01*
X154459452Y-101734277D01*
X154470258Y-101728501D01*
X154481982Y-101724944D01*
X154494176Y-101723744D01*
X154583820Y-101723744D01*
X154596013Y-101724944D01*
X154607737Y-101728501D01*
X154618543Y-101734277D01*
X154628014Y-101742049D01*
X155060489Y-102174524D01*
X155068261Y-102183995D01*
X155074037Y-102194801D01*
X155077594Y-102206525D01*
X155078794Y-102218718D01*
X155077594Y-102230912D01*
X155074037Y-102242636D01*
X155068261Y-102253442D01*
X155060489Y-102262913D01*
X154972101Y-102351301D01*
X154962630Y-102359073D01*
X154951824Y-102364849D01*
X154940100Y-102368406D01*
X154927906Y-102369606D01*
X154915713Y-102368406D01*
X154903989Y-102364849D01*
X154893183Y-102359073D01*
X154883712Y-102351301D01*
X154406415Y-101874004D01*
X154398643Y-101864533D01*
G37*
%TD.AperFunction*%
%TA.AperFunction,SMDPad,CuDef*%
G36*
X154226926Y-101997420D02*
G01*
X154232993Y-101998320D01*
X154238943Y-101999810D01*
X154244718Y-102001877D01*
X154250262Y-102004499D01*
X154255523Y-102007652D01*
X154260450Y-102011306D01*
X154264994Y-102015425D01*
X154742291Y-102492722D01*
X154746410Y-102497266D01*
X154750064Y-102502193D01*
X154753217Y-102507454D01*
X154755839Y-102512998D01*
X154757906Y-102518773D01*
X154759396Y-102524723D01*
X154760296Y-102530790D01*
X154760597Y-102536916D01*
X154760296Y-102543042D01*
X154759396Y-102549109D01*
X154757906Y-102555059D01*
X154755839Y-102560834D01*
X154753217Y-102566378D01*
X154750064Y-102571639D01*
X154746410Y-102576566D01*
X154742291Y-102581110D01*
X154653902Y-102669499D01*
X154649358Y-102673618D01*
X154644431Y-102677272D01*
X154639170Y-102680425D01*
X154633626Y-102683047D01*
X154627851Y-102685114D01*
X154621901Y-102686604D01*
X154615834Y-102687504D01*
X154609708Y-102687805D01*
X154603582Y-102687504D01*
X154597515Y-102686604D01*
X154591565Y-102685114D01*
X154585790Y-102683047D01*
X154580246Y-102680425D01*
X154574985Y-102677272D01*
X154570058Y-102673618D01*
X154565514Y-102669499D01*
X154088217Y-102192202D01*
X154084098Y-102187658D01*
X154080444Y-102182731D01*
X154077291Y-102177470D01*
X154074669Y-102171926D01*
X154072602Y-102166151D01*
X154071112Y-102160201D01*
X154070212Y-102154134D01*
X154069911Y-102148008D01*
X154070212Y-102141882D01*
X154071112Y-102135815D01*
X154072602Y-102129865D01*
X154074669Y-102124090D01*
X154077291Y-102118546D01*
X154080444Y-102113285D01*
X154084098Y-102108358D01*
X154088217Y-102103814D01*
X154176606Y-102015425D01*
X154181150Y-102011306D01*
X154186077Y-102007652D01*
X154191338Y-102004499D01*
X154196882Y-102001877D01*
X154202657Y-101999810D01*
X154208607Y-101998320D01*
X154214674Y-101997420D01*
X154220800Y-101997119D01*
X154226926Y-101997420D01*
G37*
%TD.AperFunction*%
%TA.AperFunction,SMDPad,CuDef*%
G36*
X153908728Y-102315618D02*
G01*
X153914795Y-102316518D01*
X153920745Y-102318008D01*
X153926520Y-102320075D01*
X153932064Y-102322697D01*
X153937325Y-102325850D01*
X153942252Y-102329504D01*
X153946796Y-102333623D01*
X154424093Y-102810920D01*
X154428212Y-102815464D01*
X154431866Y-102820391D01*
X154435019Y-102825652D01*
X154437641Y-102831196D01*
X154439708Y-102836971D01*
X154441198Y-102842921D01*
X154442098Y-102848988D01*
X154442399Y-102855114D01*
X154442098Y-102861240D01*
X154441198Y-102867307D01*
X154439708Y-102873257D01*
X154437641Y-102879032D01*
X154435019Y-102884576D01*
X154431866Y-102889837D01*
X154428212Y-102894764D01*
X154424093Y-102899308D01*
X154335704Y-102987697D01*
X154331160Y-102991816D01*
X154326233Y-102995470D01*
X154320972Y-102998623D01*
X154315428Y-103001245D01*
X154309653Y-103003312D01*
X154303703Y-103004802D01*
X154297636Y-103005702D01*
X154291510Y-103006003D01*
X154285384Y-103005702D01*
X154279317Y-103004802D01*
X154273367Y-103003312D01*
X154267592Y-103001245D01*
X154262048Y-102998623D01*
X154256787Y-102995470D01*
X154251860Y-102991816D01*
X154247316Y-102987697D01*
X153770019Y-102510400D01*
X153765900Y-102505856D01*
X153762246Y-102500929D01*
X153759093Y-102495668D01*
X153756471Y-102490124D01*
X153754404Y-102484349D01*
X153752914Y-102478399D01*
X153752014Y-102472332D01*
X153751713Y-102466206D01*
X153752014Y-102460080D01*
X153752914Y-102454013D01*
X153754404Y-102448063D01*
X153756471Y-102442288D01*
X153759093Y-102436744D01*
X153762246Y-102431483D01*
X153765900Y-102426556D01*
X153770019Y-102422012D01*
X153858408Y-102333623D01*
X153862952Y-102329504D01*
X153867879Y-102325850D01*
X153873140Y-102322697D01*
X153878684Y-102320075D01*
X153884459Y-102318008D01*
X153890409Y-102316518D01*
X153896476Y-102315618D01*
X153902602Y-102315317D01*
X153908728Y-102315618D01*
G37*
%TD.AperFunction*%
%TA.AperFunction,SMDPad,CuDef*%
G36*
X153590530Y-102633816D02*
G01*
X153596597Y-102634716D01*
X153602547Y-102636206D01*
X153608322Y-102638273D01*
X153613866Y-102640895D01*
X153619127Y-102644048D01*
X153624054Y-102647702D01*
X153628598Y-102651821D01*
X154105895Y-103129118D01*
X154110014Y-103133662D01*
X154113668Y-103138589D01*
X154116821Y-103143850D01*
X154119443Y-103149394D01*
X154121510Y-103155169D01*
X154123000Y-103161119D01*
X154123900Y-103167186D01*
X154124201Y-103173312D01*
X154123900Y-103179438D01*
X154123000Y-103185505D01*
X154121510Y-103191455D01*
X154119443Y-103197230D01*
X154116821Y-103202774D01*
X154113668Y-103208035D01*
X154110014Y-103212962D01*
X154105895Y-103217506D01*
X154017506Y-103305895D01*
X154012962Y-103310014D01*
X154008035Y-103313668D01*
X154002774Y-103316821D01*
X153997230Y-103319443D01*
X153991455Y-103321510D01*
X153985505Y-103323000D01*
X153979438Y-103323900D01*
X153973312Y-103324201D01*
X153967186Y-103323900D01*
X153961119Y-103323000D01*
X153955169Y-103321510D01*
X153949394Y-103319443D01*
X153943850Y-103316821D01*
X153938589Y-103313668D01*
X153933662Y-103310014D01*
X153929118Y-103305895D01*
X153451821Y-102828598D01*
X153447702Y-102824054D01*
X153444048Y-102819127D01*
X153440895Y-102813866D01*
X153438273Y-102808322D01*
X153436206Y-102802547D01*
X153434716Y-102796597D01*
X153433816Y-102790530D01*
X153433515Y-102784404D01*
X153433816Y-102778278D01*
X153434716Y-102772211D01*
X153436206Y-102766261D01*
X153438273Y-102760486D01*
X153440895Y-102754942D01*
X153444048Y-102749681D01*
X153447702Y-102744754D01*
X153451821Y-102740210D01*
X153540210Y-102651821D01*
X153544754Y-102647702D01*
X153549681Y-102644048D01*
X153554942Y-102640895D01*
X153560486Y-102638273D01*
X153566261Y-102636206D01*
X153572211Y-102634716D01*
X153578278Y-102633816D01*
X153584404Y-102633515D01*
X153590530Y-102633816D01*
G37*
%TD.AperFunction*%
%TA.AperFunction,SMDPad,CuDef*%
G36*
X153272332Y-102952014D02*
G01*
X153278399Y-102952914D01*
X153284349Y-102954404D01*
X153290124Y-102956471D01*
X153295668Y-102959093D01*
X153300929Y-102962246D01*
X153305856Y-102965900D01*
X153310400Y-102970019D01*
X153787697Y-103447316D01*
X153791816Y-103451860D01*
X153795470Y-103456787D01*
X153798623Y-103462048D01*
X153801245Y-103467592D01*
X153803312Y-103473367D01*
X153804802Y-103479317D01*
X153805702Y-103485384D01*
X153806003Y-103491510D01*
X153805702Y-103497636D01*
X153804802Y-103503703D01*
X153803312Y-103509653D01*
X153801245Y-103515428D01*
X153798623Y-103520972D01*
X153795470Y-103526233D01*
X153791816Y-103531160D01*
X153787697Y-103535704D01*
X153699308Y-103624093D01*
X153694764Y-103628212D01*
X153689837Y-103631866D01*
X153684576Y-103635019D01*
X153679032Y-103637641D01*
X153673257Y-103639708D01*
X153667307Y-103641198D01*
X153661240Y-103642098D01*
X153655114Y-103642399D01*
X153648988Y-103642098D01*
X153642921Y-103641198D01*
X153636971Y-103639708D01*
X153631196Y-103637641D01*
X153625652Y-103635019D01*
X153620391Y-103631866D01*
X153615464Y-103628212D01*
X153610920Y-103624093D01*
X153133623Y-103146796D01*
X153129504Y-103142252D01*
X153125850Y-103137325D01*
X153122697Y-103132064D01*
X153120075Y-103126520D01*
X153118008Y-103120745D01*
X153116518Y-103114795D01*
X153115618Y-103108728D01*
X153115317Y-103102602D01*
X153115618Y-103096476D01*
X153116518Y-103090409D01*
X153118008Y-103084459D01*
X153120075Y-103078684D01*
X153122697Y-103073140D01*
X153125850Y-103067879D01*
X153129504Y-103062952D01*
X153133623Y-103058408D01*
X153222012Y-102970019D01*
X153226556Y-102965900D01*
X153231483Y-102962246D01*
X153236744Y-102959093D01*
X153242288Y-102956471D01*
X153248063Y-102954404D01*
X153254013Y-102952914D01*
X153260080Y-102952014D01*
X153266206Y-102951713D01*
X153272332Y-102952014D01*
G37*
%TD.AperFunction*%
%TA.AperFunction,SMDPad,CuDef*%
G36*
X152954134Y-103270212D02*
G01*
X152960201Y-103271112D01*
X152966151Y-103272602D01*
X152971926Y-103274669D01*
X152977470Y-103277291D01*
X152982731Y-103280444D01*
X152987658Y-103284098D01*
X152992202Y-103288217D01*
X153469499Y-103765514D01*
X153473618Y-103770058D01*
X153477272Y-103774985D01*
X153480425Y-103780246D01*
X153483047Y-103785790D01*
X153485114Y-103791565D01*
X153486604Y-103797515D01*
X153487504Y-103803582D01*
X153487805Y-103809708D01*
X153487504Y-103815834D01*
X153486604Y-103821901D01*
X153485114Y-103827851D01*
X153483047Y-103833626D01*
X153480425Y-103839170D01*
X153477272Y-103844431D01*
X153473618Y-103849358D01*
X153469499Y-103853902D01*
X153381110Y-103942291D01*
X153376566Y-103946410D01*
X153371639Y-103950064D01*
X153366378Y-103953217D01*
X153360834Y-103955839D01*
X153355059Y-103957906D01*
X153349109Y-103959396D01*
X153343042Y-103960296D01*
X153336916Y-103960597D01*
X153330790Y-103960296D01*
X153324723Y-103959396D01*
X153318773Y-103957906D01*
X153312998Y-103955839D01*
X153307454Y-103953217D01*
X153302193Y-103950064D01*
X153297266Y-103946410D01*
X153292722Y-103942291D01*
X152815425Y-103464994D01*
X152811306Y-103460450D01*
X152807652Y-103455523D01*
X152804499Y-103450262D01*
X152801877Y-103444718D01*
X152799810Y-103438943D01*
X152798320Y-103432993D01*
X152797420Y-103426926D01*
X152797119Y-103420800D01*
X152797420Y-103414674D01*
X152798320Y-103408607D01*
X152799810Y-103402657D01*
X152801877Y-103396882D01*
X152804499Y-103391338D01*
X152807652Y-103386077D01*
X152811306Y-103381150D01*
X152815425Y-103376606D01*
X152903814Y-103288217D01*
X152908358Y-103284098D01*
X152913285Y-103280444D01*
X152918546Y-103277291D01*
X152924090Y-103274669D01*
X152929865Y-103272602D01*
X152935815Y-103271112D01*
X152941882Y-103270212D01*
X152948008Y-103269911D01*
X152954134Y-103270212D01*
G37*
%TD.AperFunction*%
%TA.AperFunction,SMDPad,CuDef*%
G36*
X152534277Y-103818543D02*
G01*
X152528501Y-103807737D01*
X152524944Y-103796013D01*
X152523744Y-103783820D01*
X152523744Y-103694176D01*
X152524944Y-103681982D01*
X152528501Y-103670258D01*
X152534277Y-103659452D01*
X152542049Y-103649981D01*
X152585615Y-103606415D01*
X152595086Y-103598643D01*
X152605892Y-103592867D01*
X152617616Y-103589310D01*
X152629810Y-103588110D01*
X152642003Y-103589310D01*
X152653727Y-103592867D01*
X152664533Y-103598643D01*
X152674004Y-103606415D01*
X153151301Y-104083712D01*
X153159073Y-104093183D01*
X153164849Y-104103989D01*
X153168406Y-104115713D01*
X153169606Y-104127906D01*
X153168406Y-104140100D01*
X153164849Y-104151824D01*
X153159073Y-104162630D01*
X153151301Y-104172101D01*
X153062913Y-104260489D01*
X153053442Y-104268261D01*
X153042636Y-104274037D01*
X153030912Y-104277594D01*
X153018718Y-104278794D01*
X153006525Y-104277594D01*
X152994801Y-104274037D01*
X152983995Y-104268261D01*
X152974524Y-104260489D01*
X152542049Y-103828014D01*
X152534277Y-103818543D01*
G37*
%TD.AperFunction*%
%TA.AperFunction,SMDPad,CuDef*%
G36*
X152424504Y-100007701D02*
G01*
X152448773Y-100011301D01*
X152472571Y-100017262D01*
X152495671Y-100025527D01*
X152517849Y-100036017D01*
X152538893Y-100048630D01*
X152558598Y-100063244D01*
X152576777Y-100079720D01*
X153920280Y-101423223D01*
X153936756Y-101441402D01*
X153951370Y-101461107D01*
X153963983Y-101482151D01*
X153974473Y-101504329D01*
X153982738Y-101527429D01*
X153988699Y-101551227D01*
X153992299Y-101575496D01*
X153993503Y-101600000D01*
X153992299Y-101624504D01*
X153988699Y-101648773D01*
X153982738Y-101672571D01*
X153974473Y-101695671D01*
X153963983Y-101717849D01*
X153951370Y-101738893D01*
X153936756Y-101758598D01*
X153920280Y-101776777D01*
X152576777Y-103120280D01*
X152558598Y-103136756D01*
X152538893Y-103151370D01*
X152517849Y-103163983D01*
X152495671Y-103174473D01*
X152472571Y-103182738D01*
X152448773Y-103188699D01*
X152424504Y-103192299D01*
X152400000Y-103193503D01*
X152375496Y-103192299D01*
X152351227Y-103188699D01*
X152327429Y-103182738D01*
X152304329Y-103174473D01*
X152282151Y-103163983D01*
X152261107Y-103151370D01*
X152241402Y-103136756D01*
X152223223Y-103120280D01*
X150879720Y-101776777D01*
X150863244Y-101758598D01*
X150848630Y-101738893D01*
X150836017Y-101717849D01*
X150825527Y-101695671D01*
X150817262Y-101672571D01*
X150811301Y-101648773D01*
X150807701Y-101624504D01*
X150806497Y-101600000D01*
X150807701Y-101575496D01*
X150811301Y-101551227D01*
X150817262Y-101527429D01*
X150825527Y-101504329D01*
X150836017Y-101482151D01*
X150848630Y-101461107D01*
X150863244Y-101441402D01*
X150879720Y-101423223D01*
X152223223Y-100079720D01*
X152241402Y-100063244D01*
X152261107Y-100048630D01*
X152282151Y-100036017D01*
X152304329Y-100025527D01*
X152327429Y-100017262D01*
X152351227Y-100011301D01*
X152375496Y-100007701D01*
X152400000Y-100006497D01*
X152424504Y-100007701D01*
G37*
%TD.AperFunction*%
%TA.AperFunction,SMDPad,CuDef*%
G36*
X152005191Y-91601053D02*
G01*
X152026426Y-91604203D01*
X152047250Y-91609419D01*
X152067462Y-91616651D01*
X152086868Y-91625830D01*
X152105281Y-91636866D01*
X152122524Y-91649654D01*
X152138430Y-91664070D01*
X152152846Y-91679976D01*
X152165634Y-91697219D01*
X152176670Y-91715632D01*
X152185849Y-91735038D01*
X152193081Y-91755250D01*
X152198297Y-91776074D01*
X152201447Y-91797309D01*
X152202500Y-91818750D01*
X152202500Y-92331250D01*
X152201447Y-92352691D01*
X152198297Y-92373926D01*
X152193081Y-92394750D01*
X152185849Y-92414962D01*
X152176670Y-92434368D01*
X152165634Y-92452781D01*
X152152846Y-92470024D01*
X152138430Y-92485930D01*
X152122524Y-92500346D01*
X152105281Y-92513134D01*
X152086868Y-92524170D01*
X152067462Y-92533349D01*
X152047250Y-92540581D01*
X152026426Y-92545797D01*
X152005191Y-92548947D01*
X151983750Y-92550000D01*
X151546250Y-92550000D01*
X151524809Y-92548947D01*
X151503574Y-92545797D01*
X151482750Y-92540581D01*
X151462538Y-92533349D01*
X151443132Y-92524170D01*
X151424719Y-92513134D01*
X151407476Y-92500346D01*
X151391570Y-92485930D01*
X151377154Y-92470024D01*
X151364366Y-92452781D01*
X151353330Y-92434368D01*
X151344151Y-92414962D01*
X151336919Y-92394750D01*
X151331703Y-92373926D01*
X151328553Y-92352691D01*
X151327500Y-92331250D01*
X151327500Y-91818750D01*
X151328553Y-91797309D01*
X151331703Y-91776074D01*
X151336919Y-91755250D01*
X151344151Y-91735038D01*
X151353330Y-91715632D01*
X151364366Y-91697219D01*
X151377154Y-91679976D01*
X151391570Y-91664070D01*
X151407476Y-91649654D01*
X151424719Y-91636866D01*
X151443132Y-91625830D01*
X151462538Y-91616651D01*
X151482750Y-91609419D01*
X151503574Y-91604203D01*
X151524809Y-91601053D01*
X151546250Y-91600000D01*
X151983750Y-91600000D01*
X152005191Y-91601053D01*
G37*
%TD.AperFunction*%
%TA.AperFunction,SMDPad,CuDef*%
G36*
X153580191Y-91601053D02*
G01*
X153601426Y-91604203D01*
X153622250Y-91609419D01*
X153642462Y-91616651D01*
X153661868Y-91625830D01*
X153680281Y-91636866D01*
X153697524Y-91649654D01*
X153713430Y-91664070D01*
X153727846Y-91679976D01*
X153740634Y-91697219D01*
X153751670Y-91715632D01*
X153760849Y-91735038D01*
X153768081Y-91755250D01*
X153773297Y-91776074D01*
X153776447Y-91797309D01*
X153777500Y-91818750D01*
X153777500Y-92331250D01*
X153776447Y-92352691D01*
X153773297Y-92373926D01*
X153768081Y-92394750D01*
X153760849Y-92414962D01*
X153751670Y-92434368D01*
X153740634Y-92452781D01*
X153727846Y-92470024D01*
X153713430Y-92485930D01*
X153697524Y-92500346D01*
X153680281Y-92513134D01*
X153661868Y-92524170D01*
X153642462Y-92533349D01*
X153622250Y-92540581D01*
X153601426Y-92545797D01*
X153580191Y-92548947D01*
X153558750Y-92550000D01*
X153121250Y-92550000D01*
X153099809Y-92548947D01*
X153078574Y-92545797D01*
X153057750Y-92540581D01*
X153037538Y-92533349D01*
X153018132Y-92524170D01*
X152999719Y-92513134D01*
X152982476Y-92500346D01*
X152966570Y-92485930D01*
X152952154Y-92470024D01*
X152939366Y-92452781D01*
X152928330Y-92434368D01*
X152919151Y-92414962D01*
X152911919Y-92394750D01*
X152906703Y-92373926D01*
X152903553Y-92352691D01*
X152902500Y-92331250D01*
X152902500Y-91818750D01*
X152903553Y-91797309D01*
X152906703Y-91776074D01*
X152911919Y-91755250D01*
X152919151Y-91735038D01*
X152928330Y-91715632D01*
X152939366Y-91697219D01*
X152952154Y-91679976D01*
X152966570Y-91664070D01*
X152982476Y-91649654D01*
X152999719Y-91636866D01*
X153018132Y-91625830D01*
X153037538Y-91616651D01*
X153057750Y-91609419D01*
X153078574Y-91604203D01*
X153099809Y-91601053D01*
X153121250Y-91600000D01*
X153558750Y-91600000D01*
X153580191Y-91601053D01*
G37*
%TD.AperFunction*%
D12*
X147320000Y-102870000D03*
D13*
X147320000Y-100330000D03*
D12*
X158750000Y-107950000D03*
X156210000Y-107950000D03*
X153670000Y-107950000D03*
X151130000Y-107950000D03*
X148590000Y-107950000D03*
D13*
X146050000Y-107950000D03*
D12*
X158750000Y-90170000D03*
X156210000Y-90170000D03*
X153670000Y-90170000D03*
X151130000Y-90170000D03*
X148590000Y-90170000D03*
D13*
X146050000Y-90170000D03*
D12*
X149860000Y-96520000D03*
X149860000Y-93980000D03*
X152400000Y-96520000D03*
X152400000Y-93980000D03*
X154940000Y-96520000D03*
D13*
X154940000Y-93980000D03*
%TA.AperFunction,SMDPad,CuDef*%
D11*
G36*
X154934924Y-103586427D02*
G01*
X154956159Y-103589577D01*
X154976983Y-103594793D01*
X154997195Y-103602025D01*
X155016601Y-103611204D01*
X155035014Y-103622240D01*
X155052257Y-103635028D01*
X155068163Y-103649444D01*
X155430556Y-104011837D01*
X155444972Y-104027743D01*
X155457760Y-104044986D01*
X155468796Y-104063399D01*
X155477975Y-104082805D01*
X155485207Y-104103017D01*
X155490423Y-104123841D01*
X155493573Y-104145076D01*
X155494626Y-104166517D01*
X155493573Y-104187958D01*
X155490423Y-104209193D01*
X155485207Y-104230017D01*
X155477975Y-104250229D01*
X155468796Y-104269635D01*
X155457760Y-104288048D01*
X155444972Y-104305291D01*
X155430556Y-104321197D01*
X155121197Y-104630556D01*
X155105291Y-104644972D01*
X155088048Y-104657760D01*
X155069635Y-104668796D01*
X155050229Y-104677975D01*
X155030017Y-104685207D01*
X155009193Y-104690423D01*
X154987958Y-104693573D01*
X154966517Y-104694626D01*
X154945076Y-104693573D01*
X154923841Y-104690423D01*
X154903017Y-104685207D01*
X154882805Y-104677975D01*
X154863399Y-104668796D01*
X154844986Y-104657760D01*
X154827743Y-104644972D01*
X154811837Y-104630556D01*
X154449444Y-104268163D01*
X154435028Y-104252257D01*
X154422240Y-104235014D01*
X154411204Y-104216601D01*
X154402025Y-104197195D01*
X154394793Y-104176983D01*
X154389577Y-104156159D01*
X154386427Y-104134924D01*
X154385374Y-104113483D01*
X154386427Y-104092042D01*
X154389577Y-104070807D01*
X154394793Y-104049983D01*
X154402025Y-104029771D01*
X154411204Y-104010365D01*
X154422240Y-103991952D01*
X154435028Y-103974709D01*
X154449444Y-103958803D01*
X154758803Y-103649444D01*
X154774709Y-103635028D01*
X154791952Y-103622240D01*
X154810365Y-103611204D01*
X154829771Y-103602025D01*
X154849983Y-103594793D01*
X154870807Y-103589577D01*
X154892042Y-103586427D01*
X154913483Y-103585374D01*
X154934924Y-103586427D01*
G37*
%TD.AperFunction*%
%TA.AperFunction,SMDPad,CuDef*%
G36*
X153821230Y-104700121D02*
G01*
X153842465Y-104703271D01*
X153863289Y-104708487D01*
X153883501Y-104715719D01*
X153902907Y-104724898D01*
X153921320Y-104735934D01*
X153938563Y-104748722D01*
X153954469Y-104763138D01*
X154316862Y-105125531D01*
X154331278Y-105141437D01*
X154344066Y-105158680D01*
X154355102Y-105177093D01*
X154364281Y-105196499D01*
X154371513Y-105216711D01*
X154376729Y-105237535D01*
X154379879Y-105258770D01*
X154380932Y-105280211D01*
X154379879Y-105301652D01*
X154376729Y-105322887D01*
X154371513Y-105343711D01*
X154364281Y-105363923D01*
X154355102Y-105383329D01*
X154344066Y-105401742D01*
X154331278Y-105418985D01*
X154316862Y-105434891D01*
X154007503Y-105744250D01*
X153991597Y-105758666D01*
X153974354Y-105771454D01*
X153955941Y-105782490D01*
X153936535Y-105791669D01*
X153916323Y-105798901D01*
X153895499Y-105804117D01*
X153874264Y-105807267D01*
X153852823Y-105808320D01*
X153831382Y-105807267D01*
X153810147Y-105804117D01*
X153789323Y-105798901D01*
X153769111Y-105791669D01*
X153749705Y-105782490D01*
X153731292Y-105771454D01*
X153714049Y-105758666D01*
X153698143Y-105744250D01*
X153335750Y-105381857D01*
X153321334Y-105365951D01*
X153308546Y-105348708D01*
X153297510Y-105330295D01*
X153288331Y-105310889D01*
X153281099Y-105290677D01*
X153275883Y-105269853D01*
X153272733Y-105248618D01*
X153271680Y-105227177D01*
X153272733Y-105205736D01*
X153275883Y-105184501D01*
X153281099Y-105163677D01*
X153288331Y-105143465D01*
X153297510Y-105124059D01*
X153308546Y-105105646D01*
X153321334Y-105088403D01*
X153335750Y-105072497D01*
X153645109Y-104763138D01*
X153661015Y-104748722D01*
X153678258Y-104735934D01*
X153696671Y-104724898D01*
X153716077Y-104715719D01*
X153736289Y-104708487D01*
X153757113Y-104703271D01*
X153778348Y-104700121D01*
X153799789Y-104699068D01*
X153821230Y-104700121D01*
G37*
%TD.AperFunction*%
%TA.AperFunction,SMDPad,CuDef*%
G36*
X158660191Y-100491053D02*
G01*
X158681426Y-100494203D01*
X158702250Y-100499419D01*
X158722462Y-100506651D01*
X158741868Y-100515830D01*
X158760281Y-100526866D01*
X158777524Y-100539654D01*
X158793430Y-100554070D01*
X158807846Y-100569976D01*
X158820634Y-100587219D01*
X158831670Y-100605632D01*
X158840849Y-100625038D01*
X158848081Y-100645250D01*
X158853297Y-100666074D01*
X158856447Y-100687309D01*
X158857500Y-100708750D01*
X158857500Y-101221250D01*
X158856447Y-101242691D01*
X158853297Y-101263926D01*
X158848081Y-101284750D01*
X158840849Y-101304962D01*
X158831670Y-101324368D01*
X158820634Y-101342781D01*
X158807846Y-101360024D01*
X158793430Y-101375930D01*
X158777524Y-101390346D01*
X158760281Y-101403134D01*
X158741868Y-101414170D01*
X158722462Y-101423349D01*
X158702250Y-101430581D01*
X158681426Y-101435797D01*
X158660191Y-101438947D01*
X158638750Y-101440000D01*
X158201250Y-101440000D01*
X158179809Y-101438947D01*
X158158574Y-101435797D01*
X158137750Y-101430581D01*
X158117538Y-101423349D01*
X158098132Y-101414170D01*
X158079719Y-101403134D01*
X158062476Y-101390346D01*
X158046570Y-101375930D01*
X158032154Y-101360024D01*
X158019366Y-101342781D01*
X158008330Y-101324368D01*
X157999151Y-101304962D01*
X157991919Y-101284750D01*
X157986703Y-101263926D01*
X157983553Y-101242691D01*
X157982500Y-101221250D01*
X157982500Y-100708750D01*
X157983553Y-100687309D01*
X157986703Y-100666074D01*
X157991919Y-100645250D01*
X157999151Y-100625038D01*
X158008330Y-100605632D01*
X158019366Y-100587219D01*
X158032154Y-100569976D01*
X158046570Y-100554070D01*
X158062476Y-100539654D01*
X158079719Y-100526866D01*
X158098132Y-100515830D01*
X158117538Y-100506651D01*
X158137750Y-100499419D01*
X158158574Y-100494203D01*
X158179809Y-100491053D01*
X158201250Y-100490000D01*
X158638750Y-100490000D01*
X158660191Y-100491053D01*
G37*
%TD.AperFunction*%
%TA.AperFunction,SMDPad,CuDef*%
G36*
X157085191Y-100491053D02*
G01*
X157106426Y-100494203D01*
X157127250Y-100499419D01*
X157147462Y-100506651D01*
X157166868Y-100515830D01*
X157185281Y-100526866D01*
X157202524Y-100539654D01*
X157218430Y-100554070D01*
X157232846Y-100569976D01*
X157245634Y-100587219D01*
X157256670Y-100605632D01*
X157265849Y-100625038D01*
X157273081Y-100645250D01*
X157278297Y-100666074D01*
X157281447Y-100687309D01*
X157282500Y-100708750D01*
X157282500Y-101221250D01*
X157281447Y-101242691D01*
X157278297Y-101263926D01*
X157273081Y-101284750D01*
X157265849Y-101304962D01*
X157256670Y-101324368D01*
X157245634Y-101342781D01*
X157232846Y-101360024D01*
X157218430Y-101375930D01*
X157202524Y-101390346D01*
X157185281Y-101403134D01*
X157166868Y-101414170D01*
X157147462Y-101423349D01*
X157127250Y-101430581D01*
X157106426Y-101435797D01*
X157085191Y-101438947D01*
X157063750Y-101440000D01*
X156626250Y-101440000D01*
X156604809Y-101438947D01*
X156583574Y-101435797D01*
X156562750Y-101430581D01*
X156542538Y-101423349D01*
X156523132Y-101414170D01*
X156504719Y-101403134D01*
X156487476Y-101390346D01*
X156471570Y-101375930D01*
X156457154Y-101360024D01*
X156444366Y-101342781D01*
X156433330Y-101324368D01*
X156424151Y-101304962D01*
X156416919Y-101284750D01*
X156411703Y-101263926D01*
X156408553Y-101242691D01*
X156407500Y-101221250D01*
X156407500Y-100708750D01*
X156408553Y-100687309D01*
X156411703Y-100666074D01*
X156416919Y-100645250D01*
X156424151Y-100625038D01*
X156433330Y-100605632D01*
X156444366Y-100587219D01*
X156457154Y-100569976D01*
X156471570Y-100554070D01*
X156487476Y-100539654D01*
X156504719Y-100526866D01*
X156523132Y-100515830D01*
X156542538Y-100506651D01*
X156562750Y-100499419D01*
X156583574Y-100494203D01*
X156604809Y-100491053D01*
X156626250Y-100490000D01*
X157063750Y-100490000D01*
X157085191Y-100491053D01*
G37*
%TD.AperFunction*%
D14*
X152400000Y-105253694D03*
X153340000Y-92075000D03*
X156845000Y-98425000D03*
X150876000Y-98806000D03*
X155575000Y-102870000D03*
D15*
X153778858Y-102978858D02*
X154940000Y-104140000D01*
X149860000Y-99060000D02*
X149860000Y-96520000D01*
X151021142Y-100221142D02*
X149860000Y-99060000D01*
X151021142Y-100221142D02*
X152400000Y-101600000D01*
X153778858Y-102978858D02*
X152400000Y-101600000D01*
X156845000Y-100965000D02*
X156845000Y-102870000D01*
X153826306Y-103662702D02*
X153826306Y-105253694D01*
X153460660Y-103297056D02*
X153826306Y-103662702D01*
X153826306Y-105253694D02*
X152400000Y-105253694D01*
X156845000Y-100965000D02*
X156845000Y-98425000D01*
X151654746Y-99584746D02*
X150876000Y-98806000D01*
X151657538Y-99584746D02*
X151654746Y-99584746D01*
D16*
X149010001Y-94829999D02*
X149860000Y-93980000D01*
X150803487Y-103196513D02*
X150186513Y-103196513D01*
X151021142Y-102978858D02*
X150803487Y-103196513D01*
X150186513Y-103196513D02*
X148590000Y-101600000D01*
X148590000Y-101600000D02*
X148590000Y-95250000D01*
X148590000Y-95250000D02*
X149010001Y-94829999D01*
X151765000Y-92075000D02*
X149860000Y-93980000D01*
X153145254Y-99584746D02*
X153142462Y-99584746D01*
X153670000Y-99060000D02*
X153145254Y-99584746D01*
X152400000Y-96520000D02*
X153670000Y-97790000D01*
X153670000Y-97790000D02*
X153670000Y-99060000D01*
X151975736Y-98889736D02*
X151975736Y-99266548D01*
X151003000Y-97917000D02*
X151975736Y-98889736D01*
X152400000Y-93980000D02*
X151003000Y-95377000D01*
X151003000Y-95377000D02*
X151003000Y-97917000D01*
X152824264Y-99266548D02*
X151257000Y-97699284D01*
X151257000Y-97699284D02*
X151257000Y-96004029D01*
X153670000Y-95250000D02*
X154940000Y-93980000D01*
X151257000Y-96004029D02*
X152011029Y-95250000D01*
X152011029Y-95250000D02*
X153670000Y-95250000D01*
D15*
X154935000Y-106680000D02*
X156845000Y-104770000D01*
X151130000Y-107950000D02*
X152400000Y-106680000D01*
X152400000Y-106680000D02*
X154935000Y-106680000D01*
D16*
X148169999Y-103719999D02*
X147320000Y-102870000D01*
X148282909Y-103832909D02*
X148169999Y-103719999D01*
X151657538Y-103615254D02*
X151439883Y-103832909D01*
X151439883Y-103832909D02*
X148282909Y-103832909D01*
X147320000Y-100690000D02*
X147320000Y-100330000D01*
X150144711Y-103514711D02*
X147320000Y-100690000D01*
X151339340Y-103297056D02*
X151121685Y-103514711D01*
X151121685Y-103514711D02*
X150144711Y-103514711D01*
D15*
X156845000Y-97155000D02*
X153778858Y-100221142D01*
X156210000Y-90170000D02*
X156845000Y-90805000D01*
X156845000Y-90805000D02*
X156845000Y-97155000D01*
X154519999Y-91019999D02*
X153670000Y-90170000D01*
X153460660Y-99902944D02*
X156210000Y-97153604D01*
X156210000Y-92710000D02*
X154519999Y-91019999D01*
X156210000Y-97153604D02*
X156210000Y-92710000D01*
X146470001Y-102020001D02*
X147320000Y-102870000D01*
X146050000Y-101600000D02*
X146470001Y-102020001D01*
X148590000Y-90170000D02*
X146050000Y-92710000D01*
X146050000Y-92710000D02*
X146050000Y-101600000D01*
X148807716Y-107950000D02*
X148590000Y-107950000D01*
X152824264Y-103933452D02*
X148807716Y-107950000D01*
X155360001Y-108799999D02*
X156210000Y-107950000D01*
X154940000Y-109220000D02*
X155360001Y-108799999D01*
X148590000Y-107950000D02*
X149860000Y-109220000D01*
X149860000Y-109220000D02*
X154940000Y-109220000D01*
X154942792Y-102870000D02*
X154415254Y-102342462D01*
X155575000Y-102870000D02*
X154942792Y-102870000D01*
D17*
G36*
X159614001Y-109051828D02*
G01*
X153501831Y-115164000D01*
X151298171Y-115164000D01*
X145186000Y-109051831D01*
X145186000Y-92710000D01*
X145541553Y-92710000D01*
X145544000Y-92734846D01*
X145544001Y-101575144D01*
X145541553Y-101600000D01*
X145551322Y-101699192D01*
X145580255Y-101794574D01*
X145589187Y-101811284D01*
X145627242Y-101882479D01*
X145690474Y-101959527D01*
X145709780Y-101975371D01*
X146129779Y-102395371D01*
X146129784Y-102395375D01*
X146168242Y-102433833D01*
X146136307Y-102510931D01*
X146089000Y-102748757D01*
X146089000Y-102991243D01*
X146136307Y-103229069D01*
X146229102Y-103453097D01*
X146363820Y-103654717D01*
X146535283Y-103826180D01*
X146736903Y-103960898D01*
X146960931Y-104053693D01*
X147198757Y-104101000D01*
X147441243Y-104101000D01*
X147679069Y-104053693D01*
X147817666Y-103996284D01*
X147871126Y-104049744D01*
X147871132Y-104049749D01*
X147953162Y-104131779D01*
X147967080Y-104148738D01*
X148034764Y-104204285D01*
X148111983Y-104245560D01*
X148195772Y-104270977D01*
X148261079Y-104277409D01*
X148261089Y-104277409D01*
X148282909Y-104279558D01*
X148304729Y-104277409D01*
X151232546Y-104277409D01*
X151286788Y-104306402D01*
X151297515Y-104332297D01*
X151303291Y-104343103D01*
X151344975Y-104405491D01*
X151352747Y-104414962D01*
X151377988Y-104442812D01*
X151466376Y-104531200D01*
X151489745Y-104552380D01*
X149179047Y-106863078D01*
X149173097Y-106859102D01*
X148949069Y-106766307D01*
X148711243Y-106719000D01*
X148468757Y-106719000D01*
X148230931Y-106766307D01*
X148006903Y-106859102D01*
X147805283Y-106993820D01*
X147633820Y-107165283D01*
X147499102Y-107366903D01*
X147406307Y-107590931D01*
X147359000Y-107828757D01*
X147359000Y-108071243D01*
X147406307Y-108309069D01*
X147499102Y-108533097D01*
X147633820Y-108734717D01*
X147805283Y-108906180D01*
X148006903Y-109040898D01*
X148230931Y-109133693D01*
X148468757Y-109181000D01*
X148711243Y-109181000D01*
X148949069Y-109133693D01*
X149026167Y-109101758D01*
X149484628Y-109560220D01*
X149500473Y-109579527D01*
X149577521Y-109642759D01*
X149665425Y-109689745D01*
X149760806Y-109718678D01*
X149770694Y-109719652D01*
X149835146Y-109726000D01*
X149835153Y-109726000D01*
X149859999Y-109728447D01*
X149884845Y-109726000D01*
X154915154Y-109726000D01*
X154940000Y-109728447D01*
X154964846Y-109726000D01*
X154964854Y-109726000D01*
X155039193Y-109718678D01*
X155134575Y-109689745D01*
X155222479Y-109642759D01*
X155299527Y-109579527D01*
X155315376Y-109560215D01*
X155735371Y-109140221D01*
X155735375Y-109140216D01*
X155773833Y-109101758D01*
X155850931Y-109133693D01*
X156088757Y-109181000D01*
X156331243Y-109181000D01*
X156569069Y-109133693D01*
X156793097Y-109040898D01*
X156994717Y-108906180D01*
X157166180Y-108734717D01*
X157300898Y-108533097D01*
X157393693Y-108309069D01*
X157441000Y-108071243D01*
X157441000Y-107828757D01*
X157393693Y-107590931D01*
X157300898Y-107366903D01*
X157166180Y-107165283D01*
X156994717Y-106993820D01*
X156793097Y-106859102D01*
X156569069Y-106766307D01*
X156331243Y-106719000D01*
X156088757Y-106719000D01*
X155850931Y-106766307D01*
X155626903Y-106859102D01*
X155425283Y-106993820D01*
X155253820Y-107165283D01*
X155119102Y-107366903D01*
X155026307Y-107590931D01*
X154979000Y-107828757D01*
X154979000Y-108071243D01*
X155026307Y-108309069D01*
X155058242Y-108386167D01*
X155019784Y-108424625D01*
X155019779Y-108424629D01*
X154730409Y-108714000D01*
X154640023Y-108714000D01*
X154760898Y-108533097D01*
X154853693Y-108309069D01*
X154901000Y-108071243D01*
X154901000Y-107828757D01*
X154853693Y-107590931D01*
X154760898Y-107366903D01*
X154640023Y-107186000D01*
X154910154Y-107186000D01*
X154935000Y-107188447D01*
X154959846Y-107186000D01*
X154959854Y-107186000D01*
X155034193Y-107178678D01*
X155129575Y-107149745D01*
X155217479Y-107102759D01*
X155294527Y-107039527D01*
X155310376Y-107020215D01*
X156777749Y-105552843D01*
X157295000Y-105552843D01*
X157369689Y-105545487D01*
X157441508Y-105523701D01*
X157507696Y-105488322D01*
X157565711Y-105440711D01*
X157613322Y-105382696D01*
X157648701Y-105316508D01*
X157670487Y-105244689D01*
X157677843Y-105170000D01*
X157677843Y-104370000D01*
X157670487Y-104295311D01*
X157648701Y-104223492D01*
X157613322Y-104157304D01*
X157565711Y-104099289D01*
X157507696Y-104051678D01*
X157441508Y-104016299D01*
X157369689Y-103994513D01*
X157295000Y-103987157D01*
X156395000Y-103987157D01*
X156320311Y-103994513D01*
X156248492Y-104016299D01*
X156182304Y-104051678D01*
X156124289Y-104099289D01*
X156076678Y-104157304D01*
X156041299Y-104223492D01*
X156019513Y-104295311D01*
X156012157Y-104370000D01*
X156012157Y-104887251D01*
X154725409Y-106174000D01*
X153988661Y-106174000D01*
X154083043Y-106145369D01*
X154187050Y-106089776D01*
X154278213Y-106014960D01*
X154587572Y-105705601D01*
X154662388Y-105614438D01*
X154717981Y-105510431D01*
X154752216Y-105397576D01*
X154763775Y-105280211D01*
X154752216Y-105162846D01*
X154717981Y-105049991D01*
X154662388Y-104945984D01*
X154587572Y-104854821D01*
X154332306Y-104599555D01*
X154332306Y-103687556D01*
X154334754Y-103662702D01*
X154324984Y-103563509D01*
X154296051Y-103468127D01*
X154283506Y-103444658D01*
X154251572Y-103384912D01*
X154291510Y-103388846D01*
X154378392Y-103380289D01*
X154461935Y-103354946D01*
X154538929Y-103313792D01*
X154606415Y-103258408D01*
X154611843Y-103252980D01*
X154660313Y-103292759D01*
X154748217Y-103339745D01*
X154821399Y-103361944D01*
X154843598Y-103368678D01*
X154853486Y-103369652D01*
X154917938Y-103376000D01*
X154917945Y-103376000D01*
X154942791Y-103378447D01*
X154967637Y-103376000D01*
X155117921Y-103376000D01*
X155140888Y-103398967D01*
X155252426Y-103473494D01*
X155376360Y-103524829D01*
X155507927Y-103551000D01*
X155642073Y-103551000D01*
X155773640Y-103524829D01*
X155897574Y-103473494D01*
X156009112Y-103398967D01*
X156029725Y-103378354D01*
X156041299Y-103416508D01*
X156076678Y-103482696D01*
X156124289Y-103540711D01*
X156182304Y-103588322D01*
X156248492Y-103623701D01*
X156320311Y-103645487D01*
X156395000Y-103652843D01*
X157295000Y-103652843D01*
X157369689Y-103645487D01*
X157441508Y-103623701D01*
X157507696Y-103588322D01*
X157565711Y-103540711D01*
X157613322Y-103482696D01*
X157648701Y-103416508D01*
X157670487Y-103344689D01*
X157677843Y-103270000D01*
X157677843Y-102470000D01*
X157670487Y-102395311D01*
X157648701Y-102323492D01*
X157613322Y-102257304D01*
X157565711Y-102199289D01*
X157507696Y-102151678D01*
X157441508Y-102116299D01*
X157369689Y-102094513D01*
X157351000Y-102092672D01*
X157351000Y-101746566D01*
X157397977Y-101721456D01*
X157489140Y-101646640D01*
X157563956Y-101555477D01*
X157619549Y-101451470D01*
X157653784Y-101338615D01*
X157665343Y-101221250D01*
X157665343Y-100708750D01*
X157653784Y-100591385D01*
X157619549Y-100478530D01*
X157563956Y-100374523D01*
X157489140Y-100283360D01*
X157397977Y-100208544D01*
X157351000Y-100183434D01*
X157351000Y-98882079D01*
X157373967Y-98859112D01*
X157448494Y-98747574D01*
X157499829Y-98623640D01*
X157526000Y-98492073D01*
X157526000Y-98357927D01*
X157499829Y-98226360D01*
X157448494Y-98102426D01*
X157373967Y-97990888D01*
X157279112Y-97896033D01*
X157167574Y-97821506D01*
X157043640Y-97770171D01*
X156961717Y-97753875D01*
X157185220Y-97530372D01*
X157204527Y-97514527D01*
X157267759Y-97437479D01*
X157314745Y-97349575D01*
X157343678Y-97254193D01*
X157351000Y-97179854D01*
X157353448Y-97155000D01*
X157351000Y-97130146D01*
X157351000Y-90829854D01*
X157353448Y-90805000D01*
X157343678Y-90705807D01*
X157333874Y-90673486D01*
X157393693Y-90529069D01*
X157441000Y-90291243D01*
X157441000Y-90048757D01*
X157393693Y-89810931D01*
X157300898Y-89586903D01*
X157166180Y-89385283D01*
X156994717Y-89213820D01*
X156793097Y-89079102D01*
X156569069Y-88986307D01*
X156331243Y-88939000D01*
X156088757Y-88939000D01*
X155850931Y-88986307D01*
X155626903Y-89079102D01*
X155425283Y-89213820D01*
X155253820Y-89385283D01*
X155119102Y-89586903D01*
X155026307Y-89810931D01*
X154979000Y-90048757D01*
X154979000Y-90291243D01*
X155026307Y-90529069D01*
X155119102Y-90753097D01*
X155253820Y-90954717D01*
X155425283Y-91126180D01*
X155626903Y-91260898D01*
X155850931Y-91353693D01*
X156088757Y-91401000D01*
X156331243Y-91401000D01*
X156339000Y-91399457D01*
X156339000Y-92123408D01*
X154895373Y-90679782D01*
X154895369Y-90679777D01*
X154821758Y-90606166D01*
X154853693Y-90529069D01*
X154901000Y-90291243D01*
X154901000Y-90048757D01*
X154853693Y-89810931D01*
X154760898Y-89586903D01*
X154626180Y-89385283D01*
X154454717Y-89213820D01*
X154253097Y-89079102D01*
X154029069Y-88986307D01*
X153791243Y-88939000D01*
X153548757Y-88939000D01*
X153310931Y-88986307D01*
X153086903Y-89079102D01*
X152885283Y-89213820D01*
X152713820Y-89385283D01*
X152579102Y-89586903D01*
X152486307Y-89810931D01*
X152439000Y-90048757D01*
X152439000Y-90291243D01*
X152486307Y-90529069D01*
X152579102Y-90753097D01*
X152713820Y-90954717D01*
X152885283Y-91126180D01*
X153034262Y-91225724D01*
X153003885Y-91228716D01*
X152891030Y-91262951D01*
X152787023Y-91318544D01*
X152695860Y-91393360D01*
X152621044Y-91484523D01*
X152565451Y-91588530D01*
X152552500Y-91631223D01*
X152539549Y-91588530D01*
X152483956Y-91484523D01*
X152409140Y-91393360D01*
X152317977Y-91318544D01*
X152213970Y-91262951D01*
X152101115Y-91228716D01*
X151983750Y-91217157D01*
X151778560Y-91217157D01*
X151914717Y-91126180D01*
X152086180Y-90954717D01*
X152220898Y-90753097D01*
X152313693Y-90529069D01*
X152361000Y-90291243D01*
X152361000Y-90048757D01*
X152313693Y-89810931D01*
X152220898Y-89586903D01*
X152086180Y-89385283D01*
X151914717Y-89213820D01*
X151713097Y-89079102D01*
X151489069Y-88986307D01*
X151251243Y-88939000D01*
X151008757Y-88939000D01*
X150770931Y-88986307D01*
X150546903Y-89079102D01*
X150345283Y-89213820D01*
X150173820Y-89385283D01*
X150039102Y-89586903D01*
X149946307Y-89810931D01*
X149899000Y-90048757D01*
X149899000Y-90291243D01*
X149946307Y-90529069D01*
X150039102Y-90753097D01*
X150173820Y-90954717D01*
X150345283Y-91126180D01*
X150546903Y-91260898D01*
X150770931Y-91353693D01*
X151008757Y-91401000D01*
X151114590Y-91401000D01*
X151046044Y-91484523D01*
X150990451Y-91588530D01*
X150956216Y-91701385D01*
X150944657Y-91818750D01*
X150944657Y-92266725D01*
X150357667Y-92853716D01*
X150219069Y-92796307D01*
X149981243Y-92749000D01*
X149738757Y-92749000D01*
X149500931Y-92796307D01*
X149276903Y-92889102D01*
X149075283Y-93023820D01*
X148903820Y-93195283D01*
X148769102Y-93396903D01*
X148676307Y-93620931D01*
X148629000Y-93858757D01*
X148629000Y-94101243D01*
X148676307Y-94339069D01*
X148733716Y-94477667D01*
X148711133Y-94500250D01*
X148711128Y-94500254D01*
X148291125Y-94920258D01*
X148274172Y-94934171D01*
X148260259Y-94951124D01*
X148260255Y-94951128D01*
X148218624Y-95001855D01*
X148177349Y-95079075D01*
X148151933Y-95162863D01*
X148143351Y-95250000D01*
X148145501Y-95271830D01*
X148145500Y-99097157D01*
X146556000Y-99097157D01*
X146556000Y-92919591D01*
X148153833Y-91321758D01*
X148230931Y-91353693D01*
X148468757Y-91401000D01*
X148711243Y-91401000D01*
X148949069Y-91353693D01*
X149173097Y-91260898D01*
X149374717Y-91126180D01*
X149546180Y-90954717D01*
X149680898Y-90753097D01*
X149773693Y-90529069D01*
X149821000Y-90291243D01*
X149821000Y-90048757D01*
X149773693Y-89810931D01*
X149680898Y-89586903D01*
X149546180Y-89385283D01*
X149374717Y-89213820D01*
X149173097Y-89079102D01*
X148949069Y-88986307D01*
X148711243Y-88939000D01*
X148468757Y-88939000D01*
X148230931Y-88986307D01*
X148006903Y-89079102D01*
X147805283Y-89213820D01*
X147633820Y-89385283D01*
X147499102Y-89586903D01*
X147406307Y-89810931D01*
X147359000Y-90048757D01*
X147359000Y-90291243D01*
X147406307Y-90529069D01*
X147438242Y-90606167D01*
X145709785Y-92334624D01*
X145690473Y-92350473D01*
X145627241Y-92427521D01*
X145580255Y-92515426D01*
X145551322Y-92610808D01*
X145544000Y-92685147D01*
X145544000Y-92685154D01*
X145541553Y-92710000D01*
X145186000Y-92710000D01*
X145186000Y-86766000D01*
X159614000Y-86766000D01*
X159614001Y-109051828D01*
G37*
X159614001Y-109051828D02*
X153501831Y-115164000D01*
X151298171Y-115164000D01*
X145186000Y-109051831D01*
X145186000Y-92710000D01*
X145541553Y-92710000D01*
X145544000Y-92734846D01*
X145544001Y-101575144D01*
X145541553Y-101600000D01*
X145551322Y-101699192D01*
X145580255Y-101794574D01*
X145589187Y-101811284D01*
X145627242Y-101882479D01*
X145690474Y-101959527D01*
X145709780Y-101975371D01*
X146129779Y-102395371D01*
X146129784Y-102395375D01*
X146168242Y-102433833D01*
X146136307Y-102510931D01*
X146089000Y-102748757D01*
X146089000Y-102991243D01*
X146136307Y-103229069D01*
X146229102Y-103453097D01*
X146363820Y-103654717D01*
X146535283Y-103826180D01*
X146736903Y-103960898D01*
X146960931Y-104053693D01*
X147198757Y-104101000D01*
X147441243Y-104101000D01*
X147679069Y-104053693D01*
X147817666Y-103996284D01*
X147871126Y-104049744D01*
X147871132Y-104049749D01*
X147953162Y-104131779D01*
X147967080Y-104148738D01*
X148034764Y-104204285D01*
X148111983Y-104245560D01*
X148195772Y-104270977D01*
X148261079Y-104277409D01*
X148261089Y-104277409D01*
X148282909Y-104279558D01*
X148304729Y-104277409D01*
X151232546Y-104277409D01*
X151286788Y-104306402D01*
X151297515Y-104332297D01*
X151303291Y-104343103D01*
X151344975Y-104405491D01*
X151352747Y-104414962D01*
X151377988Y-104442812D01*
X151466376Y-104531200D01*
X151489745Y-104552380D01*
X149179047Y-106863078D01*
X149173097Y-106859102D01*
X148949069Y-106766307D01*
X148711243Y-106719000D01*
X148468757Y-106719000D01*
X148230931Y-106766307D01*
X148006903Y-106859102D01*
X147805283Y-106993820D01*
X147633820Y-107165283D01*
X147499102Y-107366903D01*
X147406307Y-107590931D01*
X147359000Y-107828757D01*
X147359000Y-108071243D01*
X147406307Y-108309069D01*
X147499102Y-108533097D01*
X147633820Y-108734717D01*
X147805283Y-108906180D01*
X148006903Y-109040898D01*
X148230931Y-109133693D01*
X148468757Y-109181000D01*
X148711243Y-109181000D01*
X148949069Y-109133693D01*
X149026167Y-109101758D01*
X149484628Y-109560220D01*
X149500473Y-109579527D01*
X149577521Y-109642759D01*
X149665425Y-109689745D01*
X149760806Y-109718678D01*
X149770694Y-109719652D01*
X149835146Y-109726000D01*
X149835153Y-109726000D01*
X149859999Y-109728447D01*
X149884845Y-109726000D01*
X154915154Y-109726000D01*
X154940000Y-109728447D01*
X154964846Y-109726000D01*
X154964854Y-109726000D01*
X155039193Y-109718678D01*
X155134575Y-109689745D01*
X155222479Y-109642759D01*
X155299527Y-109579527D01*
X155315376Y-109560215D01*
X155735371Y-109140221D01*
X155735375Y-109140216D01*
X155773833Y-109101758D01*
X155850931Y-109133693D01*
X156088757Y-109181000D01*
X156331243Y-109181000D01*
X156569069Y-109133693D01*
X156793097Y-109040898D01*
X156994717Y-108906180D01*
X157166180Y-108734717D01*
X157300898Y-108533097D01*
X157393693Y-108309069D01*
X157441000Y-108071243D01*
X157441000Y-107828757D01*
X157393693Y-107590931D01*
X157300898Y-107366903D01*
X157166180Y-107165283D01*
X156994717Y-106993820D01*
X156793097Y-106859102D01*
X156569069Y-106766307D01*
X156331243Y-106719000D01*
X156088757Y-106719000D01*
X155850931Y-106766307D01*
X155626903Y-106859102D01*
X155425283Y-106993820D01*
X155253820Y-107165283D01*
X155119102Y-107366903D01*
X155026307Y-107590931D01*
X154979000Y-107828757D01*
X154979000Y-108071243D01*
X155026307Y-108309069D01*
X155058242Y-108386167D01*
X155019784Y-108424625D01*
X155019779Y-108424629D01*
X154730409Y-108714000D01*
X154640023Y-108714000D01*
X154760898Y-108533097D01*
X154853693Y-108309069D01*
X154901000Y-108071243D01*
X154901000Y-107828757D01*
X154853693Y-107590931D01*
X154760898Y-107366903D01*
X154640023Y-107186000D01*
X154910154Y-107186000D01*
X154935000Y-107188447D01*
X154959846Y-107186000D01*
X154959854Y-107186000D01*
X155034193Y-107178678D01*
X155129575Y-107149745D01*
X155217479Y-107102759D01*
X155294527Y-107039527D01*
X155310376Y-107020215D01*
X156777749Y-105552843D01*
X157295000Y-105552843D01*
X157369689Y-105545487D01*
X157441508Y-105523701D01*
X157507696Y-105488322D01*
X157565711Y-105440711D01*
X157613322Y-105382696D01*
X157648701Y-105316508D01*
X157670487Y-105244689D01*
X157677843Y-105170000D01*
X157677843Y-104370000D01*
X157670487Y-104295311D01*
X157648701Y-104223492D01*
X157613322Y-104157304D01*
X157565711Y-104099289D01*
X157507696Y-104051678D01*
X157441508Y-104016299D01*
X157369689Y-103994513D01*
X157295000Y-103987157D01*
X156395000Y-103987157D01*
X156320311Y-103994513D01*
X156248492Y-104016299D01*
X156182304Y-104051678D01*
X156124289Y-104099289D01*
X156076678Y-104157304D01*
X156041299Y-104223492D01*
X156019513Y-104295311D01*
X156012157Y-104370000D01*
X156012157Y-104887251D01*
X154725409Y-106174000D01*
X153988661Y-106174000D01*
X154083043Y-106145369D01*
X154187050Y-106089776D01*
X154278213Y-106014960D01*
X154587572Y-105705601D01*
X154662388Y-105614438D01*
X154717981Y-105510431D01*
X154752216Y-105397576D01*
X154763775Y-105280211D01*
X154752216Y-105162846D01*
X154717981Y-105049991D01*
X154662388Y-104945984D01*
X154587572Y-104854821D01*
X154332306Y-104599555D01*
X154332306Y-103687556D01*
X154334754Y-103662702D01*
X154324984Y-103563509D01*
X154296051Y-103468127D01*
X154283506Y-103444658D01*
X154251572Y-103384912D01*
X154291510Y-103388846D01*
X154378392Y-103380289D01*
X154461935Y-103354946D01*
X154538929Y-103313792D01*
X154606415Y-103258408D01*
X154611843Y-103252980D01*
X154660313Y-103292759D01*
X154748217Y-103339745D01*
X154821399Y-103361944D01*
X154843598Y-103368678D01*
X154853486Y-103369652D01*
X154917938Y-103376000D01*
X154917945Y-103376000D01*
X154942791Y-103378447D01*
X154967637Y-103376000D01*
X155117921Y-103376000D01*
X155140888Y-103398967D01*
X155252426Y-103473494D01*
X155376360Y-103524829D01*
X155507927Y-103551000D01*
X155642073Y-103551000D01*
X155773640Y-103524829D01*
X155897574Y-103473494D01*
X156009112Y-103398967D01*
X156029725Y-103378354D01*
X156041299Y-103416508D01*
X156076678Y-103482696D01*
X156124289Y-103540711D01*
X156182304Y-103588322D01*
X156248492Y-103623701D01*
X156320311Y-103645487D01*
X156395000Y-103652843D01*
X157295000Y-103652843D01*
X157369689Y-103645487D01*
X157441508Y-103623701D01*
X157507696Y-103588322D01*
X157565711Y-103540711D01*
X157613322Y-103482696D01*
X157648701Y-103416508D01*
X157670487Y-103344689D01*
X157677843Y-103270000D01*
X157677843Y-102470000D01*
X157670487Y-102395311D01*
X157648701Y-102323492D01*
X157613322Y-102257304D01*
X157565711Y-102199289D01*
X157507696Y-102151678D01*
X157441508Y-102116299D01*
X157369689Y-102094513D01*
X157351000Y-102092672D01*
X157351000Y-101746566D01*
X157397977Y-101721456D01*
X157489140Y-101646640D01*
X157563956Y-101555477D01*
X157619549Y-101451470D01*
X157653784Y-101338615D01*
X157665343Y-101221250D01*
X157665343Y-100708750D01*
X157653784Y-100591385D01*
X157619549Y-100478530D01*
X157563956Y-100374523D01*
X157489140Y-100283360D01*
X157397977Y-100208544D01*
X157351000Y-100183434D01*
X157351000Y-98882079D01*
X157373967Y-98859112D01*
X157448494Y-98747574D01*
X157499829Y-98623640D01*
X157526000Y-98492073D01*
X157526000Y-98357927D01*
X157499829Y-98226360D01*
X157448494Y-98102426D01*
X157373967Y-97990888D01*
X157279112Y-97896033D01*
X157167574Y-97821506D01*
X157043640Y-97770171D01*
X156961717Y-97753875D01*
X157185220Y-97530372D01*
X157204527Y-97514527D01*
X157267759Y-97437479D01*
X157314745Y-97349575D01*
X157343678Y-97254193D01*
X157351000Y-97179854D01*
X157353448Y-97155000D01*
X157351000Y-97130146D01*
X157351000Y-90829854D01*
X157353448Y-90805000D01*
X157343678Y-90705807D01*
X157333874Y-90673486D01*
X157393693Y-90529069D01*
X157441000Y-90291243D01*
X157441000Y-90048757D01*
X157393693Y-89810931D01*
X157300898Y-89586903D01*
X157166180Y-89385283D01*
X156994717Y-89213820D01*
X156793097Y-89079102D01*
X156569069Y-88986307D01*
X156331243Y-88939000D01*
X156088757Y-88939000D01*
X155850931Y-88986307D01*
X155626903Y-89079102D01*
X155425283Y-89213820D01*
X155253820Y-89385283D01*
X155119102Y-89586903D01*
X155026307Y-89810931D01*
X154979000Y-90048757D01*
X154979000Y-90291243D01*
X155026307Y-90529069D01*
X155119102Y-90753097D01*
X155253820Y-90954717D01*
X155425283Y-91126180D01*
X155626903Y-91260898D01*
X155850931Y-91353693D01*
X156088757Y-91401000D01*
X156331243Y-91401000D01*
X156339000Y-91399457D01*
X156339000Y-92123408D01*
X154895373Y-90679782D01*
X154895369Y-90679777D01*
X154821758Y-90606166D01*
X154853693Y-90529069D01*
X154901000Y-90291243D01*
X154901000Y-90048757D01*
X154853693Y-89810931D01*
X154760898Y-89586903D01*
X154626180Y-89385283D01*
X154454717Y-89213820D01*
X154253097Y-89079102D01*
X154029069Y-88986307D01*
X153791243Y-88939000D01*
X153548757Y-88939000D01*
X153310931Y-88986307D01*
X153086903Y-89079102D01*
X152885283Y-89213820D01*
X152713820Y-89385283D01*
X152579102Y-89586903D01*
X152486307Y-89810931D01*
X152439000Y-90048757D01*
X152439000Y-90291243D01*
X152486307Y-90529069D01*
X152579102Y-90753097D01*
X152713820Y-90954717D01*
X152885283Y-91126180D01*
X153034262Y-91225724D01*
X153003885Y-91228716D01*
X152891030Y-91262951D01*
X152787023Y-91318544D01*
X152695860Y-91393360D01*
X152621044Y-91484523D01*
X152565451Y-91588530D01*
X152552500Y-91631223D01*
X152539549Y-91588530D01*
X152483956Y-91484523D01*
X152409140Y-91393360D01*
X152317977Y-91318544D01*
X152213970Y-91262951D01*
X152101115Y-91228716D01*
X151983750Y-91217157D01*
X151778560Y-91217157D01*
X151914717Y-91126180D01*
X152086180Y-90954717D01*
X152220898Y-90753097D01*
X152313693Y-90529069D01*
X152361000Y-90291243D01*
X152361000Y-90048757D01*
X152313693Y-89810931D01*
X152220898Y-89586903D01*
X152086180Y-89385283D01*
X151914717Y-89213820D01*
X151713097Y-89079102D01*
X151489069Y-88986307D01*
X151251243Y-88939000D01*
X151008757Y-88939000D01*
X150770931Y-88986307D01*
X150546903Y-89079102D01*
X150345283Y-89213820D01*
X150173820Y-89385283D01*
X150039102Y-89586903D01*
X149946307Y-89810931D01*
X149899000Y-90048757D01*
X149899000Y-90291243D01*
X149946307Y-90529069D01*
X150039102Y-90753097D01*
X150173820Y-90954717D01*
X150345283Y-91126180D01*
X150546903Y-91260898D01*
X150770931Y-91353693D01*
X151008757Y-91401000D01*
X151114590Y-91401000D01*
X151046044Y-91484523D01*
X150990451Y-91588530D01*
X150956216Y-91701385D01*
X150944657Y-91818750D01*
X150944657Y-92266725D01*
X150357667Y-92853716D01*
X150219069Y-92796307D01*
X149981243Y-92749000D01*
X149738757Y-92749000D01*
X149500931Y-92796307D01*
X149276903Y-92889102D01*
X149075283Y-93023820D01*
X148903820Y-93195283D01*
X148769102Y-93396903D01*
X148676307Y-93620931D01*
X148629000Y-93858757D01*
X148629000Y-94101243D01*
X148676307Y-94339069D01*
X148733716Y-94477667D01*
X148711133Y-94500250D01*
X148711128Y-94500254D01*
X148291125Y-94920258D01*
X148274172Y-94934171D01*
X148260259Y-94951124D01*
X148260255Y-94951128D01*
X148218624Y-95001855D01*
X148177349Y-95079075D01*
X148151933Y-95162863D01*
X148143351Y-95250000D01*
X148145501Y-95271830D01*
X148145500Y-99097157D01*
X146556000Y-99097157D01*
X146556000Y-92919591D01*
X148153833Y-91321758D01*
X148230931Y-91353693D01*
X148468757Y-91401000D01*
X148711243Y-91401000D01*
X148949069Y-91353693D01*
X149173097Y-91260898D01*
X149374717Y-91126180D01*
X149546180Y-90954717D01*
X149680898Y-90753097D01*
X149773693Y-90529069D01*
X149821000Y-90291243D01*
X149821000Y-90048757D01*
X149773693Y-89810931D01*
X149680898Y-89586903D01*
X149546180Y-89385283D01*
X149374717Y-89213820D01*
X149173097Y-89079102D01*
X148949069Y-88986307D01*
X148711243Y-88939000D01*
X148468757Y-88939000D01*
X148230931Y-88986307D01*
X148006903Y-89079102D01*
X147805283Y-89213820D01*
X147633820Y-89385283D01*
X147499102Y-89586903D01*
X147406307Y-89810931D01*
X147359000Y-90048757D01*
X147359000Y-90291243D01*
X147406307Y-90529069D01*
X147438242Y-90606167D01*
X145709785Y-92334624D01*
X145690473Y-92350473D01*
X145627241Y-92427521D01*
X145580255Y-92515426D01*
X145551322Y-92610808D01*
X145544000Y-92685147D01*
X145544000Y-92685154D01*
X145541553Y-92710000D01*
X145186000Y-92710000D01*
X145186000Y-86766000D01*
X159614000Y-86766000D01*
X159614001Y-109051828D01*
G36*
X151546250Y-92932843D02*
G01*
X151751440Y-92932843D01*
X151615283Y-93023820D01*
X151443820Y-93195283D01*
X151309102Y-93396903D01*
X151216307Y-93620931D01*
X151169000Y-93858757D01*
X151169000Y-94101243D01*
X151216307Y-94339069D01*
X151273716Y-94477667D01*
X150704130Y-95047253D01*
X150687171Y-95061171D01*
X150673255Y-95078128D01*
X150631624Y-95128855D01*
X150613003Y-95163693D01*
X150590349Y-95206075D01*
X150564932Y-95289864D01*
X150558500Y-95355171D01*
X150558500Y-95355180D01*
X150556351Y-95377000D01*
X150558500Y-95398820D01*
X150558501Y-97895170D01*
X150556351Y-97917000D01*
X150564933Y-98004137D01*
X150590349Y-98087925D01*
X150631624Y-98165145D01*
X150634668Y-98168854D01*
X150553426Y-98202506D01*
X150441888Y-98277033D01*
X150347033Y-98371888D01*
X150272506Y-98483426D01*
X150221171Y-98607360D01*
X150195000Y-98738927D01*
X150195000Y-98873073D01*
X150221171Y-99004640D01*
X150272506Y-99128574D01*
X150347033Y-99240112D01*
X150441888Y-99334967D01*
X150553426Y-99409494D01*
X150677360Y-99460829D01*
X150685475Y-99462443D01*
X150645054Y-99538065D01*
X150619711Y-99621608D01*
X150611154Y-99708490D01*
X150619711Y-99795372D01*
X150630309Y-99830309D01*
X150595372Y-99819711D01*
X150508490Y-99811154D01*
X150421608Y-99819711D01*
X150338065Y-99845054D01*
X150261071Y-99886208D01*
X150193585Y-99941592D01*
X150105196Y-100029981D01*
X150049812Y-100097467D01*
X150012562Y-100167156D01*
X149942873Y-100204406D01*
X149875387Y-100259790D01*
X149786998Y-100348179D01*
X149731614Y-100415665D01*
X149693598Y-100486788D01*
X149667703Y-100497515D01*
X149656897Y-100503291D01*
X149594509Y-100544975D01*
X149585038Y-100552747D01*
X149557188Y-100577988D01*
X149468800Y-100666376D01*
X149443559Y-100694226D01*
X149435787Y-100703697D01*
X149394103Y-100766085D01*
X149388327Y-100776891D01*
X149359610Y-100846214D01*
X149356053Y-100857938D01*
X149341403Y-100931594D01*
X149340203Y-100943788D01*
X149340204Y-101018779D01*
X149341404Y-101030972D01*
X149356053Y-101104625D01*
X149359610Y-101116349D01*
X149388327Y-101185672D01*
X149394103Y-101196478D01*
X149435787Y-101258866D01*
X149443559Y-101268337D01*
X149468800Y-101296187D01*
X149772613Y-101600000D01*
X149495615Y-101876998D01*
X149034500Y-101415883D01*
X149034500Y-95434117D01*
X149339746Y-95128872D01*
X149339750Y-95128867D01*
X149362333Y-95106284D01*
X149500931Y-95163693D01*
X149738757Y-95211000D01*
X149981243Y-95211000D01*
X150219069Y-95163693D01*
X150443097Y-95070898D01*
X150644717Y-94936180D01*
X150816180Y-94764717D01*
X150950898Y-94563097D01*
X151043693Y-94339069D01*
X151091000Y-94101243D01*
X151091000Y-93858757D01*
X151043693Y-93620931D01*
X150986284Y-93482333D01*
X151536714Y-92931904D01*
X151546250Y-92932843D01*
G37*
X151546250Y-92932843D02*
X151751440Y-92932843D01*
X151615283Y-93023820D01*
X151443820Y-93195283D01*
X151309102Y-93396903D01*
X151216307Y-93620931D01*
X151169000Y-93858757D01*
X151169000Y-94101243D01*
X151216307Y-94339069D01*
X151273716Y-94477667D01*
X150704130Y-95047253D01*
X150687171Y-95061171D01*
X150673255Y-95078128D01*
X150631624Y-95128855D01*
X150613003Y-95163693D01*
X150590349Y-95206075D01*
X150564932Y-95289864D01*
X150558500Y-95355171D01*
X150558500Y-95355180D01*
X150556351Y-95377000D01*
X150558500Y-95398820D01*
X150558501Y-97895170D01*
X150556351Y-97917000D01*
X150564933Y-98004137D01*
X150590349Y-98087925D01*
X150631624Y-98165145D01*
X150634668Y-98168854D01*
X150553426Y-98202506D01*
X150441888Y-98277033D01*
X150347033Y-98371888D01*
X150272506Y-98483426D01*
X150221171Y-98607360D01*
X150195000Y-98738927D01*
X150195000Y-98873073D01*
X150221171Y-99004640D01*
X150272506Y-99128574D01*
X150347033Y-99240112D01*
X150441888Y-99334967D01*
X150553426Y-99409494D01*
X150677360Y-99460829D01*
X150685475Y-99462443D01*
X150645054Y-99538065D01*
X150619711Y-99621608D01*
X150611154Y-99708490D01*
X150619711Y-99795372D01*
X150630309Y-99830309D01*
X150595372Y-99819711D01*
X150508490Y-99811154D01*
X150421608Y-99819711D01*
X150338065Y-99845054D01*
X150261071Y-99886208D01*
X150193585Y-99941592D01*
X150105196Y-100029981D01*
X150049812Y-100097467D01*
X150012562Y-100167156D01*
X149942873Y-100204406D01*
X149875387Y-100259790D01*
X149786998Y-100348179D01*
X149731614Y-100415665D01*
X149693598Y-100486788D01*
X149667703Y-100497515D01*
X149656897Y-100503291D01*
X149594509Y-100544975D01*
X149585038Y-100552747D01*
X149557188Y-100577988D01*
X149468800Y-100666376D01*
X149443559Y-100694226D01*
X149435787Y-100703697D01*
X149394103Y-100766085D01*
X149388327Y-100776891D01*
X149359610Y-100846214D01*
X149356053Y-100857938D01*
X149341403Y-100931594D01*
X149340203Y-100943788D01*
X149340204Y-101018779D01*
X149341404Y-101030972D01*
X149356053Y-101104625D01*
X149359610Y-101116349D01*
X149388327Y-101185672D01*
X149394103Y-101196478D01*
X149435787Y-101258866D01*
X149443559Y-101268337D01*
X149468800Y-101296187D01*
X149772613Y-101600000D01*
X149495615Y-101876998D01*
X149034500Y-101415883D01*
X149034500Y-95434117D01*
X149339746Y-95128872D01*
X149339750Y-95128867D01*
X149362333Y-95106284D01*
X149500931Y-95163693D01*
X149738757Y-95211000D01*
X149981243Y-95211000D01*
X150219069Y-95163693D01*
X150443097Y-95070898D01*
X150644717Y-94936180D01*
X150816180Y-94764717D01*
X150950898Y-94563097D01*
X151043693Y-94339069D01*
X151091000Y-94101243D01*
X151091000Y-93858757D01*
X151043693Y-93620931D01*
X150986284Y-93482333D01*
X151536714Y-92931904D01*
X151546250Y-92932843D01*
M02*
