%TF.GenerationSoftware,KiCad,Pcbnew,(5.1.5)-3*%
%TF.CreationDate,2020-03-25T18:08:18+08:00*%
%TF.ProjectId,RH2288_PWM,52483232-3838-45f5-9057-4d2e6b696361,rev?*%
%TF.SameCoordinates,Original*%
%TF.FileFunction,Soldermask,Top*%
%TF.FilePolarity,Negative*%
%FSLAX46Y46*%
G04 Gerber Fmt 4.6, Leading zero omitted, Abs format (unit mm)*
G04 Created by KiCad (PCBNEW (5.1.5)-3) date 2020-03-25 18:08:18*
%MOMM*%
%LPD*%
G04 APERTURE LIST*
%ADD10R,1.001600X0.901600*%
%ADD11C,0.100000*%
%ADD12O,1.801600X1.801600*%
%ADD13R,1.801600X1.801600*%
G04 APERTURE END LIST*
D10*
X158845000Y-103820000D03*
X156845000Y-104770000D03*
X156845000Y-102870000D03*
D11*
G36*
X151609430Y-104204327D02*
G01*
X151601657Y-104194856D01*
X151596125Y-104186576D01*
X151590349Y-104175770D01*
X151586539Y-104166571D01*
X151582982Y-104154847D01*
X151581039Y-104145078D01*
X151579838Y-104132884D01*
X151579838Y-104122928D01*
X151581039Y-104110735D01*
X151582982Y-104100966D01*
X151586539Y-104089242D01*
X151590349Y-104080043D01*
X151596125Y-104069237D01*
X151601657Y-104060957D01*
X151609430Y-104051486D01*
X151612778Y-104047791D01*
X152090075Y-103570494D01*
X152093770Y-103567146D01*
X152103241Y-103559373D01*
X152111521Y-103553841D01*
X152122327Y-103548065D01*
X152131526Y-103544255D01*
X152143250Y-103540698D01*
X152153019Y-103538755D01*
X152165212Y-103537554D01*
X152175168Y-103537554D01*
X152187362Y-103538755D01*
X152197131Y-103540698D01*
X152208855Y-103544255D01*
X152218054Y-103548065D01*
X152228860Y-103553841D01*
X152237140Y-103559373D01*
X152246611Y-103567146D01*
X152250306Y-103570494D01*
X152293872Y-103614060D01*
X152297220Y-103617755D01*
X152304992Y-103627226D01*
X152310525Y-103635506D01*
X152316301Y-103646312D01*
X152320111Y-103655511D01*
X152323668Y-103667235D01*
X152325611Y-103677004D01*
X152326812Y-103689198D01*
X152327056Y-103694176D01*
X152327056Y-103783820D01*
X152326812Y-103788798D01*
X152325611Y-103800991D01*
X152323668Y-103810760D01*
X152320111Y-103822484D01*
X152316301Y-103831683D01*
X152310525Y-103842489D01*
X152304992Y-103850769D01*
X152297220Y-103860240D01*
X152293872Y-103863935D01*
X151861397Y-104296410D01*
X151857702Y-104299758D01*
X151848231Y-104307531D01*
X151839951Y-104313063D01*
X151829145Y-104318839D01*
X151819946Y-104322649D01*
X151808222Y-104326206D01*
X151798453Y-104328149D01*
X151786260Y-104329350D01*
X151776304Y-104329350D01*
X151764110Y-104328149D01*
X151754341Y-104326206D01*
X151742617Y-104322649D01*
X151733418Y-104318839D01*
X151722612Y-104313063D01*
X151714332Y-104307531D01*
X151704861Y-104299758D01*
X151701166Y-104296410D01*
X151612778Y-104208022D01*
X151609430Y-104204327D01*
G37*
G36*
X151860608Y-103209013D02*
G01*
X151869140Y-103210279D01*
X151877508Y-103212375D01*
X151885630Y-103215281D01*
X151893428Y-103218969D01*
X151900827Y-103223404D01*
X151907755Y-103228542D01*
X151914147Y-103234335D01*
X152038457Y-103358645D01*
X152044250Y-103365037D01*
X152049388Y-103371965D01*
X152053823Y-103379364D01*
X152057511Y-103387162D01*
X152060417Y-103395284D01*
X152062513Y-103403652D01*
X152063779Y-103412184D01*
X152064202Y-103420800D01*
X152063779Y-103429416D01*
X152062513Y-103437948D01*
X152060417Y-103446316D01*
X152057511Y-103454438D01*
X152053823Y-103462236D01*
X152049388Y-103469635D01*
X152044250Y-103476563D01*
X152038457Y-103482955D01*
X151525239Y-103996173D01*
X151518847Y-104001966D01*
X151511919Y-104007104D01*
X151504520Y-104011539D01*
X151496722Y-104015227D01*
X151488600Y-104018133D01*
X151480232Y-104020229D01*
X151471700Y-104021495D01*
X151463084Y-104021918D01*
X151454468Y-104021495D01*
X151445936Y-104020229D01*
X151437568Y-104018133D01*
X151429446Y-104015227D01*
X151421648Y-104011539D01*
X151414249Y-104007104D01*
X151407321Y-104001966D01*
X151400929Y-103996173D01*
X151276619Y-103871863D01*
X151270826Y-103865471D01*
X151265688Y-103858543D01*
X151261253Y-103851144D01*
X151257565Y-103843346D01*
X151254659Y-103835224D01*
X151252563Y-103826856D01*
X151251297Y-103818324D01*
X151250874Y-103809708D01*
X151251297Y-103801092D01*
X151252563Y-103792560D01*
X151254659Y-103784192D01*
X151257565Y-103776070D01*
X151261253Y-103768272D01*
X151265688Y-103760873D01*
X151270826Y-103753945D01*
X151276619Y-103747553D01*
X151789837Y-103234335D01*
X151796229Y-103228542D01*
X151803157Y-103223404D01*
X151810556Y-103218969D01*
X151818354Y-103215281D01*
X151826476Y-103212375D01*
X151834844Y-103210279D01*
X151843376Y-103209013D01*
X151851992Y-103208590D01*
X151860608Y-103209013D01*
G37*
G36*
X151542410Y-102890815D02*
G01*
X151550942Y-102892081D01*
X151559310Y-102894177D01*
X151567432Y-102897083D01*
X151575230Y-102900771D01*
X151582629Y-102905206D01*
X151589557Y-102910344D01*
X151595949Y-102916137D01*
X151720259Y-103040447D01*
X151726052Y-103046839D01*
X151731190Y-103053767D01*
X151735625Y-103061166D01*
X151739313Y-103068964D01*
X151742219Y-103077086D01*
X151744315Y-103085454D01*
X151745581Y-103093986D01*
X151746004Y-103102602D01*
X151745581Y-103111218D01*
X151744315Y-103119750D01*
X151742219Y-103128118D01*
X151739313Y-103136240D01*
X151735625Y-103144038D01*
X151731190Y-103151437D01*
X151726052Y-103158365D01*
X151720259Y-103164757D01*
X151207041Y-103677975D01*
X151200649Y-103683768D01*
X151193721Y-103688906D01*
X151186322Y-103693341D01*
X151178524Y-103697029D01*
X151170402Y-103699935D01*
X151162034Y-103702031D01*
X151153502Y-103703297D01*
X151144886Y-103703720D01*
X151136270Y-103703297D01*
X151127738Y-103702031D01*
X151119370Y-103699935D01*
X151111248Y-103697029D01*
X151103450Y-103693341D01*
X151096051Y-103688906D01*
X151089123Y-103683768D01*
X151082731Y-103677975D01*
X150958421Y-103553665D01*
X150952628Y-103547273D01*
X150947490Y-103540345D01*
X150943055Y-103532946D01*
X150939367Y-103525148D01*
X150936461Y-103517026D01*
X150934365Y-103508658D01*
X150933099Y-103500126D01*
X150932676Y-103491510D01*
X150933099Y-103482894D01*
X150934365Y-103474362D01*
X150936461Y-103465994D01*
X150939367Y-103457872D01*
X150943055Y-103450074D01*
X150947490Y-103442675D01*
X150952628Y-103435747D01*
X150958421Y-103429355D01*
X151471639Y-102916137D01*
X151478031Y-102910344D01*
X151484959Y-102905206D01*
X151492358Y-102900771D01*
X151500156Y-102897083D01*
X151508278Y-102894177D01*
X151516646Y-102892081D01*
X151525178Y-102890815D01*
X151533794Y-102890392D01*
X151542410Y-102890815D01*
G37*
G36*
X151224212Y-102572617D02*
G01*
X151232744Y-102573883D01*
X151241112Y-102575979D01*
X151249234Y-102578885D01*
X151257032Y-102582573D01*
X151264431Y-102587008D01*
X151271359Y-102592146D01*
X151277751Y-102597939D01*
X151402061Y-102722249D01*
X151407854Y-102728641D01*
X151412992Y-102735569D01*
X151417427Y-102742968D01*
X151421115Y-102750766D01*
X151424021Y-102758888D01*
X151426117Y-102767256D01*
X151427383Y-102775788D01*
X151427806Y-102784404D01*
X151427383Y-102793020D01*
X151426117Y-102801552D01*
X151424021Y-102809920D01*
X151421115Y-102818042D01*
X151417427Y-102825840D01*
X151412992Y-102833239D01*
X151407854Y-102840167D01*
X151402061Y-102846559D01*
X150888843Y-103359777D01*
X150882451Y-103365570D01*
X150875523Y-103370708D01*
X150868124Y-103375143D01*
X150860326Y-103378831D01*
X150852204Y-103381737D01*
X150843836Y-103383833D01*
X150835304Y-103385099D01*
X150826688Y-103385522D01*
X150818072Y-103385099D01*
X150809540Y-103383833D01*
X150801172Y-103381737D01*
X150793050Y-103378831D01*
X150785252Y-103375143D01*
X150777853Y-103370708D01*
X150770925Y-103365570D01*
X150764533Y-103359777D01*
X150640223Y-103235467D01*
X150634430Y-103229075D01*
X150629292Y-103222147D01*
X150624857Y-103214748D01*
X150621169Y-103206950D01*
X150618263Y-103198828D01*
X150616167Y-103190460D01*
X150614901Y-103181928D01*
X150614478Y-103173312D01*
X150614901Y-103164696D01*
X150616167Y-103156164D01*
X150618263Y-103147796D01*
X150621169Y-103139674D01*
X150624857Y-103131876D01*
X150629292Y-103124477D01*
X150634430Y-103117549D01*
X150640223Y-103111157D01*
X151153441Y-102597939D01*
X151159833Y-102592146D01*
X151166761Y-102587008D01*
X151174160Y-102582573D01*
X151181958Y-102578885D01*
X151190080Y-102575979D01*
X151198448Y-102573883D01*
X151206980Y-102572617D01*
X151215596Y-102572194D01*
X151224212Y-102572617D01*
G37*
G36*
X150906014Y-102254419D02*
G01*
X150914546Y-102255685D01*
X150922914Y-102257781D01*
X150931036Y-102260687D01*
X150938834Y-102264375D01*
X150946233Y-102268810D01*
X150953161Y-102273948D01*
X150959553Y-102279741D01*
X151083863Y-102404051D01*
X151089656Y-102410443D01*
X151094794Y-102417371D01*
X151099229Y-102424770D01*
X151102917Y-102432568D01*
X151105823Y-102440690D01*
X151107919Y-102449058D01*
X151109185Y-102457590D01*
X151109608Y-102466206D01*
X151109185Y-102474822D01*
X151107919Y-102483354D01*
X151105823Y-102491722D01*
X151102917Y-102499844D01*
X151099229Y-102507642D01*
X151094794Y-102515041D01*
X151089656Y-102521969D01*
X151083863Y-102528361D01*
X150570645Y-103041579D01*
X150564253Y-103047372D01*
X150557325Y-103052510D01*
X150549926Y-103056945D01*
X150542128Y-103060633D01*
X150534006Y-103063539D01*
X150525638Y-103065635D01*
X150517106Y-103066901D01*
X150508490Y-103067324D01*
X150499874Y-103066901D01*
X150491342Y-103065635D01*
X150482974Y-103063539D01*
X150474852Y-103060633D01*
X150467054Y-103056945D01*
X150459655Y-103052510D01*
X150452727Y-103047372D01*
X150446335Y-103041579D01*
X150322025Y-102917269D01*
X150316232Y-102910877D01*
X150311094Y-102903949D01*
X150306659Y-102896550D01*
X150302971Y-102888752D01*
X150300065Y-102880630D01*
X150297969Y-102872262D01*
X150296703Y-102863730D01*
X150296280Y-102855114D01*
X150296703Y-102846498D01*
X150297969Y-102837966D01*
X150300065Y-102829598D01*
X150302971Y-102821476D01*
X150306659Y-102813678D01*
X150311094Y-102806279D01*
X150316232Y-102799351D01*
X150322025Y-102792959D01*
X150835243Y-102279741D01*
X150841635Y-102273948D01*
X150848563Y-102268810D01*
X150855962Y-102264375D01*
X150863760Y-102260687D01*
X150871882Y-102257781D01*
X150880250Y-102255685D01*
X150888782Y-102254419D01*
X150897398Y-102253996D01*
X150906014Y-102254419D01*
G37*
G36*
X150587816Y-101936221D02*
G01*
X150596348Y-101937487D01*
X150604716Y-101939583D01*
X150612838Y-101942489D01*
X150620636Y-101946177D01*
X150628035Y-101950612D01*
X150634963Y-101955750D01*
X150641355Y-101961543D01*
X150765665Y-102085853D01*
X150771458Y-102092245D01*
X150776596Y-102099173D01*
X150781031Y-102106572D01*
X150784719Y-102114370D01*
X150787625Y-102122492D01*
X150789721Y-102130860D01*
X150790987Y-102139392D01*
X150791410Y-102148008D01*
X150790987Y-102156624D01*
X150789721Y-102165156D01*
X150787625Y-102173524D01*
X150784719Y-102181646D01*
X150781031Y-102189444D01*
X150776596Y-102196843D01*
X150771458Y-102203771D01*
X150765665Y-102210163D01*
X150252447Y-102723381D01*
X150246055Y-102729174D01*
X150239127Y-102734312D01*
X150231728Y-102738747D01*
X150223930Y-102742435D01*
X150215808Y-102745341D01*
X150207440Y-102747437D01*
X150198908Y-102748703D01*
X150190292Y-102749126D01*
X150181676Y-102748703D01*
X150173144Y-102747437D01*
X150164776Y-102745341D01*
X150156654Y-102742435D01*
X150148856Y-102738747D01*
X150141457Y-102734312D01*
X150134529Y-102729174D01*
X150128137Y-102723381D01*
X150003827Y-102599071D01*
X149998034Y-102592679D01*
X149992896Y-102585751D01*
X149988461Y-102578352D01*
X149984773Y-102570554D01*
X149981867Y-102562432D01*
X149979771Y-102554064D01*
X149978505Y-102545532D01*
X149978082Y-102536916D01*
X149978505Y-102528300D01*
X149979771Y-102519768D01*
X149981867Y-102511400D01*
X149984773Y-102503278D01*
X149988461Y-102495480D01*
X149992896Y-102488081D01*
X149998034Y-102481153D01*
X150003827Y-102474761D01*
X150517045Y-101961543D01*
X150523437Y-101955750D01*
X150530365Y-101950612D01*
X150537764Y-101946177D01*
X150545562Y-101942489D01*
X150553684Y-101939583D01*
X150562052Y-101937487D01*
X150570584Y-101936221D01*
X150579200Y-101935798D01*
X150587816Y-101936221D01*
G37*
G36*
X149700242Y-102295139D02*
G01*
X149692469Y-102285668D01*
X149686937Y-102277388D01*
X149681161Y-102266582D01*
X149677351Y-102257383D01*
X149673794Y-102245659D01*
X149671851Y-102235890D01*
X149670650Y-102223696D01*
X149670650Y-102213740D01*
X149671851Y-102201547D01*
X149673794Y-102191778D01*
X149677351Y-102180054D01*
X149681161Y-102170855D01*
X149686937Y-102160049D01*
X149692469Y-102151769D01*
X149700242Y-102142298D01*
X149703590Y-102138603D01*
X150136065Y-101706128D01*
X150139760Y-101702780D01*
X150149231Y-101695008D01*
X150157511Y-101689475D01*
X150168317Y-101683699D01*
X150177516Y-101679889D01*
X150189240Y-101676332D01*
X150199009Y-101674389D01*
X150211202Y-101673188D01*
X150216180Y-101672944D01*
X150305824Y-101672944D01*
X150310802Y-101673188D01*
X150322996Y-101674389D01*
X150332765Y-101676332D01*
X150344489Y-101679889D01*
X150353688Y-101683699D01*
X150364494Y-101689475D01*
X150372774Y-101695008D01*
X150382245Y-101702780D01*
X150385940Y-101706128D01*
X150429506Y-101749694D01*
X150432854Y-101753389D01*
X150440627Y-101762860D01*
X150446159Y-101771140D01*
X150451935Y-101781946D01*
X150455745Y-101791145D01*
X150459302Y-101802869D01*
X150461245Y-101812638D01*
X150462446Y-101824832D01*
X150462446Y-101834788D01*
X150461245Y-101846981D01*
X150459302Y-101856750D01*
X150455745Y-101868474D01*
X150451935Y-101877673D01*
X150446159Y-101888479D01*
X150440627Y-101896759D01*
X150432854Y-101906230D01*
X150429506Y-101909925D01*
X149952209Y-102387222D01*
X149948514Y-102390570D01*
X149939043Y-102398343D01*
X149930763Y-102403875D01*
X149919957Y-102409651D01*
X149910758Y-102413461D01*
X149899034Y-102417018D01*
X149889265Y-102418961D01*
X149877072Y-102420162D01*
X149867116Y-102420162D01*
X149854922Y-102418961D01*
X149845153Y-102417018D01*
X149833429Y-102413461D01*
X149824230Y-102409651D01*
X149813424Y-102403875D01*
X149805144Y-102398343D01*
X149795673Y-102390570D01*
X149791978Y-102387222D01*
X149703590Y-102298834D01*
X149700242Y-102295139D01*
G37*
G36*
X149700242Y-101057702D02*
G01*
X149692469Y-101048231D01*
X149686937Y-101039951D01*
X149681161Y-101029145D01*
X149677351Y-101019946D01*
X149673794Y-101008222D01*
X149671851Y-100998453D01*
X149670650Y-100986260D01*
X149670650Y-100976304D01*
X149671851Y-100964110D01*
X149673794Y-100954341D01*
X149677351Y-100942617D01*
X149681161Y-100933418D01*
X149686937Y-100922612D01*
X149692469Y-100914332D01*
X149700242Y-100904861D01*
X149703590Y-100901166D01*
X149791978Y-100812778D01*
X149795673Y-100809430D01*
X149805144Y-100801657D01*
X149813424Y-100796125D01*
X149824230Y-100790349D01*
X149833429Y-100786539D01*
X149845153Y-100782982D01*
X149854922Y-100781039D01*
X149867116Y-100779838D01*
X149877072Y-100779838D01*
X149889265Y-100781039D01*
X149899034Y-100782982D01*
X149910758Y-100786539D01*
X149919957Y-100790349D01*
X149930763Y-100796125D01*
X149939043Y-100801657D01*
X149948514Y-100809430D01*
X149952209Y-100812778D01*
X150429506Y-101290075D01*
X150432854Y-101293770D01*
X150440627Y-101303241D01*
X150446159Y-101311521D01*
X150451935Y-101322327D01*
X150455745Y-101331526D01*
X150459302Y-101343250D01*
X150461245Y-101353019D01*
X150462446Y-101365212D01*
X150462446Y-101375168D01*
X150461245Y-101387362D01*
X150459302Y-101397131D01*
X150455745Y-101408855D01*
X150451935Y-101418054D01*
X150446159Y-101428860D01*
X150440627Y-101437140D01*
X150432854Y-101446611D01*
X150429506Y-101450306D01*
X150385940Y-101493872D01*
X150382245Y-101497220D01*
X150372774Y-101504992D01*
X150364494Y-101510525D01*
X150353688Y-101516301D01*
X150344489Y-101520111D01*
X150332765Y-101523668D01*
X150322996Y-101525611D01*
X150310802Y-101526812D01*
X150305824Y-101527056D01*
X150216180Y-101527056D01*
X150211202Y-101526812D01*
X150199009Y-101525611D01*
X150189240Y-101523668D01*
X150177516Y-101520111D01*
X150168317Y-101516301D01*
X150157511Y-101510525D01*
X150149231Y-101504992D01*
X150139760Y-101497220D01*
X150136065Y-101493872D01*
X149703590Y-101061397D01*
X149700242Y-101057702D01*
G37*
G36*
X150198908Y-100451297D02*
G01*
X150207440Y-100452563D01*
X150215808Y-100454659D01*
X150223930Y-100457565D01*
X150231728Y-100461253D01*
X150239127Y-100465688D01*
X150246055Y-100470826D01*
X150252447Y-100476619D01*
X150765665Y-100989837D01*
X150771458Y-100996229D01*
X150776596Y-101003157D01*
X150781031Y-101010556D01*
X150784719Y-101018354D01*
X150787625Y-101026476D01*
X150789721Y-101034844D01*
X150790987Y-101043376D01*
X150791410Y-101051992D01*
X150790987Y-101060608D01*
X150789721Y-101069140D01*
X150787625Y-101077508D01*
X150784719Y-101085630D01*
X150781031Y-101093428D01*
X150776596Y-101100827D01*
X150771458Y-101107755D01*
X150765665Y-101114147D01*
X150641355Y-101238457D01*
X150634963Y-101244250D01*
X150628035Y-101249388D01*
X150620636Y-101253823D01*
X150612838Y-101257511D01*
X150604716Y-101260417D01*
X150596348Y-101262513D01*
X150587816Y-101263779D01*
X150579200Y-101264202D01*
X150570584Y-101263779D01*
X150562052Y-101262513D01*
X150553684Y-101260417D01*
X150545562Y-101257511D01*
X150537764Y-101253823D01*
X150530365Y-101249388D01*
X150523437Y-101244250D01*
X150517045Y-101238457D01*
X150003827Y-100725239D01*
X149998034Y-100718847D01*
X149992896Y-100711919D01*
X149988461Y-100704520D01*
X149984773Y-100696722D01*
X149981867Y-100688600D01*
X149979771Y-100680232D01*
X149978505Y-100671700D01*
X149978082Y-100663084D01*
X149978505Y-100654468D01*
X149979771Y-100645936D01*
X149981867Y-100637568D01*
X149984773Y-100629446D01*
X149988461Y-100621648D01*
X149992896Y-100614249D01*
X149998034Y-100607321D01*
X150003827Y-100600929D01*
X150128137Y-100476619D01*
X150134529Y-100470826D01*
X150141457Y-100465688D01*
X150148856Y-100461253D01*
X150156654Y-100457565D01*
X150164776Y-100454659D01*
X150173144Y-100452563D01*
X150181676Y-100451297D01*
X150190292Y-100450874D01*
X150198908Y-100451297D01*
G37*
G36*
X150517106Y-100133099D02*
G01*
X150525638Y-100134365D01*
X150534006Y-100136461D01*
X150542128Y-100139367D01*
X150549926Y-100143055D01*
X150557325Y-100147490D01*
X150564253Y-100152628D01*
X150570645Y-100158421D01*
X151083863Y-100671639D01*
X151089656Y-100678031D01*
X151094794Y-100684959D01*
X151099229Y-100692358D01*
X151102917Y-100700156D01*
X151105823Y-100708278D01*
X151107919Y-100716646D01*
X151109185Y-100725178D01*
X151109608Y-100733794D01*
X151109185Y-100742410D01*
X151107919Y-100750942D01*
X151105823Y-100759310D01*
X151102917Y-100767432D01*
X151099229Y-100775230D01*
X151094794Y-100782629D01*
X151089656Y-100789557D01*
X151083863Y-100795949D01*
X150959553Y-100920259D01*
X150953161Y-100926052D01*
X150946233Y-100931190D01*
X150938834Y-100935625D01*
X150931036Y-100939313D01*
X150922914Y-100942219D01*
X150914546Y-100944315D01*
X150906014Y-100945581D01*
X150897398Y-100946004D01*
X150888782Y-100945581D01*
X150880250Y-100944315D01*
X150871882Y-100942219D01*
X150863760Y-100939313D01*
X150855962Y-100935625D01*
X150848563Y-100931190D01*
X150841635Y-100926052D01*
X150835243Y-100920259D01*
X150322025Y-100407041D01*
X150316232Y-100400649D01*
X150311094Y-100393721D01*
X150306659Y-100386322D01*
X150302971Y-100378524D01*
X150300065Y-100370402D01*
X150297969Y-100362034D01*
X150296703Y-100353502D01*
X150296280Y-100344886D01*
X150296703Y-100336270D01*
X150297969Y-100327738D01*
X150300065Y-100319370D01*
X150302971Y-100311248D01*
X150306659Y-100303450D01*
X150311094Y-100296051D01*
X150316232Y-100289123D01*
X150322025Y-100282731D01*
X150446335Y-100158421D01*
X150452727Y-100152628D01*
X150459655Y-100147490D01*
X150467054Y-100143055D01*
X150474852Y-100139367D01*
X150482974Y-100136461D01*
X150491342Y-100134365D01*
X150499874Y-100133099D01*
X150508490Y-100132676D01*
X150517106Y-100133099D01*
G37*
G36*
X150835304Y-99814901D02*
G01*
X150843836Y-99816167D01*
X150852204Y-99818263D01*
X150860326Y-99821169D01*
X150868124Y-99824857D01*
X150875523Y-99829292D01*
X150882451Y-99834430D01*
X150888843Y-99840223D01*
X151402061Y-100353441D01*
X151407854Y-100359833D01*
X151412992Y-100366761D01*
X151417427Y-100374160D01*
X151421115Y-100381958D01*
X151424021Y-100390080D01*
X151426117Y-100398448D01*
X151427383Y-100406980D01*
X151427806Y-100415596D01*
X151427383Y-100424212D01*
X151426117Y-100432744D01*
X151424021Y-100441112D01*
X151421115Y-100449234D01*
X151417427Y-100457032D01*
X151412992Y-100464431D01*
X151407854Y-100471359D01*
X151402061Y-100477751D01*
X151277751Y-100602061D01*
X151271359Y-100607854D01*
X151264431Y-100612992D01*
X151257032Y-100617427D01*
X151249234Y-100621115D01*
X151241112Y-100624021D01*
X151232744Y-100626117D01*
X151224212Y-100627383D01*
X151215596Y-100627806D01*
X151206980Y-100627383D01*
X151198448Y-100626117D01*
X151190080Y-100624021D01*
X151181958Y-100621115D01*
X151174160Y-100617427D01*
X151166761Y-100612992D01*
X151159833Y-100607854D01*
X151153441Y-100602061D01*
X150640223Y-100088843D01*
X150634430Y-100082451D01*
X150629292Y-100075523D01*
X150624857Y-100068124D01*
X150621169Y-100060326D01*
X150618263Y-100052204D01*
X150616167Y-100043836D01*
X150614901Y-100035304D01*
X150614478Y-100026688D01*
X150614901Y-100018072D01*
X150616167Y-100009540D01*
X150618263Y-100001172D01*
X150621169Y-99993050D01*
X150624857Y-99985252D01*
X150629292Y-99977853D01*
X150634430Y-99970925D01*
X150640223Y-99964533D01*
X150764533Y-99840223D01*
X150770925Y-99834430D01*
X150777853Y-99829292D01*
X150785252Y-99824857D01*
X150793050Y-99821169D01*
X150801172Y-99818263D01*
X150809540Y-99816167D01*
X150818072Y-99814901D01*
X150826688Y-99814478D01*
X150835304Y-99814901D01*
G37*
G36*
X151153502Y-99496703D02*
G01*
X151162034Y-99497969D01*
X151170402Y-99500065D01*
X151178524Y-99502971D01*
X151186322Y-99506659D01*
X151193721Y-99511094D01*
X151200649Y-99516232D01*
X151207041Y-99522025D01*
X151720259Y-100035243D01*
X151726052Y-100041635D01*
X151731190Y-100048563D01*
X151735625Y-100055962D01*
X151739313Y-100063760D01*
X151742219Y-100071882D01*
X151744315Y-100080250D01*
X151745581Y-100088782D01*
X151746004Y-100097398D01*
X151745581Y-100106014D01*
X151744315Y-100114546D01*
X151742219Y-100122914D01*
X151739313Y-100131036D01*
X151735625Y-100138834D01*
X151731190Y-100146233D01*
X151726052Y-100153161D01*
X151720259Y-100159553D01*
X151595949Y-100283863D01*
X151589557Y-100289656D01*
X151582629Y-100294794D01*
X151575230Y-100299229D01*
X151567432Y-100302917D01*
X151559310Y-100305823D01*
X151550942Y-100307919D01*
X151542410Y-100309185D01*
X151533794Y-100309608D01*
X151525178Y-100309185D01*
X151516646Y-100307919D01*
X151508278Y-100305823D01*
X151500156Y-100302917D01*
X151492358Y-100299229D01*
X151484959Y-100294794D01*
X151478031Y-100289656D01*
X151471639Y-100283863D01*
X150958421Y-99770645D01*
X150952628Y-99764253D01*
X150947490Y-99757325D01*
X150943055Y-99749926D01*
X150939367Y-99742128D01*
X150936461Y-99734006D01*
X150934365Y-99725638D01*
X150933099Y-99717106D01*
X150932676Y-99708490D01*
X150933099Y-99699874D01*
X150934365Y-99691342D01*
X150936461Y-99682974D01*
X150939367Y-99674852D01*
X150943055Y-99667054D01*
X150947490Y-99659655D01*
X150952628Y-99652727D01*
X150958421Y-99646335D01*
X151082731Y-99522025D01*
X151089123Y-99516232D01*
X151096051Y-99511094D01*
X151103450Y-99506659D01*
X151111248Y-99502971D01*
X151119370Y-99500065D01*
X151127738Y-99497969D01*
X151136270Y-99496703D01*
X151144886Y-99496280D01*
X151153502Y-99496703D01*
G37*
G36*
X151471700Y-99178505D02*
G01*
X151480232Y-99179771D01*
X151488600Y-99181867D01*
X151496722Y-99184773D01*
X151504520Y-99188461D01*
X151511919Y-99192896D01*
X151518847Y-99198034D01*
X151525239Y-99203827D01*
X152038457Y-99717045D01*
X152044250Y-99723437D01*
X152049388Y-99730365D01*
X152053823Y-99737764D01*
X152057511Y-99745562D01*
X152060417Y-99753684D01*
X152062513Y-99762052D01*
X152063779Y-99770584D01*
X152064202Y-99779200D01*
X152063779Y-99787816D01*
X152062513Y-99796348D01*
X152060417Y-99804716D01*
X152057511Y-99812838D01*
X152053823Y-99820636D01*
X152049388Y-99828035D01*
X152044250Y-99834963D01*
X152038457Y-99841355D01*
X151914147Y-99965665D01*
X151907755Y-99971458D01*
X151900827Y-99976596D01*
X151893428Y-99981031D01*
X151885630Y-99984719D01*
X151877508Y-99987625D01*
X151869140Y-99989721D01*
X151860608Y-99990987D01*
X151851992Y-99991410D01*
X151843376Y-99990987D01*
X151834844Y-99989721D01*
X151826476Y-99987625D01*
X151818354Y-99984719D01*
X151810556Y-99981031D01*
X151803157Y-99976596D01*
X151796229Y-99971458D01*
X151789837Y-99965665D01*
X151276619Y-99452447D01*
X151270826Y-99446055D01*
X151265688Y-99439127D01*
X151261253Y-99431728D01*
X151257565Y-99423930D01*
X151254659Y-99415808D01*
X151252563Y-99407440D01*
X151251297Y-99398908D01*
X151250874Y-99390292D01*
X151251297Y-99381676D01*
X151252563Y-99373144D01*
X151254659Y-99364776D01*
X151257565Y-99356654D01*
X151261253Y-99348856D01*
X151265688Y-99341457D01*
X151270826Y-99334529D01*
X151276619Y-99328137D01*
X151400929Y-99203827D01*
X151407321Y-99198034D01*
X151414249Y-99192896D01*
X151421648Y-99188461D01*
X151429446Y-99184773D01*
X151437568Y-99181867D01*
X151445936Y-99179771D01*
X151454468Y-99178505D01*
X151463084Y-99178082D01*
X151471700Y-99178505D01*
G37*
G36*
X151609430Y-99148514D02*
G01*
X151601657Y-99139043D01*
X151596125Y-99130763D01*
X151590349Y-99119957D01*
X151586539Y-99110758D01*
X151582982Y-99099034D01*
X151581039Y-99089265D01*
X151579838Y-99077072D01*
X151579838Y-99067116D01*
X151581039Y-99054922D01*
X151582982Y-99045153D01*
X151586539Y-99033429D01*
X151590349Y-99024230D01*
X151596125Y-99013424D01*
X151601657Y-99005144D01*
X151609430Y-98995673D01*
X151612778Y-98991978D01*
X151701166Y-98903590D01*
X151704861Y-98900242D01*
X151714332Y-98892469D01*
X151722612Y-98886937D01*
X151733418Y-98881161D01*
X151742617Y-98877351D01*
X151754341Y-98873794D01*
X151764110Y-98871851D01*
X151776304Y-98870650D01*
X151786260Y-98870650D01*
X151798453Y-98871851D01*
X151808222Y-98873794D01*
X151819946Y-98877351D01*
X151829145Y-98881161D01*
X151839951Y-98886937D01*
X151848231Y-98892469D01*
X151857702Y-98900242D01*
X151861397Y-98903590D01*
X152293872Y-99336065D01*
X152297220Y-99339760D01*
X152304992Y-99349231D01*
X152310525Y-99357511D01*
X152316301Y-99368317D01*
X152320111Y-99377516D01*
X152323668Y-99389240D01*
X152325611Y-99399009D01*
X152326812Y-99411202D01*
X152327056Y-99416180D01*
X152327056Y-99505824D01*
X152326812Y-99510802D01*
X152325611Y-99522996D01*
X152323668Y-99532765D01*
X152320111Y-99544489D01*
X152316301Y-99553688D01*
X152310525Y-99564494D01*
X152304992Y-99572774D01*
X152297220Y-99582245D01*
X152293872Y-99585940D01*
X152250306Y-99629506D01*
X152246611Y-99632854D01*
X152237140Y-99640627D01*
X152228860Y-99646159D01*
X152218054Y-99651935D01*
X152208855Y-99655745D01*
X152197131Y-99659302D01*
X152187362Y-99661245D01*
X152175168Y-99662446D01*
X152165212Y-99662446D01*
X152153019Y-99661245D01*
X152143250Y-99659302D01*
X152131526Y-99655745D01*
X152122327Y-99651935D01*
X152111521Y-99646159D01*
X152103241Y-99640627D01*
X152093770Y-99632854D01*
X152090075Y-99629506D01*
X151612778Y-99152209D01*
X151609430Y-99148514D01*
G37*
G36*
X152502780Y-99582245D02*
G01*
X152495008Y-99572774D01*
X152489475Y-99564494D01*
X152483699Y-99553688D01*
X152479889Y-99544489D01*
X152476332Y-99532765D01*
X152474389Y-99522996D01*
X152473188Y-99510802D01*
X152472944Y-99505824D01*
X152472944Y-99416180D01*
X152473188Y-99411202D01*
X152474389Y-99399009D01*
X152476332Y-99389240D01*
X152479889Y-99377516D01*
X152483699Y-99368317D01*
X152489475Y-99357511D01*
X152495008Y-99349231D01*
X152502780Y-99339760D01*
X152506128Y-99336065D01*
X152938603Y-98903590D01*
X152942298Y-98900242D01*
X152951769Y-98892469D01*
X152960049Y-98886937D01*
X152970855Y-98881161D01*
X152980054Y-98877351D01*
X152991778Y-98873794D01*
X153001547Y-98871851D01*
X153013740Y-98870650D01*
X153023696Y-98870650D01*
X153035890Y-98871851D01*
X153045659Y-98873794D01*
X153057383Y-98877351D01*
X153066582Y-98881161D01*
X153077388Y-98886937D01*
X153085668Y-98892469D01*
X153095139Y-98900242D01*
X153098834Y-98903590D01*
X153187222Y-98991978D01*
X153190570Y-98995673D01*
X153198343Y-99005144D01*
X153203875Y-99013424D01*
X153209651Y-99024230D01*
X153213461Y-99033429D01*
X153217018Y-99045153D01*
X153218961Y-99054922D01*
X153220162Y-99067116D01*
X153220162Y-99077072D01*
X153218961Y-99089265D01*
X153217018Y-99099034D01*
X153213461Y-99110758D01*
X153209651Y-99119957D01*
X153203875Y-99130763D01*
X153198343Y-99139043D01*
X153190570Y-99148514D01*
X153187222Y-99152209D01*
X152709925Y-99629506D01*
X152706230Y-99632854D01*
X152696759Y-99640627D01*
X152688479Y-99646159D01*
X152677673Y-99651935D01*
X152668474Y-99655745D01*
X152656750Y-99659302D01*
X152646981Y-99661245D01*
X152634788Y-99662446D01*
X152624832Y-99662446D01*
X152612638Y-99661245D01*
X152602869Y-99659302D01*
X152591145Y-99655745D01*
X152581946Y-99651935D01*
X152571140Y-99646159D01*
X152562860Y-99640627D01*
X152553389Y-99632854D01*
X152549694Y-99629506D01*
X152506128Y-99585940D01*
X152502780Y-99582245D01*
G37*
G36*
X153345532Y-99178505D02*
G01*
X153354064Y-99179771D01*
X153362432Y-99181867D01*
X153370554Y-99184773D01*
X153378352Y-99188461D01*
X153385751Y-99192896D01*
X153392679Y-99198034D01*
X153399071Y-99203827D01*
X153523381Y-99328137D01*
X153529174Y-99334529D01*
X153534312Y-99341457D01*
X153538747Y-99348856D01*
X153542435Y-99356654D01*
X153545341Y-99364776D01*
X153547437Y-99373144D01*
X153548703Y-99381676D01*
X153549126Y-99390292D01*
X153548703Y-99398908D01*
X153547437Y-99407440D01*
X153545341Y-99415808D01*
X153542435Y-99423930D01*
X153538747Y-99431728D01*
X153534312Y-99439127D01*
X153529174Y-99446055D01*
X153523381Y-99452447D01*
X153010163Y-99965665D01*
X153003771Y-99971458D01*
X152996843Y-99976596D01*
X152989444Y-99981031D01*
X152981646Y-99984719D01*
X152973524Y-99987625D01*
X152965156Y-99989721D01*
X152956624Y-99990987D01*
X152948008Y-99991410D01*
X152939392Y-99990987D01*
X152930860Y-99989721D01*
X152922492Y-99987625D01*
X152914370Y-99984719D01*
X152906572Y-99981031D01*
X152899173Y-99976596D01*
X152892245Y-99971458D01*
X152885853Y-99965665D01*
X152761543Y-99841355D01*
X152755750Y-99834963D01*
X152750612Y-99828035D01*
X152746177Y-99820636D01*
X152742489Y-99812838D01*
X152739583Y-99804716D01*
X152737487Y-99796348D01*
X152736221Y-99787816D01*
X152735798Y-99779200D01*
X152736221Y-99770584D01*
X152737487Y-99762052D01*
X152739583Y-99753684D01*
X152742489Y-99745562D01*
X152746177Y-99737764D01*
X152750612Y-99730365D01*
X152755750Y-99723437D01*
X152761543Y-99717045D01*
X153274761Y-99203827D01*
X153281153Y-99198034D01*
X153288081Y-99192896D01*
X153295480Y-99188461D01*
X153303278Y-99184773D01*
X153311400Y-99181867D01*
X153319768Y-99179771D01*
X153328300Y-99178505D01*
X153336916Y-99178082D01*
X153345532Y-99178505D01*
G37*
G36*
X153663730Y-99496703D02*
G01*
X153672262Y-99497969D01*
X153680630Y-99500065D01*
X153688752Y-99502971D01*
X153696550Y-99506659D01*
X153703949Y-99511094D01*
X153710877Y-99516232D01*
X153717269Y-99522025D01*
X153841579Y-99646335D01*
X153847372Y-99652727D01*
X153852510Y-99659655D01*
X153856945Y-99667054D01*
X153860633Y-99674852D01*
X153863539Y-99682974D01*
X153865635Y-99691342D01*
X153866901Y-99699874D01*
X153867324Y-99708490D01*
X153866901Y-99717106D01*
X153865635Y-99725638D01*
X153863539Y-99734006D01*
X153860633Y-99742128D01*
X153856945Y-99749926D01*
X153852510Y-99757325D01*
X153847372Y-99764253D01*
X153841579Y-99770645D01*
X153328361Y-100283863D01*
X153321969Y-100289656D01*
X153315041Y-100294794D01*
X153307642Y-100299229D01*
X153299844Y-100302917D01*
X153291722Y-100305823D01*
X153283354Y-100307919D01*
X153274822Y-100309185D01*
X153266206Y-100309608D01*
X153257590Y-100309185D01*
X153249058Y-100307919D01*
X153240690Y-100305823D01*
X153232568Y-100302917D01*
X153224770Y-100299229D01*
X153217371Y-100294794D01*
X153210443Y-100289656D01*
X153204051Y-100283863D01*
X153079741Y-100159553D01*
X153073948Y-100153161D01*
X153068810Y-100146233D01*
X153064375Y-100138834D01*
X153060687Y-100131036D01*
X153057781Y-100122914D01*
X153055685Y-100114546D01*
X153054419Y-100106014D01*
X153053996Y-100097398D01*
X153054419Y-100088782D01*
X153055685Y-100080250D01*
X153057781Y-100071882D01*
X153060687Y-100063760D01*
X153064375Y-100055962D01*
X153068810Y-100048563D01*
X153073948Y-100041635D01*
X153079741Y-100035243D01*
X153592959Y-99522025D01*
X153599351Y-99516232D01*
X153606279Y-99511094D01*
X153613678Y-99506659D01*
X153621476Y-99502971D01*
X153629598Y-99500065D01*
X153637966Y-99497969D01*
X153646498Y-99496703D01*
X153655114Y-99496280D01*
X153663730Y-99496703D01*
G37*
G36*
X153981928Y-99814901D02*
G01*
X153990460Y-99816167D01*
X153998828Y-99818263D01*
X154006950Y-99821169D01*
X154014748Y-99824857D01*
X154022147Y-99829292D01*
X154029075Y-99834430D01*
X154035467Y-99840223D01*
X154159777Y-99964533D01*
X154165570Y-99970925D01*
X154170708Y-99977853D01*
X154175143Y-99985252D01*
X154178831Y-99993050D01*
X154181737Y-100001172D01*
X154183833Y-100009540D01*
X154185099Y-100018072D01*
X154185522Y-100026688D01*
X154185099Y-100035304D01*
X154183833Y-100043836D01*
X154181737Y-100052204D01*
X154178831Y-100060326D01*
X154175143Y-100068124D01*
X154170708Y-100075523D01*
X154165570Y-100082451D01*
X154159777Y-100088843D01*
X153646559Y-100602061D01*
X153640167Y-100607854D01*
X153633239Y-100612992D01*
X153625840Y-100617427D01*
X153618042Y-100621115D01*
X153609920Y-100624021D01*
X153601552Y-100626117D01*
X153593020Y-100627383D01*
X153584404Y-100627806D01*
X153575788Y-100627383D01*
X153567256Y-100626117D01*
X153558888Y-100624021D01*
X153550766Y-100621115D01*
X153542968Y-100617427D01*
X153535569Y-100612992D01*
X153528641Y-100607854D01*
X153522249Y-100602061D01*
X153397939Y-100477751D01*
X153392146Y-100471359D01*
X153387008Y-100464431D01*
X153382573Y-100457032D01*
X153378885Y-100449234D01*
X153375979Y-100441112D01*
X153373883Y-100432744D01*
X153372617Y-100424212D01*
X153372194Y-100415596D01*
X153372617Y-100406980D01*
X153373883Y-100398448D01*
X153375979Y-100390080D01*
X153378885Y-100381958D01*
X153382573Y-100374160D01*
X153387008Y-100366761D01*
X153392146Y-100359833D01*
X153397939Y-100353441D01*
X153911157Y-99840223D01*
X153917549Y-99834430D01*
X153924477Y-99829292D01*
X153931876Y-99824857D01*
X153939674Y-99821169D01*
X153947796Y-99818263D01*
X153956164Y-99816167D01*
X153964696Y-99814901D01*
X153973312Y-99814478D01*
X153981928Y-99814901D01*
G37*
G36*
X154300126Y-100133099D02*
G01*
X154308658Y-100134365D01*
X154317026Y-100136461D01*
X154325148Y-100139367D01*
X154332946Y-100143055D01*
X154340345Y-100147490D01*
X154347273Y-100152628D01*
X154353665Y-100158421D01*
X154477975Y-100282731D01*
X154483768Y-100289123D01*
X154488906Y-100296051D01*
X154493341Y-100303450D01*
X154497029Y-100311248D01*
X154499935Y-100319370D01*
X154502031Y-100327738D01*
X154503297Y-100336270D01*
X154503720Y-100344886D01*
X154503297Y-100353502D01*
X154502031Y-100362034D01*
X154499935Y-100370402D01*
X154497029Y-100378524D01*
X154493341Y-100386322D01*
X154488906Y-100393721D01*
X154483768Y-100400649D01*
X154477975Y-100407041D01*
X153964757Y-100920259D01*
X153958365Y-100926052D01*
X153951437Y-100931190D01*
X153944038Y-100935625D01*
X153936240Y-100939313D01*
X153928118Y-100942219D01*
X153919750Y-100944315D01*
X153911218Y-100945581D01*
X153902602Y-100946004D01*
X153893986Y-100945581D01*
X153885454Y-100944315D01*
X153877086Y-100942219D01*
X153868964Y-100939313D01*
X153861166Y-100935625D01*
X153853767Y-100931190D01*
X153846839Y-100926052D01*
X153840447Y-100920259D01*
X153716137Y-100795949D01*
X153710344Y-100789557D01*
X153705206Y-100782629D01*
X153700771Y-100775230D01*
X153697083Y-100767432D01*
X153694177Y-100759310D01*
X153692081Y-100750942D01*
X153690815Y-100742410D01*
X153690392Y-100733794D01*
X153690815Y-100725178D01*
X153692081Y-100716646D01*
X153694177Y-100708278D01*
X153697083Y-100700156D01*
X153700771Y-100692358D01*
X153705206Y-100684959D01*
X153710344Y-100678031D01*
X153716137Y-100671639D01*
X154229355Y-100158421D01*
X154235747Y-100152628D01*
X154242675Y-100147490D01*
X154250074Y-100143055D01*
X154257872Y-100139367D01*
X154265994Y-100136461D01*
X154274362Y-100134365D01*
X154282894Y-100133099D01*
X154291510Y-100132676D01*
X154300126Y-100133099D01*
G37*
G36*
X154618324Y-100451297D02*
G01*
X154626856Y-100452563D01*
X154635224Y-100454659D01*
X154643346Y-100457565D01*
X154651144Y-100461253D01*
X154658543Y-100465688D01*
X154665471Y-100470826D01*
X154671863Y-100476619D01*
X154796173Y-100600929D01*
X154801966Y-100607321D01*
X154807104Y-100614249D01*
X154811539Y-100621648D01*
X154815227Y-100629446D01*
X154818133Y-100637568D01*
X154820229Y-100645936D01*
X154821495Y-100654468D01*
X154821918Y-100663084D01*
X154821495Y-100671700D01*
X154820229Y-100680232D01*
X154818133Y-100688600D01*
X154815227Y-100696722D01*
X154811539Y-100704520D01*
X154807104Y-100711919D01*
X154801966Y-100718847D01*
X154796173Y-100725239D01*
X154282955Y-101238457D01*
X154276563Y-101244250D01*
X154269635Y-101249388D01*
X154262236Y-101253823D01*
X154254438Y-101257511D01*
X154246316Y-101260417D01*
X154237948Y-101262513D01*
X154229416Y-101263779D01*
X154220800Y-101264202D01*
X154212184Y-101263779D01*
X154203652Y-101262513D01*
X154195284Y-101260417D01*
X154187162Y-101257511D01*
X154179364Y-101253823D01*
X154171965Y-101249388D01*
X154165037Y-101244250D01*
X154158645Y-101238457D01*
X154034335Y-101114147D01*
X154028542Y-101107755D01*
X154023404Y-101100827D01*
X154018969Y-101093428D01*
X154015281Y-101085630D01*
X154012375Y-101077508D01*
X154010279Y-101069140D01*
X154009013Y-101060608D01*
X154008590Y-101051992D01*
X154009013Y-101043376D01*
X154010279Y-101034844D01*
X154012375Y-101026476D01*
X154015281Y-101018354D01*
X154018969Y-101010556D01*
X154023404Y-101003157D01*
X154028542Y-100996229D01*
X154034335Y-100989837D01*
X154547553Y-100476619D01*
X154553945Y-100470826D01*
X154560873Y-100465688D01*
X154568272Y-100461253D01*
X154576070Y-100457565D01*
X154584192Y-100454659D01*
X154592560Y-100452563D01*
X154601092Y-100451297D01*
X154609708Y-100450874D01*
X154618324Y-100451297D01*
G37*
G36*
X154367146Y-101446611D02*
G01*
X154359373Y-101437140D01*
X154353841Y-101428860D01*
X154348065Y-101418054D01*
X154344255Y-101408855D01*
X154340698Y-101397131D01*
X154338755Y-101387362D01*
X154337554Y-101375168D01*
X154337554Y-101365212D01*
X154338755Y-101353019D01*
X154340698Y-101343250D01*
X154344255Y-101331526D01*
X154348065Y-101322327D01*
X154353841Y-101311521D01*
X154359373Y-101303241D01*
X154367146Y-101293770D01*
X154370494Y-101290075D01*
X154847791Y-100812778D01*
X154851486Y-100809430D01*
X154860957Y-100801657D01*
X154869237Y-100796125D01*
X154880043Y-100790349D01*
X154889242Y-100786539D01*
X154900966Y-100782982D01*
X154910735Y-100781039D01*
X154922928Y-100779838D01*
X154932884Y-100779838D01*
X154945078Y-100781039D01*
X154954847Y-100782982D01*
X154966571Y-100786539D01*
X154975770Y-100790349D01*
X154986576Y-100796125D01*
X154994856Y-100801657D01*
X155004327Y-100809430D01*
X155008022Y-100812778D01*
X155096410Y-100901166D01*
X155099758Y-100904861D01*
X155107531Y-100914332D01*
X155113063Y-100922612D01*
X155118839Y-100933418D01*
X155122649Y-100942617D01*
X155126206Y-100954341D01*
X155128149Y-100964110D01*
X155129350Y-100976304D01*
X155129350Y-100986260D01*
X155128149Y-100998453D01*
X155126206Y-101008222D01*
X155122649Y-101019946D01*
X155118839Y-101029145D01*
X155113063Y-101039951D01*
X155107531Y-101048231D01*
X155099758Y-101057702D01*
X155096410Y-101061397D01*
X154663935Y-101493872D01*
X154660240Y-101497220D01*
X154650769Y-101504992D01*
X154642489Y-101510525D01*
X154631683Y-101516301D01*
X154622484Y-101520111D01*
X154610760Y-101523668D01*
X154600991Y-101525611D01*
X154588798Y-101526812D01*
X154583820Y-101527056D01*
X154494176Y-101527056D01*
X154489198Y-101526812D01*
X154477004Y-101525611D01*
X154467235Y-101523668D01*
X154455511Y-101520111D01*
X154446312Y-101516301D01*
X154435506Y-101510525D01*
X154427226Y-101504992D01*
X154417755Y-101497220D01*
X154414060Y-101493872D01*
X154370494Y-101450306D01*
X154367146Y-101446611D01*
G37*
G36*
X154367146Y-101906230D02*
G01*
X154359373Y-101896759D01*
X154353841Y-101888479D01*
X154348065Y-101877673D01*
X154344255Y-101868474D01*
X154340698Y-101856750D01*
X154338755Y-101846981D01*
X154337554Y-101834788D01*
X154337554Y-101824832D01*
X154338755Y-101812638D01*
X154340698Y-101802869D01*
X154344255Y-101791145D01*
X154348065Y-101781946D01*
X154353841Y-101771140D01*
X154359373Y-101762860D01*
X154367146Y-101753389D01*
X154370494Y-101749694D01*
X154414060Y-101706128D01*
X154417755Y-101702780D01*
X154427226Y-101695008D01*
X154435506Y-101689475D01*
X154446312Y-101683699D01*
X154455511Y-101679889D01*
X154467235Y-101676332D01*
X154477004Y-101674389D01*
X154489198Y-101673188D01*
X154494176Y-101672944D01*
X154583820Y-101672944D01*
X154588798Y-101673188D01*
X154600991Y-101674389D01*
X154610760Y-101676332D01*
X154622484Y-101679889D01*
X154631683Y-101683699D01*
X154642489Y-101689475D01*
X154650769Y-101695008D01*
X154660240Y-101702780D01*
X154663935Y-101706128D01*
X155096410Y-102138603D01*
X155099758Y-102142298D01*
X155107531Y-102151769D01*
X155113063Y-102160049D01*
X155118839Y-102170855D01*
X155122649Y-102180054D01*
X155126206Y-102191778D01*
X155128149Y-102201547D01*
X155129350Y-102213740D01*
X155129350Y-102223696D01*
X155128149Y-102235890D01*
X155126206Y-102245659D01*
X155122649Y-102257383D01*
X155118839Y-102266582D01*
X155113063Y-102277388D01*
X155107531Y-102285668D01*
X155099758Y-102295139D01*
X155096410Y-102298834D01*
X155008022Y-102387222D01*
X155004327Y-102390570D01*
X154994856Y-102398343D01*
X154986576Y-102403875D01*
X154975770Y-102409651D01*
X154966571Y-102413461D01*
X154954847Y-102417018D01*
X154945078Y-102418961D01*
X154932884Y-102420162D01*
X154922928Y-102420162D01*
X154910735Y-102418961D01*
X154900966Y-102417018D01*
X154889242Y-102413461D01*
X154880043Y-102409651D01*
X154869237Y-102403875D01*
X154860957Y-102398343D01*
X154851486Y-102390570D01*
X154847791Y-102387222D01*
X154370494Y-101909925D01*
X154367146Y-101906230D01*
G37*
G36*
X154229416Y-101936221D02*
G01*
X154237948Y-101937487D01*
X154246316Y-101939583D01*
X154254438Y-101942489D01*
X154262236Y-101946177D01*
X154269635Y-101950612D01*
X154276563Y-101955750D01*
X154282955Y-101961543D01*
X154796173Y-102474761D01*
X154801966Y-102481153D01*
X154807104Y-102488081D01*
X154811539Y-102495480D01*
X154815227Y-102503278D01*
X154818133Y-102511400D01*
X154820229Y-102519768D01*
X154821495Y-102528300D01*
X154821918Y-102536916D01*
X154821495Y-102545532D01*
X154820229Y-102554064D01*
X154818133Y-102562432D01*
X154815227Y-102570554D01*
X154811539Y-102578352D01*
X154807104Y-102585751D01*
X154801966Y-102592679D01*
X154796173Y-102599071D01*
X154671863Y-102723381D01*
X154665471Y-102729174D01*
X154658543Y-102734312D01*
X154651144Y-102738747D01*
X154643346Y-102742435D01*
X154635224Y-102745341D01*
X154626856Y-102747437D01*
X154618324Y-102748703D01*
X154609708Y-102749126D01*
X154601092Y-102748703D01*
X154592560Y-102747437D01*
X154584192Y-102745341D01*
X154576070Y-102742435D01*
X154568272Y-102738747D01*
X154560873Y-102734312D01*
X154553945Y-102729174D01*
X154547553Y-102723381D01*
X154034335Y-102210163D01*
X154028542Y-102203771D01*
X154023404Y-102196843D01*
X154018969Y-102189444D01*
X154015281Y-102181646D01*
X154012375Y-102173524D01*
X154010279Y-102165156D01*
X154009013Y-102156624D01*
X154008590Y-102148008D01*
X154009013Y-102139392D01*
X154010279Y-102130860D01*
X154012375Y-102122492D01*
X154015281Y-102114370D01*
X154018969Y-102106572D01*
X154023404Y-102099173D01*
X154028542Y-102092245D01*
X154034335Y-102085853D01*
X154158645Y-101961543D01*
X154165037Y-101955750D01*
X154171965Y-101950612D01*
X154179364Y-101946177D01*
X154187162Y-101942489D01*
X154195284Y-101939583D01*
X154203652Y-101937487D01*
X154212184Y-101936221D01*
X154220800Y-101935798D01*
X154229416Y-101936221D01*
G37*
G36*
X153911218Y-102254419D02*
G01*
X153919750Y-102255685D01*
X153928118Y-102257781D01*
X153936240Y-102260687D01*
X153944038Y-102264375D01*
X153951437Y-102268810D01*
X153958365Y-102273948D01*
X153964757Y-102279741D01*
X154477975Y-102792959D01*
X154483768Y-102799351D01*
X154488906Y-102806279D01*
X154493341Y-102813678D01*
X154497029Y-102821476D01*
X154499935Y-102829598D01*
X154502031Y-102837966D01*
X154503297Y-102846498D01*
X154503720Y-102855114D01*
X154503297Y-102863730D01*
X154502031Y-102872262D01*
X154499935Y-102880630D01*
X154497029Y-102888752D01*
X154493341Y-102896550D01*
X154488906Y-102903949D01*
X154483768Y-102910877D01*
X154477975Y-102917269D01*
X154353665Y-103041579D01*
X154347273Y-103047372D01*
X154340345Y-103052510D01*
X154332946Y-103056945D01*
X154325148Y-103060633D01*
X154317026Y-103063539D01*
X154308658Y-103065635D01*
X154300126Y-103066901D01*
X154291510Y-103067324D01*
X154282894Y-103066901D01*
X154274362Y-103065635D01*
X154265994Y-103063539D01*
X154257872Y-103060633D01*
X154250074Y-103056945D01*
X154242675Y-103052510D01*
X154235747Y-103047372D01*
X154229355Y-103041579D01*
X153716137Y-102528361D01*
X153710344Y-102521969D01*
X153705206Y-102515041D01*
X153700771Y-102507642D01*
X153697083Y-102499844D01*
X153694177Y-102491722D01*
X153692081Y-102483354D01*
X153690815Y-102474822D01*
X153690392Y-102466206D01*
X153690815Y-102457590D01*
X153692081Y-102449058D01*
X153694177Y-102440690D01*
X153697083Y-102432568D01*
X153700771Y-102424770D01*
X153705206Y-102417371D01*
X153710344Y-102410443D01*
X153716137Y-102404051D01*
X153840447Y-102279741D01*
X153846839Y-102273948D01*
X153853767Y-102268810D01*
X153861166Y-102264375D01*
X153868964Y-102260687D01*
X153877086Y-102257781D01*
X153885454Y-102255685D01*
X153893986Y-102254419D01*
X153902602Y-102253996D01*
X153911218Y-102254419D01*
G37*
G36*
X153593020Y-102572617D02*
G01*
X153601552Y-102573883D01*
X153609920Y-102575979D01*
X153618042Y-102578885D01*
X153625840Y-102582573D01*
X153633239Y-102587008D01*
X153640167Y-102592146D01*
X153646559Y-102597939D01*
X154159777Y-103111157D01*
X154165570Y-103117549D01*
X154170708Y-103124477D01*
X154175143Y-103131876D01*
X154178831Y-103139674D01*
X154181737Y-103147796D01*
X154183833Y-103156164D01*
X154185099Y-103164696D01*
X154185522Y-103173312D01*
X154185099Y-103181928D01*
X154183833Y-103190460D01*
X154181737Y-103198828D01*
X154178831Y-103206950D01*
X154175143Y-103214748D01*
X154170708Y-103222147D01*
X154165570Y-103229075D01*
X154159777Y-103235467D01*
X154035467Y-103359777D01*
X154029075Y-103365570D01*
X154022147Y-103370708D01*
X154014748Y-103375143D01*
X154006950Y-103378831D01*
X153998828Y-103381737D01*
X153990460Y-103383833D01*
X153981928Y-103385099D01*
X153973312Y-103385522D01*
X153964696Y-103385099D01*
X153956164Y-103383833D01*
X153947796Y-103381737D01*
X153939674Y-103378831D01*
X153931876Y-103375143D01*
X153924477Y-103370708D01*
X153917549Y-103365570D01*
X153911157Y-103359777D01*
X153397939Y-102846559D01*
X153392146Y-102840167D01*
X153387008Y-102833239D01*
X153382573Y-102825840D01*
X153378885Y-102818042D01*
X153375979Y-102809920D01*
X153373883Y-102801552D01*
X153372617Y-102793020D01*
X153372194Y-102784404D01*
X153372617Y-102775788D01*
X153373883Y-102767256D01*
X153375979Y-102758888D01*
X153378885Y-102750766D01*
X153382573Y-102742968D01*
X153387008Y-102735569D01*
X153392146Y-102728641D01*
X153397939Y-102722249D01*
X153522249Y-102597939D01*
X153528641Y-102592146D01*
X153535569Y-102587008D01*
X153542968Y-102582573D01*
X153550766Y-102578885D01*
X153558888Y-102575979D01*
X153567256Y-102573883D01*
X153575788Y-102572617D01*
X153584404Y-102572194D01*
X153593020Y-102572617D01*
G37*
G36*
X153274822Y-102890815D02*
G01*
X153283354Y-102892081D01*
X153291722Y-102894177D01*
X153299844Y-102897083D01*
X153307642Y-102900771D01*
X153315041Y-102905206D01*
X153321969Y-102910344D01*
X153328361Y-102916137D01*
X153841579Y-103429355D01*
X153847372Y-103435747D01*
X153852510Y-103442675D01*
X153856945Y-103450074D01*
X153860633Y-103457872D01*
X153863539Y-103465994D01*
X153865635Y-103474362D01*
X153866901Y-103482894D01*
X153867324Y-103491510D01*
X153866901Y-103500126D01*
X153865635Y-103508658D01*
X153863539Y-103517026D01*
X153860633Y-103525148D01*
X153856945Y-103532946D01*
X153852510Y-103540345D01*
X153847372Y-103547273D01*
X153841579Y-103553665D01*
X153717269Y-103677975D01*
X153710877Y-103683768D01*
X153703949Y-103688906D01*
X153696550Y-103693341D01*
X153688752Y-103697029D01*
X153680630Y-103699935D01*
X153672262Y-103702031D01*
X153663730Y-103703297D01*
X153655114Y-103703720D01*
X153646498Y-103703297D01*
X153637966Y-103702031D01*
X153629598Y-103699935D01*
X153621476Y-103697029D01*
X153613678Y-103693341D01*
X153606279Y-103688906D01*
X153599351Y-103683768D01*
X153592959Y-103677975D01*
X153079741Y-103164757D01*
X153073948Y-103158365D01*
X153068810Y-103151437D01*
X153064375Y-103144038D01*
X153060687Y-103136240D01*
X153057781Y-103128118D01*
X153055685Y-103119750D01*
X153054419Y-103111218D01*
X153053996Y-103102602D01*
X153054419Y-103093986D01*
X153055685Y-103085454D01*
X153057781Y-103077086D01*
X153060687Y-103068964D01*
X153064375Y-103061166D01*
X153068810Y-103053767D01*
X153073948Y-103046839D01*
X153079741Y-103040447D01*
X153204051Y-102916137D01*
X153210443Y-102910344D01*
X153217371Y-102905206D01*
X153224770Y-102900771D01*
X153232568Y-102897083D01*
X153240690Y-102894177D01*
X153249058Y-102892081D01*
X153257590Y-102890815D01*
X153266206Y-102890392D01*
X153274822Y-102890815D01*
G37*
G36*
X152956624Y-103209013D02*
G01*
X152965156Y-103210279D01*
X152973524Y-103212375D01*
X152981646Y-103215281D01*
X152989444Y-103218969D01*
X152996843Y-103223404D01*
X153003771Y-103228542D01*
X153010163Y-103234335D01*
X153523381Y-103747553D01*
X153529174Y-103753945D01*
X153534312Y-103760873D01*
X153538747Y-103768272D01*
X153542435Y-103776070D01*
X153545341Y-103784192D01*
X153547437Y-103792560D01*
X153548703Y-103801092D01*
X153549126Y-103809708D01*
X153548703Y-103818324D01*
X153547437Y-103826856D01*
X153545341Y-103835224D01*
X153542435Y-103843346D01*
X153538747Y-103851144D01*
X153534312Y-103858543D01*
X153529174Y-103865471D01*
X153523381Y-103871863D01*
X153399071Y-103996173D01*
X153392679Y-104001966D01*
X153385751Y-104007104D01*
X153378352Y-104011539D01*
X153370554Y-104015227D01*
X153362432Y-104018133D01*
X153354064Y-104020229D01*
X153345532Y-104021495D01*
X153336916Y-104021918D01*
X153328300Y-104021495D01*
X153319768Y-104020229D01*
X153311400Y-104018133D01*
X153303278Y-104015227D01*
X153295480Y-104011539D01*
X153288081Y-104007104D01*
X153281153Y-104001966D01*
X153274761Y-103996173D01*
X152761543Y-103482955D01*
X152755750Y-103476563D01*
X152750612Y-103469635D01*
X152746177Y-103462236D01*
X152742489Y-103454438D01*
X152739583Y-103446316D01*
X152737487Y-103437948D01*
X152736221Y-103429416D01*
X152735798Y-103420800D01*
X152736221Y-103412184D01*
X152737487Y-103403652D01*
X152739583Y-103395284D01*
X152742489Y-103387162D01*
X152746177Y-103379364D01*
X152750612Y-103371965D01*
X152755750Y-103365037D01*
X152761543Y-103358645D01*
X152885853Y-103234335D01*
X152892245Y-103228542D01*
X152899173Y-103223404D01*
X152906572Y-103218969D01*
X152914370Y-103215281D01*
X152922492Y-103212375D01*
X152930860Y-103210279D01*
X152939392Y-103209013D01*
X152948008Y-103208590D01*
X152956624Y-103209013D01*
G37*
G36*
X152502780Y-103860240D02*
G01*
X152495008Y-103850769D01*
X152489475Y-103842489D01*
X152483699Y-103831683D01*
X152479889Y-103822484D01*
X152476332Y-103810760D01*
X152474389Y-103800991D01*
X152473188Y-103788798D01*
X152472944Y-103783820D01*
X152472944Y-103694176D01*
X152473188Y-103689198D01*
X152474389Y-103677004D01*
X152476332Y-103667235D01*
X152479889Y-103655511D01*
X152483699Y-103646312D01*
X152489475Y-103635506D01*
X152495008Y-103627226D01*
X152502780Y-103617755D01*
X152506128Y-103614060D01*
X152549694Y-103570494D01*
X152553389Y-103567146D01*
X152562860Y-103559373D01*
X152571140Y-103553841D01*
X152581946Y-103548065D01*
X152591145Y-103544255D01*
X152602869Y-103540698D01*
X152612638Y-103538755D01*
X152624832Y-103537554D01*
X152634788Y-103537554D01*
X152646981Y-103538755D01*
X152656750Y-103540698D01*
X152668474Y-103544255D01*
X152677673Y-103548065D01*
X152688479Y-103553841D01*
X152696759Y-103559373D01*
X152706230Y-103567146D01*
X152709925Y-103570494D01*
X153187222Y-104047791D01*
X153190570Y-104051486D01*
X153198343Y-104060957D01*
X153203875Y-104069237D01*
X153209651Y-104080043D01*
X153213461Y-104089242D01*
X153217018Y-104100966D01*
X153218961Y-104110735D01*
X153220162Y-104122928D01*
X153220162Y-104132884D01*
X153218961Y-104145078D01*
X153217018Y-104154847D01*
X153213461Y-104166571D01*
X153209651Y-104175770D01*
X153203875Y-104186576D01*
X153198343Y-104194856D01*
X153190570Y-104204327D01*
X153187222Y-104208022D01*
X153098834Y-104296410D01*
X153095139Y-104299758D01*
X153085668Y-104307531D01*
X153077388Y-104313063D01*
X153066582Y-104318839D01*
X153057383Y-104322649D01*
X153045659Y-104326206D01*
X153035890Y-104328149D01*
X153023696Y-104329350D01*
X153013740Y-104329350D01*
X153001547Y-104328149D01*
X152991778Y-104326206D01*
X152980054Y-104322649D01*
X152970855Y-104318839D01*
X152960049Y-104313063D01*
X152951769Y-104307531D01*
X152942298Y-104299758D01*
X152938603Y-104296410D01*
X152506128Y-103863935D01*
X152502780Y-103860240D01*
G37*
G36*
X152425542Y-99940294D02*
G01*
X152450837Y-99944046D01*
X152475644Y-99950260D01*
X152499721Y-99958875D01*
X152522838Y-99969808D01*
X152544773Y-99982955D01*
X152565313Y-99998189D01*
X152584261Y-100015362D01*
X153984638Y-101415739D01*
X154001811Y-101434687D01*
X154017045Y-101455227D01*
X154030192Y-101477162D01*
X154041125Y-101500279D01*
X154049740Y-101524356D01*
X154055954Y-101549163D01*
X154059706Y-101574458D01*
X154060961Y-101600000D01*
X154059706Y-101625542D01*
X154055954Y-101650837D01*
X154049740Y-101675644D01*
X154041125Y-101699721D01*
X154030192Y-101722838D01*
X154017045Y-101744773D01*
X154001811Y-101765313D01*
X153984638Y-101784261D01*
X152584261Y-103184638D01*
X152565313Y-103201811D01*
X152544773Y-103217045D01*
X152522838Y-103230192D01*
X152499721Y-103241125D01*
X152475644Y-103249740D01*
X152450837Y-103255954D01*
X152425542Y-103259706D01*
X152400000Y-103260961D01*
X152374458Y-103259706D01*
X152349163Y-103255954D01*
X152324356Y-103249740D01*
X152300279Y-103241125D01*
X152277162Y-103230192D01*
X152255227Y-103217045D01*
X152234687Y-103201811D01*
X152215739Y-103184638D01*
X150815362Y-101784261D01*
X150798189Y-101765313D01*
X150782955Y-101744773D01*
X150769808Y-101722838D01*
X150758875Y-101699721D01*
X150750260Y-101675644D01*
X150744046Y-101650837D01*
X150740294Y-101625542D01*
X150739039Y-101600000D01*
X150740294Y-101574458D01*
X150744046Y-101549163D01*
X150750260Y-101524356D01*
X150758875Y-101500279D01*
X150769808Y-101477162D01*
X150782955Y-101455227D01*
X150798189Y-101434687D01*
X150815362Y-101415739D01*
X152215739Y-100015362D01*
X152234687Y-99998189D01*
X152255227Y-99982955D01*
X152277162Y-99969808D01*
X152300279Y-99958875D01*
X152324356Y-99950260D01*
X152349163Y-99944046D01*
X152374458Y-99940294D01*
X152400000Y-99939039D01*
X152425542Y-99940294D01*
G37*
G36*
X152033081Y-91550376D02*
G01*
X152056781Y-91553891D01*
X152080023Y-91559713D01*
X152102582Y-91567785D01*
X152124242Y-91578029D01*
X152144792Y-91590347D01*
X152164037Y-91604619D01*
X152181790Y-91620710D01*
X152197881Y-91638463D01*
X152212153Y-91657708D01*
X152224471Y-91678258D01*
X152234715Y-91699918D01*
X152242787Y-91722477D01*
X152248609Y-91745719D01*
X152252124Y-91769419D01*
X152253300Y-91793350D01*
X152253300Y-92356650D01*
X152252124Y-92380581D01*
X152248609Y-92404281D01*
X152242787Y-92427523D01*
X152234715Y-92450082D01*
X152224471Y-92471742D01*
X152212153Y-92492292D01*
X152197881Y-92511537D01*
X152181790Y-92529290D01*
X152164037Y-92545381D01*
X152144792Y-92559653D01*
X152124242Y-92571971D01*
X152102582Y-92582215D01*
X152080023Y-92590287D01*
X152056781Y-92596109D01*
X152033081Y-92599624D01*
X152009150Y-92600800D01*
X151520850Y-92600800D01*
X151496919Y-92599624D01*
X151473219Y-92596109D01*
X151449977Y-92590287D01*
X151427418Y-92582215D01*
X151405758Y-92571971D01*
X151385208Y-92559653D01*
X151365963Y-92545381D01*
X151348210Y-92529290D01*
X151332119Y-92511537D01*
X151317847Y-92492292D01*
X151305529Y-92471742D01*
X151295285Y-92450082D01*
X151287213Y-92427523D01*
X151281391Y-92404281D01*
X151277876Y-92380581D01*
X151276700Y-92356650D01*
X151276700Y-91793350D01*
X151277876Y-91769419D01*
X151281391Y-91745719D01*
X151287213Y-91722477D01*
X151295285Y-91699918D01*
X151305529Y-91678258D01*
X151317847Y-91657708D01*
X151332119Y-91638463D01*
X151348210Y-91620710D01*
X151365963Y-91604619D01*
X151385208Y-91590347D01*
X151405758Y-91578029D01*
X151427418Y-91567785D01*
X151449977Y-91559713D01*
X151473219Y-91553891D01*
X151496919Y-91550376D01*
X151520850Y-91549200D01*
X152009150Y-91549200D01*
X152033081Y-91550376D01*
G37*
G36*
X153608081Y-91550376D02*
G01*
X153631781Y-91553891D01*
X153655023Y-91559713D01*
X153677582Y-91567785D01*
X153699242Y-91578029D01*
X153719792Y-91590347D01*
X153739037Y-91604619D01*
X153756790Y-91620710D01*
X153772881Y-91638463D01*
X153787153Y-91657708D01*
X153799471Y-91678258D01*
X153809715Y-91699918D01*
X153817787Y-91722477D01*
X153823609Y-91745719D01*
X153827124Y-91769419D01*
X153828300Y-91793350D01*
X153828300Y-92356650D01*
X153827124Y-92380581D01*
X153823609Y-92404281D01*
X153817787Y-92427523D01*
X153809715Y-92450082D01*
X153799471Y-92471742D01*
X153787153Y-92492292D01*
X153772881Y-92511537D01*
X153756790Y-92529290D01*
X153739037Y-92545381D01*
X153719792Y-92559653D01*
X153699242Y-92571971D01*
X153677582Y-92582215D01*
X153655023Y-92590287D01*
X153631781Y-92596109D01*
X153608081Y-92599624D01*
X153584150Y-92600800D01*
X153095850Y-92600800D01*
X153071919Y-92599624D01*
X153048219Y-92596109D01*
X153024977Y-92590287D01*
X153002418Y-92582215D01*
X152980758Y-92571971D01*
X152960208Y-92559653D01*
X152940963Y-92545381D01*
X152923210Y-92529290D01*
X152907119Y-92511537D01*
X152892847Y-92492292D01*
X152880529Y-92471742D01*
X152870285Y-92450082D01*
X152862213Y-92427523D01*
X152856391Y-92404281D01*
X152852876Y-92380581D01*
X152851700Y-92356650D01*
X152851700Y-91793350D01*
X152852876Y-91769419D01*
X152856391Y-91745719D01*
X152862213Y-91722477D01*
X152870285Y-91699918D01*
X152880529Y-91678258D01*
X152892847Y-91657708D01*
X152907119Y-91638463D01*
X152923210Y-91620710D01*
X152940963Y-91604619D01*
X152960208Y-91590347D01*
X152980758Y-91578029D01*
X153002418Y-91567785D01*
X153024977Y-91559713D01*
X153048219Y-91553891D01*
X153071919Y-91550376D01*
X153095850Y-91549200D01*
X153584150Y-91549200D01*
X153608081Y-91550376D01*
G37*
D12*
X147320000Y-102870000D03*
D13*
X147320000Y-100330000D03*
D12*
X158750000Y-107950000D03*
X156210000Y-107950000D03*
X153670000Y-107950000D03*
X151130000Y-107950000D03*
X148590000Y-107950000D03*
D13*
X146050000Y-107950000D03*
D12*
X158750000Y-90170000D03*
X156210000Y-90170000D03*
X153670000Y-90170000D03*
X151130000Y-90170000D03*
X148590000Y-90170000D03*
D13*
X146050000Y-90170000D03*
D12*
X149860000Y-96520000D03*
X149860000Y-93980000D03*
X152400000Y-96520000D03*
X152400000Y-93980000D03*
X154940000Y-96520000D03*
D13*
X154940000Y-93980000D03*
D11*
G36*
X154937414Y-103525229D02*
G01*
X154961114Y-103528744D01*
X154984356Y-103534566D01*
X155006915Y-103542638D01*
X155028575Y-103552882D01*
X155049125Y-103565200D01*
X155068370Y-103579472D01*
X155086123Y-103595563D01*
X155484437Y-103993877D01*
X155500528Y-104011630D01*
X155514800Y-104030875D01*
X155527118Y-104051425D01*
X155537362Y-104073085D01*
X155545434Y-104095644D01*
X155551256Y-104118886D01*
X155554771Y-104142586D01*
X155555947Y-104166517D01*
X155554771Y-104190448D01*
X155551256Y-104214148D01*
X155545434Y-104237390D01*
X155537362Y-104259949D01*
X155527118Y-104281609D01*
X155514800Y-104302159D01*
X155500528Y-104321404D01*
X155484437Y-104339157D01*
X155139157Y-104684437D01*
X155121404Y-104700528D01*
X155102159Y-104714800D01*
X155081609Y-104727118D01*
X155059949Y-104737362D01*
X155037390Y-104745434D01*
X155014148Y-104751256D01*
X154990448Y-104754771D01*
X154966517Y-104755947D01*
X154942586Y-104754771D01*
X154918886Y-104751256D01*
X154895644Y-104745434D01*
X154873085Y-104737362D01*
X154851425Y-104727118D01*
X154830875Y-104714800D01*
X154811630Y-104700528D01*
X154793877Y-104684437D01*
X154395563Y-104286123D01*
X154379472Y-104268370D01*
X154365200Y-104249125D01*
X154352882Y-104228575D01*
X154342638Y-104206915D01*
X154334566Y-104184356D01*
X154328744Y-104161114D01*
X154325229Y-104137414D01*
X154324053Y-104113483D01*
X154325229Y-104089552D01*
X154328744Y-104065852D01*
X154334566Y-104042610D01*
X154342638Y-104020051D01*
X154352882Y-103998391D01*
X154365200Y-103977841D01*
X154379472Y-103958596D01*
X154395563Y-103940843D01*
X154740843Y-103595563D01*
X154758596Y-103579472D01*
X154777841Y-103565200D01*
X154798391Y-103552882D01*
X154820051Y-103542638D01*
X154842610Y-103534566D01*
X154865852Y-103528744D01*
X154889552Y-103525229D01*
X154913483Y-103524053D01*
X154937414Y-103525229D01*
G37*
G36*
X153823720Y-104638923D02*
G01*
X153847420Y-104642438D01*
X153870662Y-104648260D01*
X153893221Y-104656332D01*
X153914881Y-104666576D01*
X153935431Y-104678894D01*
X153954676Y-104693166D01*
X153972429Y-104709257D01*
X154370743Y-105107571D01*
X154386834Y-105125324D01*
X154401106Y-105144569D01*
X154413424Y-105165119D01*
X154423668Y-105186779D01*
X154431740Y-105209338D01*
X154437562Y-105232580D01*
X154441077Y-105256280D01*
X154442253Y-105280211D01*
X154441077Y-105304142D01*
X154437562Y-105327842D01*
X154431740Y-105351084D01*
X154423668Y-105373643D01*
X154413424Y-105395303D01*
X154401106Y-105415853D01*
X154386834Y-105435098D01*
X154370743Y-105452851D01*
X154025463Y-105798131D01*
X154007710Y-105814222D01*
X153988465Y-105828494D01*
X153967915Y-105840812D01*
X153946255Y-105851056D01*
X153923696Y-105859128D01*
X153900454Y-105864950D01*
X153876754Y-105868465D01*
X153852823Y-105869641D01*
X153828892Y-105868465D01*
X153805192Y-105864950D01*
X153781950Y-105859128D01*
X153759391Y-105851056D01*
X153737731Y-105840812D01*
X153717181Y-105828494D01*
X153697936Y-105814222D01*
X153680183Y-105798131D01*
X153281869Y-105399817D01*
X153265778Y-105382064D01*
X153251506Y-105362819D01*
X153239188Y-105342269D01*
X153228944Y-105320609D01*
X153220872Y-105298050D01*
X153215050Y-105274808D01*
X153211535Y-105251108D01*
X153210359Y-105227177D01*
X153211535Y-105203246D01*
X153215050Y-105179546D01*
X153220872Y-105156304D01*
X153228944Y-105133745D01*
X153239188Y-105112085D01*
X153251506Y-105091535D01*
X153265778Y-105072290D01*
X153281869Y-105054537D01*
X153627149Y-104709257D01*
X153644902Y-104693166D01*
X153664147Y-104678894D01*
X153684697Y-104666576D01*
X153706357Y-104656332D01*
X153728916Y-104648260D01*
X153752158Y-104642438D01*
X153775858Y-104638923D01*
X153799789Y-104637747D01*
X153823720Y-104638923D01*
G37*
G36*
X158688081Y-100440376D02*
G01*
X158711781Y-100443891D01*
X158735023Y-100449713D01*
X158757582Y-100457785D01*
X158779242Y-100468029D01*
X158799792Y-100480347D01*
X158819037Y-100494619D01*
X158836790Y-100510710D01*
X158852881Y-100528463D01*
X158867153Y-100547708D01*
X158879471Y-100568258D01*
X158889715Y-100589918D01*
X158897787Y-100612477D01*
X158903609Y-100635719D01*
X158907124Y-100659419D01*
X158908300Y-100683350D01*
X158908300Y-101246650D01*
X158907124Y-101270581D01*
X158903609Y-101294281D01*
X158897787Y-101317523D01*
X158889715Y-101340082D01*
X158879471Y-101361742D01*
X158867153Y-101382292D01*
X158852881Y-101401537D01*
X158836790Y-101419290D01*
X158819037Y-101435381D01*
X158799792Y-101449653D01*
X158779242Y-101461971D01*
X158757582Y-101472215D01*
X158735023Y-101480287D01*
X158711781Y-101486109D01*
X158688081Y-101489624D01*
X158664150Y-101490800D01*
X158175850Y-101490800D01*
X158151919Y-101489624D01*
X158128219Y-101486109D01*
X158104977Y-101480287D01*
X158082418Y-101472215D01*
X158060758Y-101461971D01*
X158040208Y-101449653D01*
X158020963Y-101435381D01*
X158003210Y-101419290D01*
X157987119Y-101401537D01*
X157972847Y-101382292D01*
X157960529Y-101361742D01*
X157950285Y-101340082D01*
X157942213Y-101317523D01*
X157936391Y-101294281D01*
X157932876Y-101270581D01*
X157931700Y-101246650D01*
X157931700Y-100683350D01*
X157932876Y-100659419D01*
X157936391Y-100635719D01*
X157942213Y-100612477D01*
X157950285Y-100589918D01*
X157960529Y-100568258D01*
X157972847Y-100547708D01*
X157987119Y-100528463D01*
X158003210Y-100510710D01*
X158020963Y-100494619D01*
X158040208Y-100480347D01*
X158060758Y-100468029D01*
X158082418Y-100457785D01*
X158104977Y-100449713D01*
X158128219Y-100443891D01*
X158151919Y-100440376D01*
X158175850Y-100439200D01*
X158664150Y-100439200D01*
X158688081Y-100440376D01*
G37*
G36*
X157113081Y-100440376D02*
G01*
X157136781Y-100443891D01*
X157160023Y-100449713D01*
X157182582Y-100457785D01*
X157204242Y-100468029D01*
X157224792Y-100480347D01*
X157244037Y-100494619D01*
X157261790Y-100510710D01*
X157277881Y-100528463D01*
X157292153Y-100547708D01*
X157304471Y-100568258D01*
X157314715Y-100589918D01*
X157322787Y-100612477D01*
X157328609Y-100635719D01*
X157332124Y-100659419D01*
X157333300Y-100683350D01*
X157333300Y-101246650D01*
X157332124Y-101270581D01*
X157328609Y-101294281D01*
X157322787Y-101317523D01*
X157314715Y-101340082D01*
X157304471Y-101361742D01*
X157292153Y-101382292D01*
X157277881Y-101401537D01*
X157261790Y-101419290D01*
X157244037Y-101435381D01*
X157224792Y-101449653D01*
X157204242Y-101461971D01*
X157182582Y-101472215D01*
X157160023Y-101480287D01*
X157136781Y-101486109D01*
X157113081Y-101489624D01*
X157089150Y-101490800D01*
X156600850Y-101490800D01*
X156576919Y-101489624D01*
X156553219Y-101486109D01*
X156529977Y-101480287D01*
X156507418Y-101472215D01*
X156485758Y-101461971D01*
X156465208Y-101449653D01*
X156445963Y-101435381D01*
X156428210Y-101419290D01*
X156412119Y-101401537D01*
X156397847Y-101382292D01*
X156385529Y-101361742D01*
X156375285Y-101340082D01*
X156367213Y-101317523D01*
X156361391Y-101294281D01*
X156357876Y-101270581D01*
X156356700Y-101246650D01*
X156356700Y-100683350D01*
X156357876Y-100659419D01*
X156361391Y-100635719D01*
X156367213Y-100612477D01*
X156375285Y-100589918D01*
X156385529Y-100568258D01*
X156397847Y-100547708D01*
X156412119Y-100528463D01*
X156428210Y-100510710D01*
X156445963Y-100494619D01*
X156465208Y-100480347D01*
X156485758Y-100468029D01*
X156507418Y-100457785D01*
X156529977Y-100449713D01*
X156553219Y-100443891D01*
X156576919Y-100440376D01*
X156600850Y-100439200D01*
X157089150Y-100439200D01*
X157113081Y-100440376D01*
G37*
M02*
